<svg width="89" height="88" viewBox="0 0 89 88" fill="none" xmlns="http://www.w3.org/2000/svg">
<path d="M25.1307 12.4609H16.3005C11.1974 12.4609 7.06055 16.5978 7.06055 21.7009V23.5989C7.06055 28.702 11.1974 32.8389 16.3005 32.8389H25.1307C30.2339 32.8389 34.3707 28.702 34.3707 23.5989V21.7009C34.3707 16.5978 30.2339 12.4609 25.1307 12.4609Z" stroke="black" stroke-width="0.5"/>
<path d="M80.4408 12.4609H58.8399C57.7795 12.4609 56.9199 13.3206 56.9199 14.3809V30.9189C56.9199 31.9793 57.7795 32.8389 58.8399 32.8389H80.4408C81.5012 32.8389 82.3608 31.9793 82.3608 30.9189V14.3809C82.3608 13.3206 81.5012 12.4609 80.4408 12.4609Z" stroke="black" stroke-width="0.5"/>
<path d="M73.1208 54.6211H66.1599C61.0568 54.6211 56.9199 58.758 56.9199 63.8611V65.7591C56.9199 70.8622 61.0568 74.9991 66.1599 74.9991H73.1208C78.2239 74.9991 82.3608 70.8622 82.3608 65.7591V63.8611C82.3608 58.758 78.2239 54.6211 73.1208 54.6211Z" stroke="black" stroke-width="0.5"/>
<path d="M21.56 75.2178C22.2474 75.6496 23.1189 75.6496 23.8063 75.2179C23.8066 75.2177 23.807 75.2175 23.8073 75.2173L37.2187 66.5834C37.8209 66.1975 38.1862 65.5282 38.1862 64.8084C38.1862 64.0887 37.8209 63.4194 37.2187 63.0334L23.7501 54.409C23.0666 53.9678 22.1897 53.9683 21.5062 54.4095L8.02899 63.0325C7.43282 63.4269 7.07722 64.1008 7.08712 64.8201C7.09702 65.5399 7.47163 66.2041 8.07926 66.5816L8.0822 66.5834L21.56 75.2178ZM21.56 75.2178C21.5597 75.2176 21.5603 75.2179 21.56 75.2178Z" stroke="black" stroke-width="0.5"/>
<path d="M34.6211 22.6484H52.7458" stroke="black"/>
<path d="M51.9473 25.3874L56.6697 22.6484L51.9473 19.8984V25.3874Z" fill="black"/>
<path d="M69.6353 33.0898V40.7018C69.6411 41.3349 69.3967 41.9443 68.9559 42.3961C68.5152 42.8479 67.9141 43.105 67.2849 43.1108H25.034C24.4049 43.1166 23.8038 43.3737 23.363 43.8255C22.9222 44.2772 22.6779 44.8867 22.6837 45.5198V49.8318" stroke="black"/>
<path d="M19.9072 49.0078L22.6292 53.7488L25.3512 49.0078H19.9072Z" fill="black"/>
<path d="M38.4355 64.8125H52.7451" stroke="black"/>
<path d="M51.9473 67.5522L56.6697 64.8132L51.9473 62.0742V67.5522Z" fill="black"/>
<path d="M14.0586 22.6484H26.3458" stroke="black" stroke-width="2" stroke-linecap="round"/>
<path d="M63.0762 20.293H75.3634" stroke="black" stroke-width="2" stroke-linecap="round"/>
<path d="M63.0762 25.0039H71.8543" stroke="black" stroke-width="2" stroke-linecap="round"/>
<path d="M66.1914 64.8125H72.6302" stroke="black" stroke-width="2" stroke-linecap="round"/>
<path d="M14.5068 64.8125H30.3031" stroke="black" stroke-width="2" stroke-linecap="round"/>
</svg>
