<svg xmlns="http://www.w3.org/2000/svg" width="80" height="80" fill="none"><path fill="#E2E2E2" d="M5.33 20.59a9.49 9.49 0 0 1 9.49-9.49h6.46a9.49 9.49 0 1 1 0 18.98h-6.46a9.49 9.49 0 0 1-9.49-9.49"/><path fill="#000" fill-rule="evenodd" d="M4.955 20.59c0-5.448 4.417-9.865 9.865-9.865h6.46c5.448 0 9.865 4.417 9.865 9.865s-4.417 9.865-9.865 9.865h-6.46c-5.448 0-9.865-4.417-9.865-9.865m9.865-9.115a9.115 9.115 0 1 0 0 18.23h6.46a9.115 9.115 0 1 0 0-18.23z" clip-rule="evenodd"/><path fill="#E2E2E2" d="M50.94 20.59a9.49 9.49 0 0 1 9.49-9.49h4.75a9.49 9.49 0 1 1 0 18.98h-4.75a9.49 9.49 0 0 1-9.49-9.49"/><path fill="#000" fill-rule="evenodd" d="M50.565 20.59c0-5.448 4.417-9.865 9.865-9.865h4.75c5.448 0 9.865 4.417 9.865 9.865s-4.417 9.865-9.865 9.865h-4.75c-5.448 0-9.865-4.417-9.865-9.865m9.865-9.115a9.115 9.115 0 1 0 0 18.23h4.75a9.115 9.115 0 1 0 0-18.23z" clip-rule="evenodd"/><path fill="#E2E2E2" d="M50.94 58.92a9.49 9.49 0 0 1 9.49-9.49h4.75a9.49 9.49 0 1 1 0 18.98h-4.75a9.49 9.49 0 0 1-9.49-9.49"/><path fill="#000" fill-rule="evenodd" d="M65.18 50.18h-4.75a8.74 8.74 0 1 0 0 17.48h4.75a8.74 8.74 0 1 0 0-17.48m-4.75-.75a9.49 9.49 0 1 0 0 18.98h4.75a9.49 9.49 0 1 0 0-18.98z" clip-rule="evenodd"/><path fill="#E2E2E2" d="m6.32 57.11 12.33-7.84c.7-.45 1.6-.45 2.3 0l12.32 7.84a2.14 2.14 0 0 1 0 3.61L21 68.57a2.17 2.17 0 0 1-2.3 0L6.32 60.72a2.14 2.14 0 0 1 0-3.61"/><path fill="#000" fill-rule="evenodd" d="m19.055 49.901-.003.002-12.33 7.84a1.39 1.39 0 0 0 0 2.344l12.376 7.847.001.001a1.42 1.42 0 0 0 1.5 0l12.268-7.848a1.39 1.39 0 0 0 0-2.344L20.545 49.9a1.38 1.38 0 0 0-1.49 0M33.27 57.11l-12.32-7.84c-.7-.45-1.6-.45-2.3 0L6.32 57.11a2.14 2.14 0 0 0 0 3.61l12.38 7.85a2.17 2.17 0 0 0 2.3 0l12.27-7.85a2.14 2.14 0 0 0 0-3.61M47.35 21.09H30.77v-1h16.58z" clip-rule="evenodd"/><path fill="#000" d="m46.62 23.08 4.32-2.49-4.32-2.5z"/><path fill="#000" fill-rule="evenodd" d="M62.5 37.5V30h1v7.5A2.5 2.5 0 0 1 61 40H22a1.5 1.5 0 0 0-1.5 1.5V45h-1v-3.5A2.5 2.5 0 0 1 22 39h39a1.5 1.5 0 0 0 1.5-1.5" clip-rule="evenodd"/><path fill="#000" d="m17.31 44.55 2.49 4.31 2.49-4.31z"/><path fill="#000" fill-rule="evenodd" d="M47.35 59.42H34.26v-1h13.09z" clip-rule="evenodd"/><path fill="#000" d="m46.62 61.41 4.32-2.49-4.32-2.5z"/><path fill="#000" fill-rule="evenodd" d="M10.96 20.59a1 1 0 0 1 1-1H23.2a1 1 0 1 1 0 2H11.96a1 1 0 0 1-1-1M55.8 18.45a1 1 0 0 1 1-1h11.24a1 1 0 1 1 0 2H56.8a1 1 0 0 1-1-1M55.8 22.73a1 1 0 0 1 1-1h8.03a1 1 0 1 1 0 2H56.8a1 1 0 0 1-1-1M58.65 58.92a1 1 0 0 1 1-1h5.89a1 1 0 1 1 0 2h-5.89a1 1 0 0 1-1-1M11.37 58.92a1 1 0 0 1 1-1h14.45a1 1 0 1 1 0 2H12.37a1 1 0 0 1-1-1" clip-rule="evenodd"/></svg>