<svg xmlns="http://www.w3.org/2000/svg" width="80" height="80" fill="none"><path fill="#D3ECDC" stroke="#127731" stroke-width=".5" d="M15 29.6a9 9 0 1 1 0-18h6.46a9 9 0 1 1 0 18z"/><rect width="22.73" height="17.98" x="51.58" y="11.62" fill="#D3ECDC" stroke="#127731" stroke-width=".5" rx="2"/><path fill="#D3ECDC" stroke="#127731" stroke-width=".5" d="M60.57 67.93a9 9 0 1 1 0-18h4.74a9 9 0 1 1 0 18zM19.94 68.42a1.6 1.6 0 0 1-.88-.26L6.73 60.32a1.64 1.64 0 0 1 0-2.77l12.33-7.84a1.6 1.6 0 0 1 .88-.26c.312.001.617.091.88.26l12.32 7.84a1.64 1.64 0 0 1 0 2.77l-12.32 7.84a1.64 1.64 0 0 1-.88.26Z"/><path stroke="#66ADA3" d="M30.91 20.61h16.58"/><path fill="#66ADA3" d="m46.76 23.1 4.32-2.49-4.32-2.5z"/><path stroke="#66ADA3" d="M62.94 30.1V37a2.17 2.17 0 0 1-2.16 2.19H22.09a2.16 2.16 0 0 0-2.15 2.18v3.92"/><path fill="#66ADA3" d="m17.44 44.56 2.5 4.32 2.49-4.32z"/><path stroke="#66ADA3" d="M34.4 58.94h13.09"/><path fill="#66ADA3" d="m46.76 61.43 4.32-2.49-4.32-2.5z"/><path stroke="#127731" stroke-linecap="round" stroke-width="2" d="M12.1 20.64h11.24M56.93 18.5h11.24M56.93 22.78h8.03M59.79 58.97h5.89M12.5 58.97h14.45"/></svg>