<svg xmlns="http://www.w3.org/2000/svg" xml:space="preserve" id="图层_1" x="0" y="0" version="1.1" viewBox="0 0 80 80"><style>.st0{fill:#f4b49d}.st1{fill-rule:evenodd;clip-rule:evenodd;fill:#c65132}.st2{fill:#7f2f24}</style><path id="è·_xAF_å_xBE__x84_" d="M15.4 29.6c-5 0-9-4-9-9s4-9 9-9h6.5c5 0 9 4 9 9s-4 9-9 9z" class="st0"/><path id="å_xBD__xA2_ç_x8A__xB6__x5F_2" d="M15.4 11.1h6.5c5.2 0 9.5 4.2 9.5 9.5 0 2.5-1 4.9-2.8 6.7s-4.2 2.8-6.7 2.8h-6.5c-2.5 0-4.9-1-6.7-2.8s-2.8-4.2-2.8-6.7c0-5.3 4.2-9.5 9.5-9.5m14.9 9.5c0-4.7-3.8-8.5-8.5-8.5h-6.5c-4.7 0-8.5 3.8-8.5 8.5s3.8 8.5 8.5 8.5h6.5c4.7 0 8.5-3.8 8.5-8.5" class="st1"/><path id="ç_x9F__xA9_å_xBD__xA2__x5F_3" d="M53.6 11.6H73c.9 0 1.7.7 1.7 1.7v14.6c0 .9-.7 1.7-1.7 1.7H53.6c-.9 0-1.7-.7-1.7-1.7V13.3c.1-1 .8-1.7 1.7-1.7" class="st0"/><path id="å_xBD__xA2_ç_x8A__xB6__x5F_3" d="M53.6 11.1H73c1.2 0 2.2 1 2.2 2.2v14.6c0 1.2-1 2.2-2.2 2.2H53.6c-1.2 0-2.2-1-2.2-2.2V13.3c.1-1.2 1-2.2 2.2-2.2m20.2 1.3c-.2-.2-.5-.3-.8-.3H53.6c-.6 0-1.2.5-1.2 1.2v14.6c0 .6.5 1.2 1.2 1.2H73c.3 0 .6-.1.8-.3s.3-.5.3-.8V13.3c.1-.3-.1-.6-.3-.9" class="st1"/><path id="è·_xAF_å_xBE__x84__x5F_2" d="M61 67.9c-5 0-9-4-9-9s4-9 9-9h4.7c3.2 0 6.2 1.7 7.8 4.5s1.6 6.2 0 9-4.6 4.5-7.8 4.5z" class="st0"/><path id="å_xBD__xA2_ç_x8A__xB6__x5F_4" d="M61 49.4h4.7c5.2 0 9.5 4.2 9.5 9.5s-4.2 9.5-9.5 9.5H61c-2.5 0-4.9-1-6.7-2.8s-2.8-4.2-2.8-6.7 1-4.9 2.8-6.7 4.2-2.8 6.7-2.8m13.2 9.5c0-4.7-3.8-8.5-8.5-8.5H61c-4.7 0-8.5 3.8-8.5 8.5s3.8 8.5 8.5 8.5h4.7c4.7 0 8.5-3.8 8.5-8.5" class="st1"/><path id="è·_xAF_å_xBE__x84__x5F_3" d="M20.3 68.4c-.3 0-.6-.1-.9-.2L7.1 60.3c-.5-.3-.8-.8-.8-1.4s.3-1.1.8-1.4l12.3-7.8c.3-.2.6-.3.9-.2.3 0 .6.1.9.2l12.3 7.8c.5.3.8.8.8 1.4s-.3 1.1-.8 1.4l-12.3 7.9c-.3.1-.6.2-.9.2" class="st0"/><path id="å_xBD__xA2_ç_x8A__xB6__x5F_5" d="M19.2 49.3c.3-.2.7-.3 1.1-.3s.8.1 1.1.3l12.3 7.8c.6.4 1 1.1 1 1.8s-.4 1.4-1 1.8l-12.3 7.8c-.3.2-.7.3-1.1.3s-.8-.1-1.1-.3L6.9 60.7c-.6-.4-1-1.1-1-1.8s.4-1.4 1-1.8zm1.8.8c-.2-.1-.4-.2-.6-.2s-.4.1-.6.2L7.4 58c-.3.2-.5.6-.5 1s.2.8.5 1l12.4 7.8c.2.1.4.2.6.2s.4-.1.6-.2L33.3 60c.3-.2.5-.6.5-1s-.2-.8-.5-1z" class="st1"/><path d="M31.3 20.1h16.6v1H31.3z" class="st2"/><path id="è·_xAF_å_xBE__x84__x5F_5" d="m47.2 23.1 4.3-2.5-4.3-2.5z" class="st2"/><path d="M20.8 45.3h-1v-3.9c0-1.5 1.2-2.7 2.7-2.7h38.7c.9 0 1.7-.8 1.7-1.7v-6.9h1V37c0 1.5-1.2 2.7-2.7 2.7H22.5c-.9 0-1.7.8-1.7 1.7z" class="st2"/><path id="è·_xAF_å_xBE__x84__x5F_7" d="m17.8 44.5 2.5 4.3 2.5-4.3z" class="st2"/><path d="M34.8 58.4h13.1v1H34.8z" class="st2"/><path id="è·_xAF_å_xBE__x84__x5F_9" d="m47.2 61.4 4.3-2.5-4.3-2.5z" class="st2"/><path d="M24.2 21.6H13c-.6 0-1-.4-1-1s.4-1 1-1h11.2c.6 0 1 .4 1 1s-.4 1-1 1M69 19.5H57.7c-.6 0-1-.4-1-1s.4-1 1-1h11.2c.6 0 1 .4 1 1s-.4 1-.9 1M65.7 23.7h-8c-.6 0-1-.4-1-1s.4-1 1-1h8c.6 0 1 .4 1 1s-.5 1-1 1M66.3 59.9h-5.9c-.6 0-1-.4-1-1s.4-1 1-1h5.9c.6 0 1 .4 1 1s-.4 1-1 1M27.6 59.9H13.1c-.6 0-1-.4-1-1s.4-1 1-1h14.5c.6 0 1 .4 1 1s-.5 1-1 1" class="st2"/></svg>