<svg xmlns="http://www.w3.org/2000/svg" width="80" height="80" fill="none"><path fill="#232323" fill-rule="evenodd" d="M30.77 20.06h16.58z" clip-rule="evenodd"/><path stroke="#000" d="M30.77 20.06h16.58"/><path fill="#232323" d="m46.62 22.55 4.32-2.49-4.32-2.49z"/><path stroke="#000" d="M62.8 29.55v6.9a2.17 2.17 0 0 1-2.15 2.19H22a2.17 2.17 0 0 0-2.15 2.19v3.92"/><path fill="#000" d="m17.31 44.02 2.49 4.32 2.49-4.32z"/><path stroke="#000" d="M34.26 58.39h13.09"/><path fill="#232323" d="m46.62 60.88 4.32-2.49-4.32-2.49z"/><rect width="25.44" height="18.98" x="5.33" y="10.57" fill="ivory" stroke="#000" stroke-width=".75" rx="9.49"/><rect width="23.73" height="18.98" x="50.94" y="10.57" fill="ivory" stroke="#000" stroke-width=".75" rx="9.49"/><rect width="23.73" height="18.98" x="50.94" y="48.9" fill="ivory" stroke="#000" stroke-width=".75" rx="9.49"/><path fill="ivory" stroke="#000" stroke-width=".75" d="m6.32 56.58 12.33-7.84c.7-.45 1.6-.45 2.3 0l12.32 7.84a2.15 2.15 0 0 1 0 3.62L21 68c-.7.45-1.6.45-2.3 0L6.37 60.16a2.15 2.15 0 0 1-.05-3.58Z"/><path stroke="#000" stroke-linecap="round" stroke-width="2" d="M11.96 20.1H23.2M56.8 17.95h11.24M56.8 22.24h8.02M59.65 58.43h5.89M12.37 58.43h14.45"/></svg>