<?xml version="1.0" standalone="no"?><!DOCTYPE svg PUBLIC "-//W3C//DTD SVG 1.1//EN" "http://www.w3.org/Graphics/SVG/1.1/DTD/svg11.dtd"><svg t="1752217661050" class="icon" viewBox="0 0 1024 1024" version="1.1" xmlns="http://www.w3.org/2000/svg" p-id="1541" xmlns:xlink="http://www.w3.org/1999/xlink" width="200" height="200"><path d="M368.8 467.1H193c-57.9 0-105-47.1-105-105V186.3c0-57.9 47.1-105 105-105h175.8c57.9 0 105 47.1 105 105v175.8c0 57.9-47.1 105-105 105zM193 151.3c-19.3 0-35 15.7-35 35v175.8c0 19.3 15.7 35 35 35h175.8c19.3 0 35-15.7 35-35V186.3c0-19.3-15.7-35-35-35H193zM368.8 929.2H193c-57.9 0-105-47.1-105-105V648.4c0-57.9 47.1-105 105-105h175.8c57.9 0 105 47.1 105 105v175.8c0 57.9-47.1 105-105 105zM193 613.4c-19.3 0-35 15.7-35 35v175.8c0 19.3 15.7 35 35 35h175.8c19.3 0 35-15.7 35-35V648.4c0-19.3-15.7-35-35-35H193zM819.7 929.2H643.9c-57.9 0-105-47.1-105-105V648.4c0-57.9 47.1-105 105-105h175.8c57.9 0 105 47.1 105 105v175.8c0 57.9-47.1 105-105 105zM643.9 613.4c-19.3 0-35 15.7-35 35v175.8c0 19.3 15.7 35 35 35h175.8c19.3 0 35-15.7 35-35V648.4c0-19.3-15.7-35-35-35H643.9zM731.8 487.4c-26.9 0-53.8-10.2-74.2-30.7L549.3 348.4c-40.9-40.9-40.9-107.6 0-148.5L657.5 91.7c19.8-19.8 46.2-30.8 74.2-30.8s54.4 10.9 74.2 30.8L914.2 200c40.9 40.9 40.9 107.6 0 148.5L806 456.7c-20.4 20.5-47.3 30.7-74.2 30.7z m0-356.5c-9.3 0-18.1 3.6-24.7 10.3L598.8 249.4c-13.6 13.6-13.6 35.9 0 49.5L707 407.2c13.6 13.6 35.9 13.6 49.5 0l108.3-108.3c13.6-13.6 13.6-35.9 0-49.5L756.5 141.1c-6.6-6.6-15.4-10.2-24.7-10.2z" p-id="1542"></path></svg>