<?xml version="1.0" standalone="no"?><!DOCTYPE svg PUBLIC "-//W3C//DTD SVG 1.1//EN" "http://www.w3.org/Graphics/SVG/1.1/DTD/svg11.dtd"><svg t="1752821270635" class="icon" viewBox="0 0 1024 1024" version="1.1" xmlns="http://www.w3.org/2000/svg" p-id="27766" xmlns:xlink="http://www.w3.org/1999/xlink" width="200" height="200"><path d="M223.104 324.8C151.04 376.32 112 443.2 112 512c0 68.864 39.04 135.68 111.104 187.2C295.168 750.72 397.184 784 512 784c114.88 0 216.832-33.28 288.896-84.8C872.96 647.68 912 580.8 912 512c0-68.864-39.04-135.68-111.104-187.2C728.832 273.28 626.816 240 512 240c-114.88 0-216.832 33.28-288.896 84.8z m-55.808-78.08C257.408 182.272 379.52 144 512 144s254.592 38.336 344.704 102.656C946.688 311.04 1008 404.096 1008 512s-61.312 201.024-151.296 265.344C766.592 841.6 644.48 880 512 880s-254.592-38.272-344.704-102.656C77.312 712.96 16 619.904 16 512s61.312-201.024 151.296-265.344z" p-id="27767" fill="#2c2c2c"></path></svg>