<?xml version="1.0" standalone="no"?><!DOCTYPE svg PUBLIC "-//W3C//DTD SVG 1.1//EN" "http://www.w3.org/Graphics/SVG/1.1/DTD/svg11.dtd"><svg t="1752559882409" class="icon" viewBox="0 0 1024 1024" version="1.1" xmlns="http://www.w3.org/2000/svg" p-id="4421" xmlns:xlink="http://www.w3.org/1999/xlink" width="200" height="200"><path d="M310.528 217.6a4.266667 4.266667 0 0 1 4.266667-4.266667h221.098666c69.845333 0 109.781333 7.466667 145.493334 28.288a131.626667 131.626667 0 0 1 63.232 113.066667c0 50.773333-22.698667 87.125333-70.912 112.768a4.053333 4.053333 0 0 0 0.042666 7.253333c58.88 30.293333 84.181333 70.4 84.181334 131.925334 0 52.394667-20.778667 97.28-57.386667 124.757333-35.84 27.306667-74.88 36.522667-153.856 36.522667H314.794667a4.266667 4.266667 0 0 1-4.266667-4.266667V217.6z m241.194667 211.114667c44.885333 0 68.181333-18.346667 68.181333-54.869334 0-35.754667-23.296-54.058667-68.181333-54.058666h-114.645334a4.266667 4.266667 0 0 0-4.266666 4.266666v100.394667a4.266667 4.266667 0 0 0 4.266666 4.266667h114.645334z m-1.706667 232.832c52.394667 0 80.64-23.253333 80.64-67.413334s-28.288-67.413333-80.64-67.413333h-112.981333a4.266667 4.266667 0 0 0-4.266667 4.266667v126.208a4.266667 4.266667 0 0 0 4.266667 4.266666h112.981333z" p-id="4422"></path></svg>