<?xml version="1.0" standalone="no"?><!DOCTYPE svg PUBLIC "-//W3C//DTD SVG 1.1//EN" "http://www.w3.org/Graphics/SVG/1.1/DTD/svg11.dtd"><svg t="1752737917318" class="icon" viewBox="0 0 1213 1024" version="1.1" xmlns="http://www.w3.org/2000/svg" p-id="4469" xmlns:xlink="http://www.w3.org/1999/xlink" width="236.9140625" height="200"><path d="M420.901926 26.775704l429.093926 429.093926a37.925926 37.925926 0 0 1-53.703111 53.627259L367.274667 80.402963a37.925926 37.925926 0 0 1 53.627259-53.627259z" fill="#222222" p-id="4470"></path><path d="M508.434963 221.639111L171.501037 558.648889l314.633482 314.633481 337.009777-336.933926-314.709333-314.709333m0-107.254518l368.336593 368.336592a75.851852 75.851852 0 0 1 0 107.254519L539.761778 926.90963a75.851852 75.851852 0 0 1-107.254519 0L117.873778 612.276148a75.851852 75.851852 0 0 1 0-107.254518z" fill="#222222" p-id="4471"></path><path d="M845.520593 521.329778L501.229037 923.875556 141.994667 564.641185l74.865777-74.865778z" fill="#222222" p-id="4472"></path><path d="M983.722667 720.592593s88.670815 98.759111 88.670814 147.683555a88.670815 88.670815 0 1 1-177.265777 0c0-48.924444 88.594963-147.683556 88.594963-147.683555z" fill="#222222" p-id="4473"></path></svg>