<?xml version="1.0" standalone="no"?><!DOCTYPE svg PUBLIC "-//W3C//DTD SVG 1.1//EN" "http://www.w3.org/Graphics/SVG/1.1/DTD/svg11.dtd"><svg t="1752738094746" class="icon" viewBox="0 0 1024 1024" version="1.1" xmlns="http://www.w3.org/2000/svg" p-id="9992" xmlns:xlink="http://www.w3.org/1999/xlink" width="200" height="200"><path d="M213.333333 768h42.666667v42.666667H213.333333v-42.666667z m213.333334 0h42.666666v42.666667h-42.666666v-42.666667z m213.333333 0h42.666667v42.666667h-42.666667v-42.666667z m-341.333333 0h85.333333v42.666667H298.666667v-42.666667z m213.333333 0h85.333333v42.666667h-85.333333v-42.666667z m213.333333 0h85.333334v42.666667h-85.333334v-42.666667zM213.333333 426.666667h85.333334v42.666666H213.333333v-42.666666z m128 0h85.333334v42.666666H341.333333v-42.666666z m128 0h85.333334v42.666666h-85.333334v-42.666666z m128 0h85.333334v42.666666h-85.333334v-42.666666z m128 0h85.333334v42.666666h-85.333334v-42.666666zM213.333333 256h597.333334v42.666667H213.333333zM213.333333 597.333333h170.666667v42.666667H213.333333v-42.666667z m213.333334 0h170.666666v42.666667h-170.666666v-42.666667z m213.333333 0h170.666667v42.666667h-170.666667v-42.666667z" fill="#2c2c2c" p-id="9993"></path></svg>