<?xml version="1.0" standalone="no"?><!DOCTYPE svg PUBLIC "-//W3C//DTD SVG 1.1//EN" "http://www.w3.org/Graphics/SVG/1.1/DTD/svg11.dtd"><svg t="1752560074095" class="icon" viewBox="0 0 1024 1024" version="1.1" xmlns="http://www.w3.org/2000/svg" p-id="9717" xmlns:xlink="http://www.w3.org/1999/xlink" width="200" height="200"><path d="M896 226.133333H128c-17.066667 0-34.133333-12.8-34.133333-34.133333s17.066667-29.866667 34.133333-29.866667h768c17.066667 0 34.133333 12.8 34.133333 34.133334s-17.066667 29.866667-34.133333 29.866666zM712.533333 439.466667H311.466667c-17.066667 0-34.133333-12.8-34.133334-34.133334s12.8-34.133333 34.133334-34.133333h405.333333c17.066667 0 34.133333 12.8 34.133333 34.133333s-17.066667 34.133333-38.4 34.133334zM896 652.8H128c-17.066667 0-34.133333-12.8-34.133333-34.133333s12.8-34.133333 34.133333-34.133334h768c17.066667 0 34.133333 12.8 34.133333 34.133334s-17.066667 34.133333-34.133333 34.133333zM712.533333 866.133333H311.466667c-17.066667 0-34.133333-12.8-34.133334-34.133333s12.8-34.133333 34.133334-34.133333h405.333333c17.066667 0 34.133333 12.8 34.133333 34.133333s-17.066667 34.133333-38.4 34.133333z" fill="#292D32" p-id="9718"></path></svg>