<?xml version="1.0" encoding="UTF-8"?>
<svg width="16px" height="16px" viewBox="0 0 16 16" version="1.1" xmlns="http://www.w3.org/2000/svg" xmlns:xlink="http://www.w3.org/1999/xlink">
    <title>icon_变更分析</title>
    <defs>
        <linearGradient x1="50%" y1="0%" x2="50%" y2="100%" id="linearGradient-1">
            <stop stop-color="#FFFFFF" offset="0%"></stop>
            <stop stop-color="#E6F1F6" offset="100%"></stop>
        </linearGradient>
    </defs>
    <g id="页面-1" stroke="none" stroke-width="1" fill="none" fill-rule="evenodd">
        <g id="功能入口" transform="translate(-639.000000, -58.000000)">
            <g id="顶部导航-分析" transform="translate(1.000000, 48.000000)">
                <g id="icon_变更分析" transform="translate(638.000000, 10.000000)">
                    <rect id="矩形" fill="#000000" fill-rule="nonzero" opacity="0" x="3.63797881e-12" y="0" width="16" height="16"></rect>
                    <g id="编组-29" transform="translate(0.000000, 1.000000)">
                        <polygon id="矩形" fill="url(#linearGradient-1)" points="1 1 14 1 14 13 1 13"></polygon>
                        <path d="M6.93125007,8.97897402 L6.93125007,10.978974 L4.93125007,10.978974 L4.93125007,8.97897402 L6.93125007,8.97897402 Z" id="矩形" stroke="#7E8DB3"></path>
                        <path d="M10.2230737,2.52379173 L10.2230737,4.52379173 L8.22307375,4.52379173 L8.22307375,2.52379173 L10.2230737,2.52379173 Z" id="矩形备份" stroke="#7E8DB3"></path>
                        <path d="M4.83187085,6.59880064 L4.83187085,6.35320416 C4.83187085,5.60971659 5.0535775,4.8700246 5.49699081,4.1341282 C5.98134944,3.54356122 6.49457488,3.18244488 7.03656227,3.05088402 C7.03656227,3.05088402 7.00954245,2.12031382 7.01698713,2.1750713 C5.18213864,2.54113902 3.92874557,4.4143019 3.92874557,6.35320416 L3.92874557,6.580046 L2.81195133,6.580046 L4.36733379,8.09866189 L5.93125007,6.59880064 L4.83187085,6.59880064 Z" id="路径" fill="#2CA8FE" fill-rule="nonzero"></path>
                        <path d="M9.94206377,9.90743859 L9.94206377,9.6618421 C9.94206377,8.91835454 10.1637704,8.17866255 10.6071837,7.44276615 C11.0915424,6.85219917 11.6047678,6.49108283 12.1467552,6.35952197 C12.1467552,6.35952197 12.1197354,5.42895177 12.12718,5.48370925 C10.2923316,5.84977697 9.03893849,7.72293984 9.03893849,9.6618421 L9.03893849,9.88868395 L7.92214425,9.88868395 L9.47752671,11.4072998 L11.041443,9.90743859 L9.94206377,9.90743859 Z" id="路径备份-6" fill="#2CA8FE" fill-rule="nonzero" transform="translate(10.034450, 8.444342) scale(-1, -1) translate(-10.034450, -8.444342) "></path>
                        <path d="M14.8625001,14 L14.8625001,0 L0,0 L0,14 L11.3017854,14 L14.8625001,14 Z M1,12.9734242 L1.00178235,4.68413052 L1,1 L14,1 L14,13 L1,12.9734242 Z" id="形状" fill="#7E8DB3"></path>
                    </g>
                </g>
            </g>
        </g>
    </g>
</svg>