<?xml version="1.0" encoding="UTF-8"?>
<svg width="16px" height="16px" viewBox="0 0 16 16" version="1.1" xmlns="http://www.w3.org/2000/svg" xmlns:xlink="http://www.w3.org/1999/xlink">
    <title>秘钥管理icon</title>
    <defs>
        <linearGradient x1="50%" y1="0%" x2="50%" y2="100%" id="linearGradient-1">
            <stop stop-color="#FFFFFF" offset="0%"></stop>
            <stop stop-color="#E6F1F6" offset="100%"></stop>
        </linearGradient>
    </defs>
    <g id="页面-1" stroke="none" stroke-width="1" fill="none" fill-rule="evenodd">
        <g id="秘钥管理icon" transform="translate(-742, -58)">
            <g id="顶部导航-设置" transform="translate(1, 48)">
                <g id="秘钥管理icon" transform="translate(741, 10)">
                    <rect id="矩形" x="0" y="0" width="16" height="16"></rect>
                    <polygon id="矩形" fill="url(#linearGradient-1)" points="1.99572754 2 13.9957275 2 13.9957275 14 1.99572754 14"></polygon>
                    <g id="密钥" transform="translate(6.75, 7.4767) rotate(180) translate(-6.75, -7.4767)translate(4.5, 3.5)" fill="#2CA8FE" fill-rule="nonzero">
                        <path d="M4.24213563,2.25 C4.24213563,3.37057629 3.32907347,4.24213563 2.25,4.24213563 C1.12942371,4.24213563 0.257864367,3.32907347 0.257864367,2.25 C0.257864367,1.17092653 1.12942371,0.257864367 2.25,0.257864367 C3.37057629,0.257864367 4.24213563,1.17092653 4.24213563,2.25 L4.24213563,2.25 Z M2.1933119,0.72158927 C1.36320496,0.72158927 0.72158927,1.4010097 0.72158927,2.1933119 C0.72158927,2.9856141 1.36320496,3.70283927 2.1933119,3.70283927 C3.02341884,3.70283927 3.70283927,3.02341884 3.70283927,2.23111664 C3.70283927,1.43881444 3.02341883,0.72158927 2.1933119,0.72158927 Z" id="形状" transform="translate(2.25, 2.25) rotate(-98) translate(-2.25, -2.25)"></path>
                        <path d="M2.59585688,4.17886145 L2.59585688,7.60763149 C2.59585688,7.79854449 2.440913,7.95348837 2.25,7.95348837 C2.059087,7.95348837 1.90414312,7.79854449 1.90414312,7.60763149 L1.90414312,4.17886145 L2.59585688,4.17886145 Z" id="路径"></path>
                        <path d="M2.25,4.83183546 L3.9792844,4.83183546 C4.1701974,4.83183546 4.32514128,4.98677934 4.32514128,5.17769234 C4.32514128,5.36860534 4.1701974,5.52354922 3.9792844,5.52354922 L2.25,5.52354922 L2.25,4.83183546 Z M2.25,6.21526298 L3.9792844,6.21526298 C4.1701974,6.21526298 4.32514128,6.37020687 4.32514128,6.56111986 C4.32514128,6.75203286 4.1701974,6.90697674 3.9792844,6.90697674 L2.25,6.90697674 L2.25,6.21526298 Z" id="形状"></path>
                    </g>
                    <polygon id="路径" fill="#7E8DB3" fill-rule="nonzero" points="9.25617198 15 9.25617198 14 1.99572754 14 1.99572754 2 12.9957275 2 12.9957275 6.9967041 13.9957275 6.9967041 13.9957275 1 1 1 1 15"></polygon>
                    <path d="M15.2846164,12.1742222 L15.2846164,11.2 L14.6410609,11.2 C14.5849027,10.9408613 14.4825275,10.6939566 14.3388386,10.4711111 L14.7939498,10.016 L14.1077275,9.33155556 L13.6543942,9.78488889 C13.4310871,9.64246938 13.1843088,9.54074857 12.9255053,9.48444444 L12.9255053,8.84444444 L11.9548386,8.84444444 L11.9548386,9.488 C11.6958039,9.54449006 11.4489566,9.64684138 11.2259498,9.79022222 L10.7726164,9.33511111 L10.0863942,10.0213333 L10.5415053,10.4746667 C10.3978164,10.6975121 10.2954413,10.9444169 10.2392831,11.2035556 L9.59572754,11.2035556 L9.59572754,12.1742222 L10.2392831,12.1742222 C10.2957732,12.433257 10.3981245,12.6801043 10.5415053,12.9031111 L10.0863942,13.3564444 L10.7726164,14.0444444 L11.2259498,13.5893333 C11.4487952,13.7330222 11.6957,13.8353974 11.9548386,13.8915556 L11.9548386,14.5351111 L12.9255053,14.5351111 L12.9255053,13.8897778 C13.1845401,13.8332877 13.4313874,13.7309364 13.6543942,13.5875556 L14.1077275,14.0444444 L14.7939498,13.3582222 L14.3388386,12.9048889 C14.4825275,12.6820434 14.5849027,12.4351387 14.6410609,12.176 L15.2846164,12.1742222 Z M13.9210609,11.6888889 C13.9210609,12.2878525 13.5602539,12.8278384 13.0068836,13.0570518 C12.4535134,13.2862653 11.8165567,13.1595667 11.3930254,12.7360355 C10.9694941,12.3125042 10.8427956,11.6755475 11.072009,11.1221772 C11.3012225,10.568807 11.8412083,10.208 12.440172,10.208 C13.2576382,10.2089796 13.9200813,10.8714226 13.9210609,11.6888889 L13.9210609,11.6888889 Z" id="形状" fill="#7E8DB3" fill-rule="nonzero"></path>
                </g>
            </g>
        </g>
    </g>
</svg>