<?xml version="1.0" standalone="no"?><!DOCTYPE svg PUBLIC "-//W3C//DTD SVG 1.1//EN" "http://www.w3.org/Graphics/SVG/1.1/DTD/svg11.dtd"><svg t="1733536507567" class="icon" viewBox="0 0 1024 1024" version="1.1" xmlns="http://www.w3.org/2000/svg" p-id="8984" xmlns:xlink="http://www.w3.org/1999/xlink" width="200" height="200"><path d="M696.1664 704.8704a30.72 30.72 0 0 1 46.6944 39.6288l-3.2256 3.7888-72.3968 72.3968a30.72 30.72 0 0 1-46.6944-39.6288l3.2256-3.7888 72.3968-72.3968zM636.928 645.632a30.72 30.72 0 0 1 46.6944 39.6288l-3.2256 3.7888-72.448 72.3968a30.72 30.72 0 0 1-46.6432-39.6288l3.2256-3.7888 72.3968-72.3968zM340.736 349.3888a30.72 30.72 0 0 1 46.6944 39.6288l-3.2768 3.84L311.808 465.2544a30.72 30.72 0 0 1-46.6944-39.6288l3.2768-3.84 72.3968-72.3968zM281.4976 290.1504a30.72 30.72 0 0 1 46.6432 39.6288l-3.2256 3.84L252.5184 406.016a30.72 30.72 0 0 1-46.6944-39.6288l3.2256-3.84 72.448-72.3968z" fill="#FFC091" p-id="8985"></path><path d="M583.2192 686.7968l120.1664 120.064 98.7136-98.7136-120.1152-120.1152 54.272-54.272 138.2912 138.24a51.2 51.2 0 0 1 0 72.3456l-134.912 134.9632a51.2 51.2 0 0 1-72.448 0l-138.24-138.24 54.272-54.272z m83.968-534.8352a51.2 51.2 0 0 1 72.448 0l134.912 134.912a51.2 51.2 0 0 1 0 72.3968l-490.752 490.8032-197.7344 18.176a25.6 25.6 0 0 1-27.8016-27.8528l18.176-197.6832 490.752-490.752zM619.52 308.224l-369.152 369.152-9.984 108.6976 108.8-10.0352 369.0496-369.0496-98.7136-98.7648z m83.968-83.968l-29.696 29.696 98.7648 98.7136 29.6448-29.6448-98.7648-98.7136zM282.112 152.0128a51.2 51.2 0 0 1 72.448 0l138.1888 138.24-54.3232 54.272-120.1152-120.1152L219.648 323.072l120.1152 120.1664-54.272 54.272-138.24-138.24a51.2 51.2 0 0 1 0-72.3968L282.112 151.9616z" fill="#EB6939" p-id="8986"></path></svg>