<?xml version="1.0" encoding="UTF-8"?>
<svg width="16px" height="16px" viewBox="0 0 16 16" version="1.1" xmlns="http://www.w3.org/2000/svg" xmlns:xlink="http://www.w3.org/1999/xlink">
    <title>icon_变更元素</title>
    <defs>
        <linearGradient x1="0%" y1="50%" x2="100%" y2="50%" id="linearGradient-1">
            <stop stop-color="#DEDEDE" offset="0%"></stop>
            <stop stop-color="#FFFFFF" offset="100%"></stop>
        </linearGradient>
    </defs>
    <g id="页面-1" stroke="none" stroke-width="1" fill="none" fill-rule="evenodd">
        <g id="本地变更元素及属性清单" transform="translate(-652.000000, -89.000000)">
            <g id="下拉框" transform="translate(639.000000, 80.000000)">
                <g id="行" transform="translate(5.000000, 5.000000)">
                    <g id="icon_变更元素" transform="translate(8.000000, 4.000000)">
                        <rect id="矩形" fill="#D6D6D6" fill-rule="nonzero" opacity="0" x="0" y="0" width="16" height="16"></rect>
                        <path d="M2,1 L12.6001839,1 L12.6001839,1 L15,3.45050773 L15,14 C15,14.5522847 14.5522847,15 14,15 L2,15 C1.44771525,15 1,14.5522847 1,14 L1,2 C1,1.44771525 1.44771525,1 2,1 Z" id="矩形" fill="url(#linearGradient-1)"></path>
                        <g id="变更" transform="translate(6.798015, 8.318005)" fill="#414F58" fill-rule="nonzero" stroke="#414F58" stroke-width="0.2">
                            <path d="M4.90867925,1.09132075 L3.81800539,2.18199461 L4.63633423,2.18199461 C4.63633423,3.08442049 3.90274933,3.81800539 3.00032345,3.81800539 C2.72474394,3.81800539 2.46274933,3.75008086 2.23698113,3.62716981 L1.83784367,4.02566038 C2.17358491,4.23849057 2.57142857,4.36398922 2.99967655,4.36398922 C4.20485175,4.36398922 5.18167116,3.38781671 5.18167116,2.18199461 L6,2.18199461 L4.90867925,1.09132075 Z M1.36366577,2.18199461 C1.36366577,1.27956873 2.09725067,0.545983827 2.99967655,0.545983827 C3.27525606,0.545983827 3.53725067,0.613908356 3.76301887,0.736819407 L4.16150943,0.338328841 C3.82576819,0.125498652 3.42792453,0 2.99967655,0 C1.79450135,0 0.817681941,0.976172507 0.817681941,2.18199461 L0,2.18199461 L1.09067385,3.27266846 L2.18134771,2.18199461 L1.36366577,2.18199461 Z" id="形状"></path>
                        </g>
                        <path d="M14,1.5 L14.5,14 L2,14.5 L1.5,2 L14,1.5 Z" id="矩形备份-2" stroke="#414F58"></path>
                        <line x1="4" y1="12.0192193" x2="6.95112776" y2="12.0192193" id="路径-2" stroke="#414F58"></line>
                        <line x1="3.99735166" y1="8.80206405" x2="6.95112776" y2="8.80206405" id="路径-2备份" stroke="#414F58"></line>
                        <line x1="3.99997185" y1="5.35706686" x2="11.9221898" y2="5.35706686" id="路径-2备份-2" stroke="#414F58"></line>
                    </g>
                </g>
            </g>
        </g>
    </g>
</svg>