<?xml version="1.0" encoding="UTF-8"?>
<svg width="16px" height="16px" viewBox="0 0 16 16" version="1.1" xmlns="http://www.w3.org/2000/svg" xmlns:xlink="http://www.w3.org/1999/xlink">
    <title>文档模版库配置</title>
    <defs>
        <linearGradient x1="50%" y1="56.8359375%" x2="50%" y2="100%" id="linearGradient-1">
            <stop stop-color="#FFFFFF" offset="0%"></stop>
            <stop stop-color="#E6F1F6" offset="100%"></stop>
        </linearGradient>
        <linearGradient x1="50%" y1="56.8359375%" x2="50%" y2="100%" id="linearGradient-2">
            <stop stop-color="#FFFFFF" offset="0%"></stop>
            <stop stop-color="#E6F1F6" offset="100%"></stop>
        </linearGradient>
    </defs>
    <g id="页面-1" stroke="none" stroke-width="1" fill="none" fill-rule="evenodd">
        <g id="文档模版库功能入口" transform="translate(-1064.000000, -58.000000)">
            <g id="顶部导航-设置" transform="translate(1.000000, 48.000000)">
                <g id="文档模版库配置" transform="translate(1063.000000, 10.000000)">
                    <rect id="矩形" fill="#000000" fill-rule="nonzero" opacity="0" x="0" y="0" width="15.9549234" height="16"></rect>
                    <polygon id="矩形" fill="url(#linearGradient-1)" points="1.99436542 2 13.9605579 2 13.9605579 14 1.99436542 14"></polygon>
                    <polyline id="路径" stroke="#7E8DB3" fill="url(#linearGradient-2)" points="9.83528744 14.5416385 1.99436542 14.5416385 1.99436542 1.53398307 11.7600888 1.53398307 13.9605579 3.74486357 13.9605579 7.48697046"></polyline>
                    <path d="M15.6888889,12.3297778 L15.6888889,11.3555556 L15.0453333,11.3555556 C14.9891751,11.0964169 14.8868,10.8495122 14.7431111,10.6266667 L15.1982222,10.1715556 L14.512,9.48711112 L14.0586667,9.94044445 C13.8353595,9.79802494 13.5885813,9.69630413 13.3297778,9.64 L13.3297778,9 L12.3591111,9 L12.3591111,9.64355556 C12.1000764,9.70004562 11.8532291,9.80239694 11.6302222,9.94577778 L11.1768889,9.49066667 L10.4906667,10.1768889 L10.9457778,10.6302223 C10.8020889,10.8530677 10.6997138,11.0999725 10.6435556,11.3591112 L10,11.3591112 L10,12.3297778 L10.6435556,12.3297778 C10.7000456,12.5888126 10.8023969,12.8356599 10.9457778,13.0586667 L10.4906667,13.512 L11.1768889,14.2 L11.6302222,13.7448889 C11.8530677,13.8885778 12.0999724,13.990953 12.3591111,14.0471112 L12.3591111,14.6906667 L13.3297778,14.6906667 L13.3297778,14.0453334 C13.5888125,13.9888433 13.8356598,13.886492 14.0586667,13.7431112 L14.512,14.2 L15.1982222,13.5137778 L14.7431111,13.0604445 C14.8868,12.837599 14.9891751,12.5906943 15.0453333,12.3315556 L15.6888889,12.3297778 Z M14.3253333,11.8444445 C14.3253333,12.4434081 13.9645263,12.983394 13.4111561,13.2126074 C12.8577858,13.4418209 12.2208291,13.3151223 11.7972979,12.8915911 C11.3737666,12.4680598 11.247068,11.8311031 11.4762815,11.2777328 C11.705495,10.7243626 12.2454808,10.3635556 12.8444444,10.3635556 C13.6619107,10.3645352 14.3243537,11.0269782 14.3253333,11.8444445 L14.3253333,11.8444445 Z" id="形状" fill="#7E8DB3" fill-rule="nonzero"></path>
                    <line x1="4.91224129" y1="4.75494012" x2="10.6888307" y2="4.75494012" id="路径-3" stroke="#2CA8FE" stroke-linecap="round"></line>
                    <line x1="4.91224129" y1="8.03781076" x2="10.6888307" y2="8.03781076" id="路径-3备份" stroke="#2CA8FE" stroke-linecap="round"></line>
                    <line x1="4.91224129" y1="11.0378108" x2="7.69728254" y2="11.0378108" id="路径-3备份-2" stroke="#2CA8FE" stroke-linecap="round"></line>
                </g>
            </g>
        </g>
    </g>
</svg>