<?xml version="1.0" encoding="UTF-8"?>
<svg width="15px" height="14px" viewBox="0 0 15 14" version="1.1" xmlns="http://www.w3.org/2000/svg" xmlns:xlink="http://www.w3.org/1999/xlink">
    <title>编组</title>
    <defs>
        <linearGradient x1="50%" y1="0%" x2="50%" y2="98.3391608%" id="linearGradient-1">
            <stop stop-color="#FFFFFF" offset="0%"></stop>
            <stop stop-color="#E6F1F6" offset="100%"></stop>
        </linearGradient>
    </defs>
    <g id="客户端主菜单调整" stroke="none" stroke-width="1" fill="none" fill-rule="evenodd">
        <g id="客户端主菜单调整-新增“模型库”、“仿真设置”、“快捷键助手”icon" transform="translate(-740, -11)">
            <g id="编组" transform="translate(740.0043, 11)">
                <g id="topiconlexlibrary">
                    <polygon id="矩形" fill="url(#linearGradient-1)" points="0.995727539 1 12.9957275 1 12.9957275 13 0.995727539 13"></polygon>
                    <polygon id="路径" fill="#7E8DB3" fill-rule="nonzero" points="8.25617198 14 8.25617198 13 0.995727539 13 0.995727539 1 11.9957275 1 11.9957275 5.9967041 12.9957275 5.9967041 12.9957275 -5.40123501e-14 -3.15998741e-13 -5.40123501e-14 -3.15998741e-13 14"></polygon>
                    <polygon id="路径" fill="#7E8DB3" fill-rule="nonzero" points="8.25617198 14 8.25617198 13 0.995727539 13 0.995727539 1 11.9957275 1 11.9957275 5.9967041 12.9957275 5.9967041 12.9957275 -5.40123501e-14 -3.15998741e-13 -5.40123501e-14 -3.15998741e-13 14"></polygon>
                    <path d="M14.2846164,11.1742222 L14.2846164,10.2 L13.6410609,10.2 C13.5849027,9.94086131 13.4825275,9.69395659 13.3388386,9.47111111 L13.7939498,9.016 L13.1077275,8.33155556 L12.6543942,8.78488889 C12.4310871,8.64246938 12.1843088,8.54074857 11.9255053,8.48444444 L11.9255053,7.84444444 L10.9548386,7.84444444 L10.9548386,8.488 C10.6958039,8.54449006 10.4489566,8.64684138 10.2259498,8.79022222 L9.77261643,8.33511111 L9.08639421,9.02133333 L9.54150532,9.47466667 C9.39781643,9.69751215 9.2954413,9.94441688 9.2392831,10.2035556 L8.59572754,10.2035556 L8.59572754,11.1742222 L9.2392831,11.1742222 C9.29577316,11.433257 9.39812448,11.6801043 9.54150532,11.9031111 L9.08639421,12.3564444 L9.77261643,13.0444444 L10.2259498,12.5893333 C10.4487952,12.7330222 10.6957,12.8353974 10.9548386,12.8915556 L10.9548386,13.5351111 L11.9255053,13.5351111 L11.9255053,12.8897778 C12.1845401,12.8332877 12.4313874,12.7309364 12.6543942,12.5875556 L13.1077275,13.0444444 L13.7939498,12.3582222 L13.3388386,11.9048889 C13.4825275,11.6820434 13.5849027,11.4351387 13.6410609,11.176 L14.2846164,11.1742222 Z M12.9210609,10.6888889 C12.9210609,11.2878525 12.5602539,11.8278384 12.0068836,12.0570518 C11.4535134,12.2862653 10.8165567,12.1595667 10.3930254,11.7360355 C9.96949414,11.3125042 9.84279558,10.6755475 10.072009,10.1221772 C10.3012225,9.56880699 10.8412083,9.208 11.440172,9.208 C12.2576382,9.20897959 12.9200813,9.87142264 12.9210609,10.6888889 L12.9210609,10.6888889 Z" id="形状" fill="#7E8DB3" fill-rule="nonzero"></path>
                </g>
                <g id="花瓣素材_图表,图标,传媒,流程图,一致,图像,枝,设计元素,矢量,联系_22569855-[转换]-01" transform="translate(1.9957, 2)" fill="#2CA8FE" fill-rule="nonzero">
                    <path d="M1.97215203,0.000142890433 C1.65703467,-0.00625780111 1.37729871,0.202965675 1.29125443,0.509407995 C1.20521015,0.815850315 1.33451254,1.14238832 1.60598582,1.30422517 C1.87745911,1.46606202 2.22278087,1.4224678 2.44652403,1.19811368 C2.67026719,0.973759562 2.7161217,0.62510934 2.55813724,0.349473773 C2.43710173,0.1370666 2.21464138,0.00444845678 1.97215203,0.000142890433 L1.97215203,0.000142890433 Z M6.06767004,0.934033446 C5.99339832,1.24037256 6.13079217,1.55910885 6.40333912,1.71274315 C6.67588607,1.86637744 7.01640635,1.8170406 7.23526962,1.59220752 C7.45413288,1.36737444 7.49739178,1.02246397 7.34095613,0.749551279 C7.21394929,0.526968304 6.97626363,0.392851151 6.72214088,0.400376907 C6.40957188,0.409261575 6.14194175,0.627694336 6.06767004,0.934033446 Z M0.706492102,2.75785353 C0.391489895,2.7517529 0.112042124,2.96112681 0.0262548026,3.26751567 C-0.0595325193,3.57390452 0.069923656,3.9002246 0.341379589,4.06185046 C0.612835522,4.22347633 0.957996197,4.17974488 1.18157654,3.9553985 C1.40515689,3.73105212 1.4509068,3.38253364 1.29294189,3.10702791 C1.17196465,2.89435706 0.949185884,2.76171376 0.706492102,2.75785353 L0.706492102,2.75785353 Z M7.28730823,3.79390949 C6.97545366,3.80279325 6.70789921,4.02114485 6.63362207,4.32738379 C6.55934494,4.63362273 6.69665048,4.95227738 6.96908551,5.10591741 C7.24152053,5.25955745 7.58194428,5.21031877 7.80080516,4.985618 C8.01966605,4.76091722 8.06302649,4.41613116 7.90674292,4.14324037 C7.77942243,3.92064931 7.54159898,3.78652851 7.28730823,3.79390949 Z M2.24023407,6.37810098 C2.16596235,6.68444009 2.3033562,7.00317639 2.57590315,7.15681068 C2.8484501,7.31044497 3.18897038,7.26110813 3.40783364,7.03627505 C3.62669691,6.81144197 3.66995581,6.4665315 3.51352016,6.19361881 C3.38655637,5.970681 3.14847788,5.83647653 2.89408547,5.84444444 C2.58213591,5.85332911 2.31450578,6.07176187 2.24023407,6.37810098 Z" id="形状"></path>
                    <path d="M2.02568847,0.639281933 C1.96620808,0.641908923 1.91493283,0.682270068 1.89800947,0.739784028 C1.88108611,0.797297988 1.90224241,0.85929601 1.95069014,0.894163471 L3.31572121,1.91384447 C3.36447873,1.83368487 3.42111501,1.75867004 3.48477482,1.68993274 L2.11697742,0.668703253 C2.09092459,0.648392086 2.05860402,0.637975561 2.02568847,0.639281933 Z M6.9589802,0.896331358 C6.93190351,0.895706638 6.90522274,0.902965005 6.88213765,0.91723598 L5.46177995,1.77587397 C5.51800723,1.8511984 5.5662218,1.93226842 5.60562921,2.01774819 L7.02644796,1.15864565 C7.08060739,1.12680297 7.10707354,1.06250105 7.09117528,1.00138476 C7.07527701,0.940268468 7.02090998,0.897313507 6.95821178,0.896331358 L6.9589802,0.896331358 Z M3.13713912,2.74631297 L0.745952636,3.34681759 C0.697223205,3.35749478 0.65784875,3.39355464 0.642661249,3.44141378 C0.627473748,3.48927291 0.638780543,3.54166037 0.672322474,3.57884231 C0.705864406,3.61602426 0.756545655,3.63235185 0.805275085,3.62167466 L0.813727765,3.61950677 L3.20122581,3.0194667 C3.17066087,2.93436455 3.1497296,2.84605749 3.13882965,2.75622331 C3.13882965,2.75312633 3.13882965,2.75002935 3.13775386,2.74693237 L3.13713912,2.74631297 Z M5.60593658,3.17106392 C5.56432356,3.25503371 5.51349468,3.33403599 5.45440307,3.40658933 L7.54344464,4.77189341 C7.60812163,4.81435446 7.69471544,4.7959478 7.73685733,4.73078098 C7.77899922,4.66561416 7.76073093,4.57836452 7.69605395,4.53590345 L5.60593658,3.17106392 Z M3.82672417,3.74911543 L2.74969898,6.57820759 C2.72930254,6.62577403 2.73642913,6.68077845 2.7682613,6.72147505 C2.80009346,6.76217165 2.85150682,6.78200906 2.90217529,6.77314462 C2.95284376,6.76428018 2.99461068,6.7281409 3.01096365,6.67901432 L4.08552987,3.85565157 C3.99564174,3.82981874 3.90885014,3.79409139 3.82672417,3.74911543 L3.82672417,3.74911543 Z" id="形状"></path>
                    <path d="M3.75052742,1.34126058 C4.4179069,0.95104849 5.27357592,1.17862285 5.66171767,1.84956214 C6.04985941,2.52050142 5.8234925,3.38073458 5.15611301,3.77094668 L5.15363266,3.77234932 C4.72191383,4.0247723 4.18903762,4.02647297 3.75573335,3.7768107 C3.32242908,3.52714844 3.05452597,3.06405287 3.05293347,2.56196764 C3.05135511,2.0598824 3.31632822,1.59508618 3.74804707,1.34266322 L3.75052742,1.34126058 Z" id="路径"></path>
                </g>
            </g>
        </g>
    </g>
</svg>