<?xml version="1.0" encoding="UTF-8"?>
<svg width="16px" height="16px" viewBox="0 0 16 16" version="1.1" xmlns="http://www.w3.org/2000/svg" xmlns:xlink="http://www.w3.org/1999/xlink">
    <title>iconleadin</title>
    <defs>
        <linearGradient x1="0%" y1="50%" x2="100%" y2="50%" id="linearGradient-1">
            <stop stop-color="#DEDEDE" offset="0%"></stop>
            <stop stop-color="#FFFFFF" offset="100%"></stop>
        </linearGradient>
    </defs>
    <g id="公共组件" stroke="none" stroke-width="1" fill="none" fill-rule="evenodd">
        <g id="需求表工具栏" transform="translate(-607.000000, -6.000000)">
            <g id="iconleadin" transform="translate(607.000000, 6.500000)">
                <rect id="矩形" fill="#000000" fill-rule="nonzero" opacity="0" transform="translate(8.000000, 7.500000) scale(-1, 1) rotate(-360.000000) translate(-8.000000, -7.500000) " x="0" y="0" width="16" height="15"></rect>
                <path d="M12.6666667,1.5 L3.33333334,1.5 C2.597,1.5 2,2.097 2,2.83333334 L2,12.1666667 C2,12.903 2.597,13.5 3.33333334,13.5 L12.6666667,13.5 C13.403,13.5 14,12.903 14,12.1666667 L14,2.83333334 C14,2.097 13.403,1.5 12.6666667,1.5 Z" id="形状" fill="url(#linearGradient-1)" transform="translate(8.000000, 7.500000) scale(-1, 1) rotate(-360.000000) translate(-8.000000, -7.500000) "></path>
                <path d="M12.9776001,13.5 C13.3573313,13.5 14,12.7888221 14,12.4090909 L14,10.7727273 C14,10.5656011 13.6616716,10.2272727 13.4545455,10.2272727 C13.2474193,10.2272727 12.9090909,10.5656012 12.9090909,10.7727273 L12.9090909,12.4090909 L3.09090909,12.4090909 L3.09090909,2.59090909 L12.9090909,2.59090909 L12.9090909,4.22727273 C12.9090909,4.43439886 13.2474193,4.77738814 13.4545455,4.77738814 C13.6616716,4.77738814 14,4.43439884 14,4.22727273 L14,2.59090909 C14,2.21117786 13.3573313,1.5 12.9776001,1.5 L3.00531006,1.5 C2.62557883,1.5 2,2.21117788 2,2.59090909 L2,12.4090909 C2,12.7888221 2.67665683,13.5 3.09090909,13.5 L12.9776001,13.5 Z" id="路径" fill="#414F58" fill-rule="nonzero" transform="translate(8.000000, 7.500000) scale(-1, 1) rotate(-540.000000) translate(-8.000000, -7.500000) "></path>
                <path d="M10.5347856,10.5 C10.6127032,10.5 11.0039155,10.4569756 11.0818331,10.3709266 C13.0272777,8.21200077 14,7.08835856 14,7 C14,6.93125407 13.0597667,5.87253431 11.1793002,3.82384074 C11.0234651,3.6517429 10.4179093,3.3832759 10.2620742,3.55537374 C10.1062391,3.72747158 10.1062391,4.46635662 10.2620742,4.63845446 L12.3384551,6.5 L6.13122675,6.5 C5.8974741,6.5 5.00263977,6.74185327 5.00263977,7 C5.00263977,7.25814673 5.89747412,7.49053953 6.13122675,7.49053955 L12.3384551,7.49053955 L10.2620742,9.76858423 C10.1062391,9.94068207 10.1062391,10.1988288 10.2620742,10.3709266 C10.3399918,10.4569756 10.4568681,10.5 10.5347856,10.5 Z" id="路径" fill="#414F58" fill-rule="nonzero" transform="translate(9.501320, 7.000000) scale(-1, 1) rotate(-360.000000) translate(-9.501320, -7.000000) "></path>
            </g>
        </g>
    </g>
</svg>