<?xml version="1.0" encoding="UTF-8"?>
<svg width="16px" height="16px" viewBox="0 0 16 16" version="1.1" xmlns="http://www.w3.org/2000/svg" xmlns:xlink="http://www.w3.org/1999/xlink">
    <title>切片</title>
    <g id="页面" stroke="none" stroke-width="1" fill="none" fill-rule="evenodd">
        <g id="M-Design顶部菜单" transform="translate(-540.000000, -1627.000000)" fill="#000000" fill-rule="nonzero">
            <g id="编组-4" transform="translate(528.000000, 1619.000000)">
                <g id="行" transform="translate(4.000000, 4.000000)">
                    <g id="iconselect" transform="translate(8.000000, 4.000000)">
                        <polygon id="矩形" opacity="0" points="0 0 16 0 16 16 9.23828125 16 0 16"></polygon>
                        <path d="M6.52062988,13.0806885 C6.50659922,13.0820804 6.50413254,13.0851729 6.4901123,13.0857544 C6.34515381,13.0917664 6.15216064,12.9065247 5.9912883,12.7787687 L2.50793457,9.02874756 C2.30303955,8.81524658 2.50421143,8.51873779 2.77337646,8.26678467 C3.0425415,8.01483154 3.36730957,7.89263916 3.59454346,8.12750244 L6.39001465,11.0646362 C7.27981617,9.7697955 7.94916838,8.79939755 8.39807129,8.15344238 C9.10160861,7.14107743 9.86840923,6.01084346 10.6984732,4.76274048 C10.7667362,4.66009861 10.8700935,4.50434218 11.0085449,4.29547119 C11.1956177,4.05511475 11.5425415,3.99993896 11.8676147,4.1862793 C12.192688,4.37261963 12.3534546,4.70977783 12.1858521,4.99584961 L7.02786255,12.7219849 C6.8571167,12.8919067 6.64797974,13.0680542 6.52062988,13.0806885 Z" id="路径"></path>
                    </g>
                </g>
            </g>
        </g>
    </g>
</svg>