<?xml version="1.0" encoding="UTF-8"?>
<svg width="16px" height="16px" viewBox="0 0 16 16" version="1.1" xmlns="http://www.w3.org/2000/svg" xmlns:xlink="http://www.w3.org/1999/xlink">
    <title>iconexport</title>
    <defs>
        <linearGradient x1="0%" y1="50%" x2="100%" y2="50%" id="linearGradient-1">
            <stop stop-color="#DEDEDE" offset="0%"></stop>
            <stop stop-color="#FFFFFF" offset="100%"></stop>
        </linearGradient>
    </defs>
    <g id="公共组件" stroke="none" stroke-width="1" fill="none" fill-rule="evenodd">
        <g id="需求表工具栏" transform="translate(-678.000000, -6.000000)">
            <g id="iconexport" transform="translate(678.000000, 6.000000)">
                <rect id="矩形" fill="#000000" fill-rule="nonzero" opacity="0" transform="translate(8.000000, 8.000000) scale(-1, 1) rotate(-360.000000) translate(-8.000000, -8.000000) " x="0" y="0" width="16" height="16"></rect>
                <g id="编组-4" transform="translate(2.000000, 1.500000)">
                    <path d="M10.6666667,0.5 L1.33333334,0.5 C0.597,0.5 -1.77635684e-15,1.097 -1.77635684e-15,1.83333334 L-1.77635684e-15,11.1666667 C-1.77635684e-15,11.903 0.597,12.5 1.33333334,12.5 L10.6666667,12.5 C11.403,12.5 12,11.903 12,11.1666667 L12,1.83333334 C12,1.097 11.403,0.5 10.6666667,0.5 Z" id="形状" fill="url(#linearGradient-1)" transform="translate(6.000000, 6.500000) scale(-1, 1) rotate(-360.000000) translate(-6.000000, -6.500000) "></path>
                    <path d="M10.9776001,12.5 C11.3573313,12.5 12,11.7888221 12,11.4090909 L12,9.77272727 C12,9.56560114 11.6616716,9.22727273 11.4545455,9.22727273 C11.2474193,9.22727273 10.9090909,9.56560116 10.9090909,9.77272727 L10.9090909,11.4090909 L1.09090909,11.4090909 L1.09090909,1.59090909 L10.9090909,1.59090909 L10.9090909,3.22727273 C10.9090909,3.43439886 11.2474193,3.77738814 11.4545455,3.77738814 C11.6616716,3.77738814 12,3.43439884 12,3.22727273 L12,1.59090909 C12,1.21117786 11.3573313,0.5 10.9776001,0.5 L1.00531006,0.5 C0.625578827,0.5 0,1.21117788 0,1.59090909 L0,11.4090909 C0,11.7888221 0.676656828,12.5 1.09090909,12.5 L10.9776001,12.5 Z" id="路径" fill="#414F58" fill-rule="nonzero" transform="translate(6.000000, 6.500000) scale(-1, 1) rotate(-540.000000) translate(-6.000000, -6.500000) "></path>
                    <path d="M8.53478564,9.5 C8.61270319,9.5 9.00391554,9.45697555 9.08183309,9.37092663 C11.0272777,7.21200077 12,6.08835856 12,6 C12,5.93125407 11.0597667,4.87253431 9.17930021,2.82384074 C9.02346511,2.6517429 8.41790932,2.3832759 8.26207422,2.55537374 C8.10623912,2.72747158 8.10623912,3.46635662 8.26207422,3.63845446 L10.3384551,5.5 L4.13122675,5.5 C3.8974741,5.5 3.00263977,5.74185327 3.00263977,6 C3.00263977,6.25814673 3.89747412,6.49053953 4.13122675,6.49053955 L10.3384551,6.49053955 L8.26207422,8.76858423 C8.10623912,8.94068207 8.10623912,9.1988288 8.26207422,9.37092663 C8.33999177,9.45697555 8.45686809,9.5 8.53478564,9.5 Z" id="路径" fill="#414F58" fill-rule="nonzero" transform="translate(7.501320, 6.000000) scale(-1, 1) rotate(-540.000000) translate(-7.501320, -6.000000) "></path>
                </g>
            </g>
        </g>
    </g>
</svg>