<?xml version="1.0" encoding="UTF-8"?>
<svg width="14px" height="14px" viewBox="0 0 14 14" version="1.1" xmlns="http://www.w3.org/2000/svg" xmlns:xlink="http://www.w3.org/1999/xlink">
    <title>编组 61</title>
    <g id="6.12-流程模板界面设计" stroke="none" stroke-width="1" fill="none" fill-rule="evenodd">
        <g id="编组-61">
            <rect id="矩形" x="0" y="0" width="14" height="14"></rect>
            <g id="编组-59" transform="translate(1.000000, 1.000000)" fill-rule="nonzero">
                <path d="M10.9090909,0 C11.5115966,0 12,0.48842045 12,1.09090909 L12,10.9090909 C12,11.5115966 11.5115966,12 10.9090909,12 L1.09090909,12 C0.48842045,12 0,11.5115966 0,10.9090909 L0,1.09090909 C0,0.48842045 0.48842045,0 1.09090909,0 L10.9090909,0 Z" id="形状-path" fill="#1890ff"></path>
                <path d="M10.4444444,1 L1.55555556,1 C1.24873264,1 1,1.24873264 1,1.55555556 L1,10.4444444 C1,10.7512674 1.24873264,11 1.55555556,11 L10.4444444,11 C10.7512674,11 11,10.7512674 11,10.4444444 L11,1.55555556 C11,1.24873264 10.7512674,1 10.4444444,1 Z" id="形状-path" fill="#FFFFFF"></path>
                <polygon id="形状-path" fill="#414F58" points="9 5.49992969 3 5.50008594 3 6.50003906 9 6.50003906"></polygon>
                <polygon id="形状-path" fill="#414F58" points="6.50010938 8.99998438 6.49995313 2.99998438 5.5 2.99998438 5.5 8.99998438"></polygon>
            </g>
        </g>
    </g>
</svg>