<?xml version="1.0" encoding="UTF-8"?>
<svg width="12px" height="12px" viewBox="0 0 12 12" version="1.1" xmlns="http://www.w3.org/2000/svg" xmlns:xlink="http://www.w3.org/1999/xlink">
    <title>形状</title>
    <g id="客户端主菜单调整" stroke="none" stroke-width="1" fill="none" fill-rule="evenodd">
        <g id="仿真设置——外部解算器" transform="translate(-707, -140)" fill="#414F58" fill-rule="nonzero">
            <g id="编组-5" transform="translate(698, 132)">
                <path d="M13.2340405,11.9111551 C12.2655155,11.9122757 12.0114401,12.6552464 12.0102561,13.5719131 L12.0102561,14.5154746 L10.0265417,14.5154746 L10.0265417,13.5719131 C10.0265417,11.8977077 11.4651209,10.5361551 13.2340405,10.5361551 L17.327183,10.5361551 L17.327183,8.43499375 L21,11.9111551 L13.2340405,11.9111551 Z M16.7659595,17.3338324 L12.674001,17.3338324 L12.674001,19.4349938 L9,15.9588324 L16.7671436,15.9588324 C17.7356685,15.9577118 18.0610468,15.2147411 18.0622308,14.2980744 L18.0622308,13.3533923 L19.9746423,13.3533923 L19.9746423,14.2980744 C19.9734583,15.9722798 18.5348791,17.3338324 16.7659595,17.3338324 Z" id="形状"></path>
            </g>
        </g>
    </g>
</svg>