<?xml version="1.0" encoding="UTF-8"?>
<svg width="48px" height="48px" viewBox="0 0 48 48" version="1.1" xmlns="http://www.w3.org/2000/svg" xmlns:xlink="http://www.w3.org/1999/xlink">
    <title>welcomeprojectsettings  </title>
    <defs>
        <linearGradient x1="12.2491073%" y1="14.6858551%" x2="92.3087619%" y2="7.38790761%" id="linearGradient-1">
            <stop stop-color="#9DC3FF" offset="0%"></stop>
            <stop stop-color="#70A6FE" offset="100%"></stop>
        </linearGradient>
        <linearGradient x1="12.2284962%" y1="43.0243664%" x2="92.3318614%" y2="41.5827966%" id="linearGradient-2">
            <stop stop-color="#9DC3FF" offset="0%"></stop>
            <stop stop-color="#70A6FE" offset="100%"></stop>
        </linearGradient>
    </defs>
    <g id="页面-1" stroke="none" stroke-width="1" fill="none" fill-rule="evenodd" opacity="0.75">
        <g id="规则设置弹窗" transform="translate(-740.000000, -48.000000)" fill-rule="nonzero">
            <g id="编组-42" transform="translate(0.000000, 28.000000)">
                <g id="welcomeprojectsettings--" transform="translate(740.000000, 20.000000)">
                    <rect id="矩形" fill="#000000" opacity="0" x="0" y="0" width="48" height="48"></rect>
                    <g id="打开" transform="translate(0.778425, 1.000000)">
                        <path d="M42.3825713,0.5 C43.2384202,0.5 44.0143558,0.848574296 44.5764665,1.4110984 C45.1387077,1.97375317 45.4871916,2.75060168 45.4874477,3.60752793 L45.4874477,42.3918767 C45.4874477,43.2487529 45.1390109,44.0257575 44.5767669,44.5886007 C44.0147547,45.151212 43.2389168,45.5 42.3831659,45.5 L3.60428175,45.5 C2.74853093,45.5 1.97269301,45.151212 1.41068079,44.5886007 C0.848436816,44.0257575 0.5,43.2487529 0.5,42.3918767 L0.5,3.60752793 C0.5,2.7507207 0.848388629,1.97390016 1.41057085,1.41121161 C1.97259895,0.848677319 2.74848476,0.5 3.60428175,0.5 Z" id="路径" stroke="#5C6A8E" fill="url(#linearGradient-1)"></path>
                        <path d="M16.5890112,0.5 L13.2480054,7.5 L1.41075608,7.5 C1.22085177,7.5 1.04118017,7.48093943 0.883670355,7.44521547 L0.505462906,3.04527762 C0.578918333,2.7791904 0.883765022,1.81908419 1.6145139,1.14648941 C2.01551912,0.77739679 2.55274537,0.5 3.26283517,0.5 L16.5890112,0.5 Z" id="路径" stroke="#5C6A8E" fill="url(#linearGradient-2)"></path>
                        <polygon id="形状" fill="#F8F5F0" points="43.9885392 44 2 44 2 12 43.9885392 12"></polygon>
                        <path d="M22.2215754,29.5 C22.2215754,33.6421356 25.5794398,37 29.7215754,37 C33.863711,37 37.2215754,33.6421356 37.2215754,29.5 C37.2215754,25.3578644 33.863711,22 29.7215754,22 C25.5794398,22 22.2215754,25.3578644 22.2215754,29.5 L22.2215754,29.5 Z" id="路径" fill="#E9E9EB"></path>
                        <g id="设置，齿轮，配置，后台管理" transform="translate(10.000000, 15.000000)">
                            <rect id="矩形" fill="#000000" opacity="0" x="0" y="0" width="27" height="25"></rect>
                            <path d="M22,10.749309 L21.2006013,8.93221967 L20.6097414,8.71109241 L19.2092604,9.24948924 L18.6797354,9.11296718 C18.3690318,8.75050803 18.0158242,8.42218728 17.626819,8.13423866 L17.4816596,7.63622162 L18.0622971,6.31714937 L17.8169573,5.76144694 L15.8869513,5 L15.2960914,5.23074151 L14.715454,6.54981373 L14.239086,6.80555222 C13.7459025,6.75287724 13.247964,6.75287724 12.7547805,6.80555222 L12.2784125,6.54789089 L11.6977751,5.23074151 L11.1069152,5 L9.1748647,5.75183272 L8.92952496,6.30753515 L9.51016236,7.62468452 L9.3670475,8.13423866 C8.97889529,8.42539925 8.62704495,8.7569588 8.31822009,9.12258143 L7.78869512,9.25910346 L6.38412508,8.71109241 L5.7932652,8.94183392 L5,10.749309 L5.24533977,11.3050114 L6.63559834,11.8510996 L6.90751655,12.2991227 C6.851509,12.7629607 6.851509,13.2312708 6.90751655,13.6951087 L6.63559834,14.1450547 L5.23920625,14.6911429 L5,15.2487682 L5.79939869,17.0658575 L6.39025857,17.296599 L7.79073962,16.7505108 L8.32026458,16.8870328 C8.62984593,17.2520891 8.98238214,17.5830036 9.3711365,17.8734527 L9.51629585,18.3714698 L8.93565845,19.690542 L9.1748647,20.2481673 L11.1069152,21 L11.6977751,20.7692585 L12.2784125,19.4501863 L12.7547805,19.1944478 C13.247966,19.2470898 13.7459005,19.2470898 14.239086,19.1944478 L14.715454,19.4501863 L15.2960914,20.7673356 L15.8869513,20.9980771 L17.8190018,20.2481673 L18.0643415,19.6924648 L17.4837041,18.3753154 L17.6288635,17.8772984 C18.0173464,17.5843248 18.3692085,17.2508189 18.6776909,16.8831871 L19.2072159,16.746665 L20.6097414,17.2927533 L21.2006013,17.0620118 L22,15.2487682 L21.7648827,14.6911429 L20.3541792,14.1450547 L20.082261,13.6970316 C20.1382686,13.2331936 20.1382686,12.7648835 20.082261,12.3010455 L20.3541792,11.8530225 L21.7648827,11.3050114 L22,10.749309 Z" id="路径" fill="#A3D4FF"></path>
                            <path d="M15.7694261,20.9985528 C15.7128064,20.9985528 15.6567471,20.9880005 15.6044828,20.9675047 L15.0436755,20.7483412 C14.9381584,20.7073649 14.8543516,20.628488 14.8108143,20.5291778 L14.3159843,19.4041387 L14.1102903,19.2927306 C13.7036366,19.3278326 13.2944229,19.3278326 12.8877692,19.2927306 L12.6820752,19.4041387 L12.1891857,20.5310041 C12.1456484,20.6303144 12.0618416,20.7091913 11.9563245,20.7501676 L11.3955172,20.969331 C11.2905189,21.010223 11.1725693,21.010223 11.0675711,20.969331 L9.23378937,20.2515707 C9.12827223,20.2105945 9.04446547,20.1317175 9.00092818,20.0324073 L8.76806702,19.5045886 C8.72461931,19.4057667 8.72461931,19.2947553 8.76806702,19.1959334 L9.26289702,18.0708944 L9.2008007,17.8553837 C8.89079463,17.6105342 8.6050165,17.3397327 8.34697642,17.0463053 L8.11799625,16.9878617 L6.92264228,17.453584 C6.817644,17.4944759 6.69969441,17.4944759 6.59469613,17.453584 L6.0338888,17.2380733 C5.92625617,17.1965811 5.8399733,17.1173384 5.79326561,17.0170835 L5.03452629,15.2893449 C4.99107858,15.190523 4.99107858,15.0795116 5.03452629,14.9806897 L5.26738748,14.452871 C5.31134911,14.3542507 5.39510029,14.2760829 5.50024864,14.235534 L6.69560264,13.7698116 L6.81397373,13.5762173 C6.77669955,13.1934834 6.77669955,12.808343 6.81397373,12.4256091 L6.69560264,12.2320147 L5.49830813,11.7644661 C5.39315978,11.7239171 5.30940859,11.6457493 5.26544697,11.547129 L5.03258579,11.0193103 C4.98913807,10.9204884 4.98913807,10.809477 5.03258579,10.7106551 L5.79326561,8.98474293 C5.83497797,8.88680542 5.91577946,8.8081346 6.01836473,8.76557949 L6.57917204,8.54641602 C6.68417031,8.50552405 6.80211991,8.50552405 6.90711818,8.54641602 L8.10247219,9.01213837 L8.34697642,8.95552113 C8.60781942,8.65978194 8.89686664,8.38712616 9.21050324,8.14096365 L9.27259956,7.92545291 L8.77776956,6.80041387 C8.73432185,6.70159196 8.73432185,6.59058058 8.77776956,6.49175867 L9.00869024,5.96394001 C9.05222752,5.86462977 9.13603427,5.78575283 9.2415514,5.74477656 L11.06369,5.03066898 C11.1686883,4.98977701 11.2866379,4.98977701 11.3916362,5.03066898 L11.9524435,5.24983244 C12.0579606,5.29080871 12.1417674,5.36968565 12.1853047,5.46899589 L12.6801346,6.59403495 L12.8858287,6.70544303 C13.2924789,6.67026933 13.7016996,6.67026933 14.1083498,6.70544303 L14.3140438,6.59403495 L14.8088738,5.46899589 C14.8524111,5.36968565 14.9362179,5.29080871 15.041735,5.24983244 L15.6025423,5.03066898 C15.7075406,4.98977701 15.8254902,4.98977701 15.9304884,5.03066898 L17.7642701,5.74477656 C17.8697873,5.78575283 17.953594,5.86462976 17.9971313,5.96394001 L18.2299925,6.49175867 C18.2734402,6.59058058 18.2734402,6.70159196 18.2299925,6.80041387 L17.7351625,7.92545291 L17.7972588,8.14096365 C18.1113507,8.38659832 18.4010349,8.65863097 18.6627261,8.95369477 L18.8917063,9.01213837 L20.0870603,8.54641602 C20.1920586,8.50552405 20.3100082,8.50552405 20.4150064,8.54641602 L20.9758137,8.76557949 C21.0813309,8.80655576 21.1651376,8.88543269 21.2086749,8.98474293 L21.9674142,10.7106551 C22.0108619,10.809477 22.0108619,10.9204884 21.9674142,11.0193103 L21.7364936,11.547129 C21.6929563,11.6464392 21.6091495,11.7253162 21.5036324,11.7662924 L20.3082784,12.2320147 L20.1840858,12.4237828 C20.2215672,12.8065077 20.2215672,13.191666 20.1840858,13.5743909 L20.3024569,13.7679853 L21.4978109,14.2337076 C21.603328,14.2746839 21.6871347,14.3535608 21.730672,14.452871 L21.9596522,14.9715579 C22.002935,15.072939 22.002935,15.1861375 21.9596522,15.2875185 L21.2009129,17.0134307 C21.1578296,17.1123939 21.0747764,17.1912185 20.9699922,17.2325942 L20.4091849,17.4517576 C20.3041866,17.4926496 20.186237,17.4926496 20.0812388,17.4517576 L18.8858848,16.9860353 L18.6569046,17.0444789 C18.3961584,17.340301 18.1071027,17.6129647 17.7933778,17.8590364 L17.7312815,18.0745471 L18.2261115,19.1995862 C18.2695592,19.2984081 18.2695592,19.4094194 18.2261115,19.5082414 L17.9932503,20.03606 C17.949713,20.1353702 17.8659063,20.2142472 17.7603891,20.2552235 L15.9343694,20.969331 C15.88197,20.9892015 15.8259156,20.9991322 15.7694261,20.9985528 L15.7694261,20.9985528 Z M15.5385055,20.0689345 L15.7713666,20.1602526 L17.2733212,19.572164 L17.3703467,19.3530006 L16.8871597,18.2571833 C16.8506828,18.174368 16.8445381,18.0824798 16.8696952,17.9960135 L17.0074713,17.5229857 C17.0310617,17.4402083 17.0820351,17.3666467 17.1530096,17.3129541 C17.496264,17.0552033 17.807431,16.7617276 18.0805732,16.4381267 C18.1373338,16.3706499 18.2155248,16.3220155 18.3037318,16.2993231 L18.8063239,16.1696514 C18.8982094,16.1461138 18.9957918,16.151894 19.0838167,16.1860887 L20.2481226,16.6408529 L20.4809837,16.5495347 L21.1077684,15.1377568 L21.0107429,14.9185934 L19.8464371,14.4638292 C19.7586973,14.4292659 19.6856557,14.3682305 19.6388025,14.2903248 L19.3768337,13.8593034 C19.3312501,13.7846731 19.3122119,13.6982812 19.3224995,13.6127445 C19.3719216,13.2025186 19.3719216,12.7883496 19.3224995,12.3781237 C19.3126328,12.2931899 19.3316573,12.2075 19.3768337,12.1333912 L19.6349215,11.7078488 C19.6817747,11.6299431 19.7548163,11.5689078 19.8425561,11.5343444 L21.0068619,11.0795803 L21.1038874,10.8604168 L20.4809837,9.44315981 L20.2481226,9.35184172 L19.0838167,9.80660588 C18.9958254,9.84093714 18.8981942,9.84672031 18.8063239,9.82304313 L18.3037318,9.69337144 C18.2157808,9.67116872 18.1376216,9.62319378 18.0805732,9.55639428 C17.8066018,9.23342497 17.4947958,8.94057315 17.1510691,8.68339318 C17.079375,8.62997143 17.027701,8.55637992 17.0035903,8.47336154 L16.8658141,8.00033375 C16.8425904,7.91538324 16.8494024,7.82562446 16.8852192,7.74464306 L17.3684062,6.6488258 L17.2713807,6.42966236 L15.7694261,5.84157376 L15.536565,5.93289187 L15.053378,7.02870912 C15.0166545,7.1112877 14.9518044,7.18003278 14.8690296,7.22412987 L14.4188314,7.46703603 C14.3394881,7.50981776 14.247739,7.52772782 14.1568625,7.51817415 C13.7203494,7.47164591 13.2796506,7.47164591 12.8431375,7.51817415 C12.7528822,7.52771764 12.6617523,7.50979571 12.5831092,7.46703603 L12.1309704,7.22412987 C12.0481956,7.18003278 11.9833455,7.1112877 11.946622,7.02870912 L11.4634351,5.93289187 L11.2305739,5.84157376 L9.72473832,6.42783599 L9.62771282,6.64699944 L10.1108998,7.7428167 C10.1473767,7.82563206 10.1535214,7.91752026 10.1283643,8.0039865 L9.99058814,8.47701426 C9.96699775,8.55979172 9.91602438,8.63335329 9.84504991,8.6870459 C9.50587206,8.94542592 9.19863546,9.23887824 8.92912932,9.56187336 C8.87236871,9.62935012 8.79417773,9.67798451 8.7059707,9.70067688 L8.2033787,9.83034857 C8.11150832,9.85402576 8.01387712,9.84824259 7.9258858,9.81391132 L6.76157995,9.35914717 L6.52871879,9.45046526 L5.89417212,10.8640695 L5.99119759,11.083233 L7.15550343,11.5379971 C7.24324318,11.5725605 7.31628483,11.6335959 7.36313799,11.7115015 L7.62122578,12.1370439 C7.66680938,12.2116742 7.68584759,12.2980661 7.67556004,12.3836028 C7.6259911,12.7944316 7.6259911,13.2092211 7.67556004,13.6200499 C7.68477206,13.7029801 7.66646898,13.7865602 7.62316629,13.8593034 L7.36507849,14.2848458 C7.31800755,14.3621575 7.24496673,14.4225497 7.15744394,14.4565238 L5.9931381,14.911288 L5.89417212,15.1377568 L6.51707574,16.5550138 L6.7499369,16.6463319 L7.91424275,16.1915678 C8.00216548,16.1569592 8.09989635,16.1511702 8.19173562,16.1751305 L8.69432765,16.3048022 C8.78227871,16.3270049 8.86043788,16.3749799 8.91748627,16.4417794 C9.19143306,16.7647695 9.5032417,17.0576238 9.84699042,17.3147805 C9.91868448,17.3682022 9.97035851,17.4417937 9.99446916,17.5248121 L10.1322454,17.9978399 C10.1574024,18.0843061 10.1512578,18.1761943 10.1147808,18.2590097 L9.63159386,19.3548269 L9.72861933,19.5739904 L11.2344549,20.1602526 L11.4673161,20.0689345 L11.950503,18.9731172 C11.9866005,18.8907429 12.0507672,18.8219986 12.1329109,18.7776965 L12.5850497,18.5347904 C12.6642952,18.4917665 12.7561294,18.4738398 12.8470185,18.4836522 C13.2835437,18.529979 13.7242184,18.529979 14.1607436,18.4836522 C14.2510053,18.4739782 14.3421783,18.4919086 14.4207719,18.5347904 L14.8729106,18.7776965 C14.9549603,18.8221068 15.019095,18.8908167 15.0553185,18.9731172 L15.5385055,20.0689345 Z" id="形状" fill="#2A5082"></path>
                            <path d="M10,13 C10,14.6568542 11.3431458,16 13,16 C14.6568542,16 16,14.6568542 16,13 C16,11.3431458 14.6568542,10 13,10 C11.3431458,10 10,11.3431458 10,13 L10,13 Z" id="路径" fill="#FFFFFF"></path>
                            <path d="M13.0017406,16 C11.7882174,16.0006845 10.6938038,15.2702042 10.2289329,14.1492522 C9.76406197,13.0283002 10.0203065,11.7376877 10.8781543,10.8793546 C11.7360022,10.0210215 13.0264699,9.76404694 14.1476851,10.2282834 C15.2689002,10.6925199 16,11.7865197 16,13.0000428 C15.9981319,14.6554357 14.6571327,15.9971934 13.0017406,16 L13.0017406,16 Z M13.0017406,10.7517731 C12.0914053,10.7510868 11.2703578,11.2990219 10.9216705,12.1399306 C10.5729832,12.9808393 10.765373,13.9490013 11.4090774,14.5927055 C12.0527818,15.2364097 13.0209441,15.4287994 13.861853,15.0801122 C14.702762,14.731425 15.2506972,13.9103777 15.2500115,13.0000428 C15.2490767,11.75847 14.2433126,10.7519472 13.0017406,10.7500763 L13.0017406,10.7517731 Z" id="形状" fill="#2A5082"></path>
                        </g>
                    </g>
                </g>
            </g>
        </g>
    </g>
</svg>