<?xml version="1.0" encoding="UTF-8"?>
<svg width="16px" height="16px" viewBox="0 0 16 16" version="1.1" xmlns="http://www.w3.org/2000/svg" xmlns:xlink="http://www.w3.org/1999/xlink">
    <title>toolbarfresh</title>
    <defs>
        <linearGradient x1="0%" y1="50%" x2="100%" y2="50%" id="linearGradient-1">
            <stop stop-color="#DEDEDE" offset="0%"></stop>
            <stop stop-color="#FFFFFF" offset="100%"></stop>
        </linearGradient>
    </defs>
    <g id="页面-1" stroke="none" stroke-width="1" fill="none" fill-rule="evenodd">
        <g id="工具栏" transform="translate(-825.000000, -862.000000)">
            <g id="toolbarfresh" transform="translate(825.000000, 862.000000)">
                <rect id="矩形" fill="#000000" fill-rule="nonzero" opacity="0" x="0" y="0" width="16" height="16"></rect>
                <path d="M2.12244898,8.5015706 C2.12244898,12.0424982 4.98188601,14.6938776 8.50918033,14.6938776 C12.0364747,14.6938776 14.6938776,12.0424982 14.6938776,8.5015706 C14.6938776,4.96064303 12.0364747,2.12244898 8.50918033,2.12244898 C4.98188601,2.12244898 2.12244898,4.96064303 2.12244898,8.5015706 Z" id="路径" fill="url(#linearGradient-1)"></path>
                <path d="M14.2095238,3.8095238 L13.4171429,4.60190477 C12.0678922,2.39296665 9.52574877,1.20832789 6.96651797,1.5959137 C4.40728716,1.98349952 2.3299149,3.86774643 1.69523809,6.37714286 L2.64829799,6.58433315 C3.40513393,4.4171317 4.87440902,2.89427036 7.17096819,2.58342634 C9.46752736,2.27258232 11.398298,3.33098493 12.7041016,5.23995536 L11.8095238,6.20571429 C11.700129,6.314213 11.6668608,6.47792456 11.7252313,6.62051519 C11.7836017,6.76310582 11.9221165,6.85649686 12.0761905,6.85714286 L14.8571429,6.85163225 L14.8571429,4.08 C14.8565099,3.92689915 14.7642833,3.78905258 14.6230075,3.73004914 C14.4817316,3.6710457 14.3188593,3.70235098 14.2095238,3.8095238 Z M13.2414202,9.45458984 C12.3970424,11.5711496 11.0103934,13.1359515 8.73953683,13.4786551 C6.46868025,13.8213588 4.59151786,12.7022182 3.18917411,10.710798 L4.1904762,9.78285714 C4.29987101,9.67435843 4.33313918,9.51064687 4.27476874,9.36805623 C4.2163983,9.2254656 4.07788346,9.13207457 3.92380952,9.13142857 L1.1766183,9.14425223 L1.14285714,11.9085714 C1.13879089,12.063756 1.22929555,12.205886 1.3716329,12.2678446 C1.51397025,12.3298032 1.67966643,12.299196 1.7904762,12.1904762 L2.50666666,11.4742857 C3.87837026,13.6488976 6.41356029,14.79742 8.95290568,14.3946388 C11.4922511,13.9918575 13.5475988,12.1152015 14.1790476,9.62285714 L13.2414202,9.45458984 Z" id="形状" fill="#414F58" fill-rule="nonzero"></path>
            </g>
        </g>
    </g>
</svg>