<?xml version="1.0" encoding="UTF-8"?>
<svg width="16px" height="16px" viewBox="0 0 16 16" version="1.1" xmlns="http://www.w3.org/2000/svg" xmlns:xlink="http://www.w3.org/1999/xlink">
    <title>topiconcj</title>
    <defs>
        <linearGradient x1="55.1256457%" y1="0.09111088%" x2="31.4754263%" y2="82.0214338%" id="linearGradient-1">
            <stop stop-color="#FFFFFF" offset="0%"></stop>
            <stop stop-color="#E6F1F6" offset="100%"></stop>
        </linearGradient>
    </defs>
    <g id="页面-1" stroke="none" stroke-width="1" fill="none" fill-rule="evenodd">
        <g id="icon补充" transform="translate(-31, -87)">
            <g id="topiconcj" transform="translate(31, 87)">
                <rect id="矩形" fill="#000000" fill-rule="nonzero" opacity="0" x="0" y="0" width="16" height="16"></rect>
                <g id="iconMatlab" transform="translate(0.9887, 1)">
                    <rect id="矩形" fill="#000000" fill-rule="nonzero" opacity="0" x="0.0112839638" y="0" width="14" height="14"></rect>
                    <path d="M3.54310356,0 L8.01128396,0 L8.01128396,2.99789429 L11.013888,2.99789429 L11.013888,6 L14.011284,6 L14.011284,10.5072021 L11.013888,10.5072021 L11.013888,13.9713766 L7.01735994,14 L7.01735994,11.9757802 L5.01909594,11.9757802 L5.01909594,13.9713766 L0.0112839638,13.9713766 C-0.00376132128,13.9155013 -0.00376132128,12.2636271 0.0112839638,9.01575404 L2.54550553,9.01575404 L2.54550553,7 L0.0112839638,7 L0.0112839638,2.99789429 L3.54310356,2.99789429 L3.54310356,0 Z" id="矩形" fill="#7E8DB3" fill-rule="nonzero"></path>
                    <path d="M4.54115894,1 L7.01128396,1 L7.01128396,3.9977417 L10.011284,3.9977417 L10.011284,7 L13.011284,7 L13.011284,9.50896786 L10.011284,9.50896786 L10.011284,13 L8.01128396,13 L8.01128396,11 L4.00725564,11 L4.00725564,13 L1.01161966,13 C0.996574372,12.9441247 0.996574372,11.9408414 1.01161966,9.99014999 L3.5071477,9.99014999 L3.5071477,6.00717553 L1.03422058,6.00717553 L1.03422058,3.9977417 L4.54115894,3.9977417 L4.54115894,1 Z" id="矩形" fill="url(#linearGradient-1)"></path>
                </g>
            </g>
        </g>
    </g>
</svg>