<?xml version="1.0" encoding="UTF-8"?>
<svg width="16px" height="16px" viewBox="0 0 16 16" version="1.1" xmlns="http://www.w3.org/2000/svg" xmlns:xlink="http://www.w3.org/1999/xlink">
    <title>icon_保存模型至本地</title>
    <defs>
        <linearGradient x1="92.0151268%" y1="51.4419976%" x2="14.9856848%" y2="50.1409016%" id="linearGradient-1">
            <stop stop-color="#FEF9DB" offset="0%"></stop>
            <stop stop-color="#FEF4BD" offset="44.2039696%"></stop>
            <stop stop-color="#FEEF9E" offset="60.7131546%"></stop>
            <stop stop-color="#FCF0AC" offset="100%"></stop>
        </linearGradient>
        <linearGradient x1="50%" y1="0%" x2="50%" y2="100%" id="linearGradient-2">
            <stop stop-color="#BAAF82" offset="0%"></stop>
            <stop stop-color="#84774B" offset="100%"></stop>
        </linearGradient>
    </defs>
    <g id="页面-1" stroke="none" stroke-width="1" fill="none" fill-rule="evenodd">
        <g id="icon_保存模型至本地" transform="translate(-0.000000, 0.000000)">
            <rect id="矩形" fill="#BFBFBF" fill-rule="nonzero" opacity="0" x="1.09139364e-11" y="0" width="16" height="16"></rect>
            <g id="编组-29" transform="translate(0.000000, 1.000000)">
                <polygon id="矩形" fill="#A1B4E0" points="4.09272616e-11 1 15 1 15 14 0 14"></polygon>
                <path d="M12.5,0.5 L12.5,6.5 L2.5,6.5 L2.5,0.5 L12.5,0.5 Z" id="形状" stroke="#7E8DB3" fill="#ECEFF1" fill-rule="nonzero"></path>
                <path d="M11.5,9.5 L11.5,13.5 L3.5,13.5 L3.5,9.5 L11.5,9.5 Z" id="形状" stroke="#7E8DB3" fill="#F4F6F7" fill-rule="nonzero"></path>
                <polygon id="形状" fill="#2CA8FE" fill-rule="nonzero" points="6.99999964 11 5 11 5 13 6.99999964 13"></polygon>
                <path d="M15,14 L15,0 L1.09139364e-11,0 L1.09139364e-11,14 L11.4063435,14 L15,14 Z M1,12.9734242 L1.00178235,4.68413052 L1,1 L14,1 L14,13 L1,12.9734242 Z" id="形状" fill="#7E8DB3"></path>
            </g>
            <g id="压缩" transform="translate(9.000000, 8.000000)" fill-rule="nonzero">
                <path d="M4.40423567,0 L0.291732836,0 C0.130838397,0.000435931469 0.000498503177,0.130725146 0,0.291619403 L0,6.7083806 C0.000498503177,6.86927485 0.130838397,6.99956407 0.291732836,7 L6.12502836,7 C6.2859228,6.99956407 6.41626269,6.86927485 6.41676119,6.7083806 L6.41676119,2.01252552 L4.40423567,0 Z" id="路径" stroke="url(#linearGradient-2)" stroke-width="0.4" fill="url(#linearGradient-1)"></path>
                <path d="M4.40423567,1.72079269 C4.4046716,1.88168712 4.53496082,2.01202702 4.69585507,2.01252552 L6.41676119,2.01252552 L4.40423567,0 L4.40423567,1.72079269 Z" id="路径" fill="#8E825B"></path>
                <path d="M1.79383933,0 L2.37707813,0 L2.37707813,0.583352239 L1.79395275,0.583352239 L1.79395275,0 L1.79383933,0 Z M2.37707813,0.583352239 L2.96043037,0.583352239 L2.96043037,1.16670448 L2.37707813,1.16670448 L2.37707813,0.583352239 L2.37707813,0.583352239 Z M1.79383933,1.16670448 L2.37707813,1.16670448 L2.37707813,1.74994328 L1.79395275,1.74994328 L1.79395275,1.1668179 L1.79383933,1.16670448 Z M2.37707813,1.74994328 L2.96043037,1.74994328 L2.96043037,2.33329552 L2.37707813,2.33329552 L2.37707813,1.74994328 L2.37707813,1.74994328 Z M1.79383933,2.33329552 L2.37707813,2.33329552 L2.37707813,2.91664776 L1.79395275,2.91664776 L1.79395275,2.33329552 L1.79383933,2.33329552 Z M2.66881097,4.95832388 L2.08545873,4.95832388 C1.92460859,4.9578257 1.79433751,4.82755462 1.79383933,4.66670448 L1.79383933,3.79150598 L2.96043037,3.79150598 L2.96043037,4.66659105 C2.96043037,4.82697605 2.84382798,4.95821046 2.66881097,4.95821046 L2.66881097,4.95832388 Z M2.37707813,2.91664776 L2.96043037,2.91664776 L2.96043037,3.5 L2.37707813,3.5 L2.37707813,2.91664776 L2.37707813,2.91664776 Z" id="形状" fill="#8E825B"></path>
            </g>
        </g>
    </g>
</svg>