<?xml version="1.0" encoding="UTF-8"?>
<svg width="16px" height="16px" viewBox="0 0 16 16" version="1.1" xmlns="http://www.w3.org/2000/svg" xmlns:xlink="http://www.w3.org/1999/xlink">
    <title>topiconopen</title>
    <defs>
        <rect id="path-1" x="0" y="0" width="16" height="16"></rect>
        <linearGradient x1="100%" y1="50.2144532%" x2="8.33129883%" y2="50.0209548%" id="linearGradient-3">
            <stop stop-color="#FEF9DB" offset="0%"></stop>
            <stop stop-color="#FEF4BD" offset="44.2039696%"></stop>
            <stop stop-color="#FEEF9E" offset="60.7131546%"></stop>
            <stop stop-color="#FCF0AC" offset="100%"></stop>
        </linearGradient>
        <linearGradient x1="100%" y1="50.6038414%" x2="8.33129883%" y2="50.059003%" id="linearGradient-4">
            <stop stop-color="#FEF9DB" offset="0%"></stop>
            <stop stop-color="#FEF4BD" offset="44.2039696%"></stop>
            <stop stop-color="#FEEF9E" offset="60.7131546%"></stop>
            <stop stop-color="#FCF0AC" offset="100%"></stop>
        </linearGradient>
    </defs>
    <g id="公共组件" stroke="none" stroke-width="1" fill="none" fill-rule="evenodd">
        <g id="顶部固定工具栏" transform="translate(-72.000000, -3.000000)">
            <g id="topiconopen" transform="translate(72.000000, 3.000000)">
                <mask id="mask-2" fill="white">
                    <use xlink:href="#path-1"></use>
                </mask>
                <use id="蒙版" fill="#D8D8D8" opacity="0" xlink:href="#path-1"></use>
                <g id="编组-74" mask="url(#mask-2)">
                    <g transform="translate(-0.000444, -2.000000)">
                        <path d="M13.9700785,11.9983673 L2.5004435,11.9983673 L1.0004435,17 L12.1926737,17 L13.9700785,11.9983673 Z M12.0004435,18 L0.575272603,18 C0.382035298,18 0.187882466,17.9476318 0.085221333,17.7946777 C0.028407111,17.7047729 0.000198209397,17.4705111 0.000594628192,17.0918923 L0,8 C0,7.854 0,6.8678894 0.000443500943,6.5 C0,6.29785156 0.169498317,5.99504807 0.303666157,5.99994003 L5.0004435,5.99994003 L6.06404213,8 L11.5011759,8 C11.7874918,8 12.0004435,8.20806885 12.0004435,8.5 C12.0004435,8.7261556 12.0004435,9.55948893 12.0004435,11 L14.2209025,11 C14.3726969,10.9979252 14.6611948,11.0171356 14.809434,11.1558838 C14.9438487,11.2799225 15.0050211,11.3374023 15.0050211,11.5 L12.9696513,17.7293701 C12.8226786,18.0375977 12.2606364,18 12.0004435,18 Z" id="形状" fill="#7E8DB3" fill-rule="nonzero"></path>
                        <g id="箭头10" stroke-width="1" fill="none" fill-rule="evenodd" transform="translate(12.613793, 5.373229) scale(1, -1) rotate(-45.000000) translate(-12.613793, -5.373229) translate(8.814347, 1.573782)">
                            <path d="M0.800473817,4.47974323 C1.15719989,4.85021849 1.46738056,5.11175007 1.73101581,5.26433796 C2.12646869,5.49321979 2.87237323,5.55169147 3.42321552,5.44469685 C3.79044371,5.37336709 4.3778818,5.15628539 5.1855298,4.79345173 L6.19408954,4.79345173 L6.19408954,5.79345173 L7.16375507,5.80510944 L7.16375507,2.46719777 C7.16355639,2.43725564 7.1711821,1.79387706 7.16375507,1.79378352 L3.17931903,1.79378352 L3.19408954,2.79345173 L4.19408954,2.79345173 L4.19408954,3.79345173 C3.74121468,4.2509794 3.14689502,4.47974323 2.41113056,4.47974323 C1.4060036,4.47974323 0.502497948,3.77154334 0.439939149,3.83410213 C0.398233282,3.875808 0.518411505,4.0910217 0.800473817,4.47974323 Z" id="路径" fill="#7E8DB3" fill-rule="nonzero" transform="translate(3.799446, 3.799446) rotate(45.000000) translate(-3.799446, -3.799446) "></path>
                        </g>
                        <polygon id="路径" fill="url(#linearGradient-3)" fill-rule="evenodd" points="13.9700785 12.000693 2.5004435 11.9983673 1.0004435 17 12.1926737 17"></polygon>
                        <path d="M11.0004435,11 L11.0004435,9 L5.5004435,9 L4.5004435,7 L1.0004435,7.01554655 L1.00843654,13.4711158 L1.7379181,11.3214455 C1.79490644,11.1007306 1.9812914,11.000056 2.20924477,11 L11.0004435,11 Z" id="路径" fill="url(#linearGradient-4)" fill-rule="evenodd"></path>
                    </g>
                </g>
            </g>
        </g>
    </g>
</svg>