<?xml version="1.0" encoding="UTF-8"?>
<svg width="16px" height="16px" viewBox="0 0 16 16" version="1.1" xmlns="http://www.w3.org/2000/svg" xmlns:xlink="http://www.w3.org/1999/xlink">
    <title>topiconuserinfo</title>
    <defs>
        <linearGradient x1="50%" y1="0%" x2="50%" y2="100%" id="linearGradient-1">
            <stop stop-color="#FFFFFF" offset="0%"></stop>
            <stop stop-color="#E6F1F6" offset="100%"></stop>
        </linearGradient>
        <linearGradient x1="50%" y1="0%" x2="50%" y2="100%" id="linearGradient-2">
            <stop stop-color="#FFFFFF" offset="0%"></stop>
            <stop stop-color="#E6F1F6" offset="100%"></stop>
        </linearGradient>
    </defs>
    <g id="公共组件" stroke="none" stroke-width="1" fill="none" fill-rule="evenodd">
        <g id="顶部导航-用户" transform="translate(-288.000000, -10.000000)">
            <g id="topiconuserinfo" transform="translate(288.000000, 10.000000)">
                <rect id="矩形" fill="#000000" fill-rule="nonzero" opacity="0" x="0" y="0" width="16" height="16"></rect>
                <path d="M6.90909091,5.81818181 C7.68862344,5.81824778 8.40896943,5.40241001 8.79875475,4.72732603 C9.18854006,4.05224204 9.18854006,3.22048523 8.79875475,2.54540124 C8.40896943,1.87031725 7.68862344,1.45447948 6.90909091,1.45454545 C5.7041781,1.45464742 4.72745736,2.43145083 4.72745736,3.63636363 C4.72745736,4.84127644 5.7041781,5.81807985 6.90909091,5.81818181 L6.90909091,5.81818181 Z" id="路径" fill="url(#linearGradient-1)"></path>
                <path d="M13.0909091,13.7 C13.0909091,13.8656854 12.94606,14 12.7673797,14 L2.4144385,14 C2.32863317,14 2.2463422,13.9683929 2.18566866,13.912132 C2.12499513,13.8558711 2.09090909,13.7795649 2.09090909,13.7 L2.09090909,13.1 C2.09090909,10.2833 4.55329144,8 7.59090909,8 C10.6285267,8 13.0909091,10.2833 13.0909091,13.1 L13.0909091,13.7 L13.0909091,13.7 Z" id="路径" fill="url(#linearGradient-2)"></path>
                <path d="M6.90909091,6.54545455 C5.30244436,6.54545455 4,5.24301018 4,3.63636364 C4,2.0297171 5.30244436,0.727272734 6.90909091,0.727272734 C8.51573745,0.727272734 9.81818181,2.0297171 9.81818181,3.63636364 C9.81818181,5.24301018 8.51573745,6.54545455 6.90909091,6.54545455 Z M6.90909091,5.81818181 C7.68862344,5.81824778 8.40896943,5.40241001 8.79875475,4.72732603 C9.18854006,4.05224204 9.18854006,3.22048523 8.79875475,2.54540124 C8.40896943,1.87031725 7.68862344,1.45447948 6.90909091,1.45454545 C5.7041781,1.45464742 4.72745736,2.43145083 4.72745736,3.63636363 C4.72745736,4.84127644 5.7041781,5.81807985 6.90909091,5.81818181 L6.90909091,5.81818181 Z M13.0909091,13.7 C13.0909091,13.8656854 12.9328919,14 12.7379679,14 L1.44385027,14 C1.35024445,14 1.26047248,13.9683929 1.19428317,13.912132 C1.12809386,13.8558711 1.09090909,13.7795649 1.09090909,13.7 L1.09090909,13.1 C1.09090909,10.2833 3.77714438,8 7.09090909,8 C10.4046738,8 13.0909091,10.2833 13.0909091,13.1 L13.0909091,13.7 L13.0909091,13.7 Z M12.3850267,13.4 L12.3850267,13.1 C12.3850267,10.6148 10.0146738,8.60000001 7.09090909,8.60000001 C4.16714438,8.60000001 1.79679144,10.6148 1.79679144,13.1 L1.79679144,13.4 L12.3850267,13.4 Z" id="形状" fill="#7E8DB3" fill-rule="nonzero"></path>
                <polygon id="路径" fill="#2CA8FE" fill-rule="nonzero" points="12.3636364 3.63636364 12.3636364 2.90909091 15.2727273 2.90909091 15.2727273 3.63636364 12.3636364 3.63636364"></polygon>
                <polygon id="路径" fill="#2CA8FE" fill-rule="nonzero" points="12.3636364 6.54545455 12.3636364 5.81818181 15.2727273 5.81818181 15.2727273 6.54545455"></polygon>
                <polygon id="路径" fill="#2CA8FE" fill-rule="nonzero" points="13.8181818 9.45454545 13.8181818 8.72727273 15.2727273 8.72727273 15.2727273 9.45454545"></polygon>
            </g>
        </g>
    </g>
</svg>