<?xml version="1.0" encoding="UTF-8"?>
<svg width="16px" height="16px" viewBox="0 0 16 16" version="1.1" xmlns="http://www.w3.org/2000/svg" xmlns:xlink="http://www.w3.org/1999/xlink">
    <title>topiconcowork1</title>
    <defs>
        <linearGradient x1="61.4831101%" y1="0.00146537317%" x2="42.6045996%" y2="100.002599%" id="linearGradient-1">
            <stop stop-color="#A678AB" offset="0%"></stop>
            <stop stop-color="#6A4578" offset="100%"></stop>
        </linearGradient>
        <path d="M0,5.07683917 L7.94683838,12.8874359 L12.952381,7.87606974 L5.07736712,0 L0,5.07683917 Z M2.61708525,5.07683917 L5.07683917,2.61655729 L10.3358237,7.87606974 L7.87606974,10.3358237 L2.61708525,5.07683917 Z" id="path-2"></path>
        <linearGradient x1="32.4971607%" y1="7.99997799%" x2="74.0527996%" y2="81.4088443%" id="linearGradient-4">
            <stop stop-color="#BC95BE" offset="0%"></stop>
            <stop stop-color="#50325C" offset="100%"></stop>
        </linearGradient>
    </defs>
    <g id="页面" stroke="none" stroke-width="1" fill="none" fill-rule="evenodd">
        <g id="M-Design顶部菜单" transform="translate(-766.000000, -149.000000)">
            <g id="顶部导航" transform="translate(66.000000, 139.000000)">
                <g id="topiconcowork1" transform="translate(700.000000, 10.000000)">
                    <rect id="矩形" x="0" y="0" width="16" height="16"></rect>
                    <polygon id="Fill-47" fill="#E9B926" points="9.22891235 6.15496826 11.8183289 8.74435425 13.3829148 7.19664303 10.7814282 4.61708525"></polygon>
                    <path d="M8.02995382,4.89373497 L3.04761905,9.87606974 L7.94683838,14.8874359 L15.8174133,7.00631714 L10.9231608,2 L8.02995382,4.89373497 Z M5.21941767,10.1322119 L9.10517528,6.27976222 L10.7814282,4.61708525 L13.3829148,7.19664303 L11.2722431,9.2900768 L7.82090419,12.7123233 L5.21941767,10.1322119 Z" id="Fill-50" fill="url(#linearGradient-1)"></path>
                    <g id="编组" transform="translate(0.000000, 2.000000)">
                        <mask id="mask-3" fill="white">
                            <use xlink:href="#path-2"></use>
                        </mask>
                        <g id="Clip-55"></g>
                        <path d="M0,5.07683917 L8.07069397,13.0131531 L13.0580444,8.01799011 L5.07736712,0 L0,5.07683917 Z M2.61708525,5.07683917 L5.07683917,2.61655729 L10.3358237,7.87606974 L7.87606974,10.3358237 L2.61708525,5.07683917 Z" id="Fill-54" fill="url(#linearGradient-4)" mask="url(#mask-3)"></path>
                    </g>
                </g>
            </g>
        </g>
    </g>
</svg>