<?xml version="1.0" encoding="UTF-8"?>
<svg width="16px" height="16px" viewBox="0 0 16 16" version="1.1" xmlns="http://www.w3.org/2000/svg" xmlns:xlink="http://www.w3.org/1999/xlink">
    <title>topiconzdgx</title>
    <defs>
        <linearGradient x1="50%" y1="0%" x2="50%" y2="100%" id="linearGradient-1">
            <stop stop-color="#FFFFFF" offset="0%"></stop>
            <stop stop-color="#E6F1F6" offset="100%"></stop>
        </linearGradient>
    </defs>
    <g id="公共组件" stroke="none" stroke-width="1" fill="none" fill-rule="evenodd">
        <g id="顶部导航-协同" transform="translate(-518.000000, -10.000000)">
            <g id="topiconzdgx" transform="translate(518.000000, 10.000000)">
                <rect id="矩形" fill="#000000" fill-rule="nonzero" opacity="0" x="0" y="0" width="16" height="16"></rect>
                <g id="教育-地球仪" transform="translate(2.000000, 2.000000)">
                    <path d="M6,0.5 C7.42772324,0.5 8.72835605,1.04407257 9.70600024,1.93639981 C10.6924024,2.83672077 11.3502836,4.09142075 11.4778039,5.49809518 C11.4920577,5.66052528 11.5,5.82777934 11.5,5.99825124 C11.5,7.04833806 11.2058265,8.02957853 10.6952394,8.86421562 C10.1666941,9.72820845 9.40660339,10.4352589 8.5021294,10.8989646 C7.7522799,11.2820855 6.90138235,11.5 6,11.5 C4.89370598,11.5 3.86343761,11.173221 3.000783,10.6106597 C2.11049795,10.0300799 1.3985176,9.19873802 0.965299013,8.21627167 C0.665453892,7.53840983 0.5,6.78839904 0.5,6 C0.5,4.7969923 0.8857075,3.68444869 1.54049283,2.77940728 C2.21272901,1.85024538 3.16820197,1.13949822 4.28066443,0.774048035 C4.82219988,0.596091813 5.40005917,0.5 6,0.5 Z" id="路径" stroke="#7E8DB3" fill="url(#linearGradient-1)"></path>
                    <path d="M6.96041789,4.76229332 C6.73573198,4.99420228 6.4548746,4.97487653 6.4548746,4.97487653 C6.4548746,4.97487653 5.68719774,4.95555078 5.53740713,5.40004295 C5.42506417,5.67060339 4.99441618,6.20012884 4.99441618,6.20012884 C4.99441618,6.20012884 4.4327014,6.30835302 4.26418697,6.36633026 C4.09567254,6.42430749 4.17056784,7.1393601 4.17056784,7.1393601 L3.45906246,7.40992055 L3.34796776,7.7333047 L3.34796776,7.92269702 L3.16447427,8 L3.03964876,7.81060769 L2.92356104,7.05432682 L2.78999775,6.44492162 L2.49915432,6.29933434 C2.49915432,6.29933434 2.3081713,6.06742538 2.32439861,6.60854627 C2.34062593,7.14966717 2.19083532,7.57096843 1.84132391,7.37771097 C1.49181249,7.18445351 1.41691719,7.57096843 1.42939974,7.73845823 C1.43439276,7.80158901 1.4081794,7.89177582 1.36823524,7.98196264 C1.13106678,7.43697659 1,6.83401331 1,6.20012884 C1,4.24049817 2.25324808,2.57977239 3.98957086,2 C4.17930563,2.11466609 4.35530959,2.25767662 4.33783402,2.38651492 C4.30038637,2.5024694 4.45017698,3.7586429 6.37873104,4.5509985 C6.37997929,4.54971011 7.1851038,4.53038437 6.96041789,4.76229332 Z M11,6.37151335 C11,7.9537092 10.0523934,9.32462908 8.66903495,10 C8.65307785,9.95252226 8.63834821,9.89080119 8.63834821,9.78278932 C8.63834821,9.44451039 8.47263979,9.284273 8.34621041,9.12403561 C8.21978103,8.96379822 6.94443996,9.78278932 6.94443996,9.78278932 C6.94443996,9.78278932 6.74190745,10.0854599 6.20795811,9.58694362 C5.67400878,9.0884273 6.33684244,9.23086053 6.33684244,9.23086053 C6.33684244,9.23086053 6.72349541,9.19525223 6.85237973,8.99940653 C6.98126405,8.80356083 7.12856042,8.41186944 7.18379656,8.16261128 C7.2390327,7.91335312 7.62568567,7.77091988 7.82821818,7.71750742 C8.03075069,7.66409496 8.23328319,7.69970326 8.12281092,7.4504451 C8.01233864,7.20118694 7.73615795,7.39703264 7.38632907,6.88071217 C7.03650019,6.36439169 7.82821818,6.4 7.82821818,6.68486647 C7.82821818,6.96973294 8.50946389,7.00534125 8.82246867,7.12997033 C9.13547346,7.25459941 9.79830712,6.37151335 9.79830712,6.37151335 L10.9828154,6 C10.9938627,6.12225519 11,6.24569733 11,6.37151335 L11,6.37151335 Z" id="形状" fill="#2CA8FE" fill-rule="nonzero" opacity="0.447358631"></path>
                </g>
            </g>
        </g>
    </g>
</svg>