<?xml version="1.0" encoding="UTF-8"?>
<svg width="16px" height="16px" viewBox="0 0 16 16" version="1.1" xmlns="http://www.w3.org/2000/svg" xmlns:xlink="http://www.w3.org/1999/xlink">
    <title>topicondependent</title>
    <defs>
        <linearGradient x1="50%" y1="0%" x2="50%" y2="100%" id="linearGradient-1">
            <stop stop-color="#FFFFFF" offset="0%"></stop>
            <stop stop-color="#E6F1F6" offset="100%"></stop>
        </linearGradient>
    </defs>
    <g id="公共组件" stroke="none" stroke-width="1" fill="none" fill-rule="evenodd">
        <g id="顶部导航-分析" transform="translate(-290.000000, -10.000000)">
            <g id="topicondependent" transform="translate(290.000000, 10.000000)">
                <rect id="矩形" fill="#000000" fill-rule="nonzero" opacity="0" x="3.63797881e-12" y="0" width="16" height="16"></rect>
                <g id="编组-30" transform="translate(0.000000, 1.000000)">
                    <g id="编组-29">
                        <polygon id="矩形" fill="url(#linearGradient-1)" points="1 1 14 1 14 14 1 14"></polygon>
                        <path d="M9.9998125,7.99990625 L7.749875,7.99990625 C7.61178125,7.99990625 7.499875,7.88801562 7.499875,7.74990625 L7.499875,7.24992187 C7.499875,7.111875 7.61182812,6.99992187 7.749875,6.99992187 L9.24984375,6.99992187 C9.66403125,6.99992187 9.99982812,6.6641875 9.99982812,6.2499375 L9.99982812,5.74995312 C9.99982812,5.33576562 9.66403125,4.99996875 9.24984375,4.99996875 L7.749875,4.99996875 C7.61182812,4.99996875 7.499875,4.88801562 7.499875,4.75003125 L7.499875,4.25 C7.499875,4.11195312 7.61182812,4 7.749875,4 L9.99982812,4 C10.5520625,4 10.9997969,4.4476875 10.9997969,4.99996875 L10.9997969,6.99992187 C10.9997969,7.55221875 10.5520625,7.99990625 9.9998125,7.99990625 Z M4.9999375,6.24995312 L4.9999375,5.74995312 C4.9999375,5.61190625 5.11182812,5.49995312 5.2499375,5.49995312 L8.74985937,5.49995312 C8.88790625,5.49995312 8.99985937,5.61190625 8.99985937,5.74995312 L8.99985937,6.24995312 C8.99985937,6.38804687 8.88796875,6.49995312 8.74985937,6.49995312 L5.2499375,6.49995312 C5.11182812,6.4999375 4.9999375,6.38804687 4.9999375,6.24995312 Z M6.24990625,4.99998437 L4.7499375,4.99998437 C4.33575,4.99998437 3.99995312,5.33578125 3.99995312,5.74996875 L3.99995312,6.24995312 C3.99995312,6.6641875 4.33575,6.9999375 4.7499375,6.9999375 L6.24990625,6.9999375 C6.38795312,6.9999375 6.49992187,7.11189062 6.49992187,7.2499375 L6.49992187,7.74992187 C6.49992187,7.88801562 6.38801562,7.99992187 6.24990625,7.99992187 L3.99996875,7.99992187 C3.44773437,7.99992187 3,7.55223437 3,6.99995312 L3,4.99998437 C3,4.44770312 3.44773437,4.00001562 3.99996875,4.00001562 L6.24992187,4.00001562 C6.38796875,4.00001562 6.49992187,4.11196875 6.49992187,4.25001562 L6.49992187,4.75004687 C6.49992187,4.88803125 6.38795312,4.99998437 6.24990625,4.99998437 Z" id="形状" fill="#7E8DB3" fill-rule="nonzero"></path>
                        <path d="M14.8625001,14.9983263 L14.8625001,0 L0,0 L0,14.9983263 L11.3017854,14.9983263 L14.8625001,14.9983263 Z M1,14 L1.00178235,5 L1,1 L14,1 L14,14.0288544 L1,14 Z" id="形状" fill="#7E8DB3"></path>
                    </g>
                    <polygon id="路径" fill="#2CA8FE" fill-rule="nonzero" points="7.63135895 11.0460309 5.65035775 9.06502973 5 9.71653855 6.97524583 11.6963887 7.95711337 12.5938304 8.93207445 11.7167744 12.9781054 7.65035775 12.3277476 7 8.28286778 11.0460309 7.95711337 11.3751414"></polygon>
                </g>
            </g>
        </g>
    </g>
</svg>