<?xml version="1.0" encoding="UTF-8"?>
<svg width="16px" height="16px" viewBox="0 0 16 16" version="1.1" xmlns="http://www.w3.org/2000/svg" xmlns:xlink="http://www.w3.org/1999/xlink">
    <title>编组 30</title>
    <g id="客户端主菜单调整" stroke="none" stroke-width="1" fill="none" fill-rule="evenodd">
        <g id="客户端主菜单调整-新增“另存为”icon" transform="translate(-40, -10)">
            <g id="编组-29" transform="translate(40, 10)">
                <polygon id="矩形" fill="#A1B4E0" points="1 0.0711111111 15 0.0711111111 15 14.8622222 1 14.8622222"></polygon>
                <path d="M13.5,0.5 L13.5,6.5 L2.5,6.5 L2.5,0.5 L13.5,0.5 Z" id="形状" stroke="#7E8DB3" fill="#ECEFF1" fill-rule="nonzero"></path>
                <path d="M12.5,8.67333333 L12.5,15.3622222 L3.5,15.3622222 L3.5,8.67333333 L12.5,8.67333333 Z" id="形状" stroke="#7E8DB3" fill="#F4F6F7" fill-rule="nonzero"></path>
                <polygon id="形状" fill="#2CA8FE" fill-rule="nonzero" points="6.99999964 10.3111111 5 10.3111111 5 13.7244444 6.99999964 13.7244444"></polygon>
                <path d="M16,16 L16,0 L0,0 L0,16 L12.1667664,16 L16,16 Z M1,14.9026235 L1.00191946,5.32388415 L1,1.06666667 L15,1.06666667 L15,14.9333333 L1,14.9026235 Z" id="形状" fill="#7E8DB3"></path>
            </g>
        </g>
    </g>
</svg>