<?xml version="1.0" encoding="UTF-8"?>
<svg width="16px" height="16px" viewBox="0 0 16 16" version="1.1" xmlns="http://www.w3.org/2000/svg" xmlns:xlink="http://www.w3.org/1999/xlink">
    <title>topiconappearancesetting</title>
    <g id="外观设置" stroke="none" stroke-width="1" fill="none" fill-rule="evenodd">
        <g transform="translate(-959.000000, -139.000000)" fill-rule="nonzero" id="顶部导航-设置">
            <g transform="translate(132.000000, 129.000000)">
                <g id="topiconappearancesetting" transform="translate(827.000000, 10.000000)">
                    <rect id="矩形" fill="#000000" opacity="0" x="0" y="0" width="16" height="16"></rect>
                    <path d="M13.8045316,2.40551661 C13.8893458,2.40551661 13.9582403,2.47421456 13.9582403,2.55902875 L13.9582403,11.1682884 C13.9582403,11.2531345 13.8893776,11.3218888 13.8045316,11.3219971 L1.96011651,11.3219971 C1.87530231,11.3218887 1.80660438,11.2531027 1.80660438,11.1682884 L1.80660438,2.55902875 C1.80660438,2.47424634 1.8753341,2.40551661 1.96011651,2.40551661 L13.8045316,2.40551661 M13.8045316,1.36375688 L1.96011651,1.36375688 C1.30003104,1.36375688 0.764844636,1.89894328 0.764844636,2.55902875 L0.764844636,11.1682884 C0.764844636,11.8284507 1.29995428,12.3637569 1.96011651,12.3637569 L13.8045316,12.3637569 C14.1215895,12.3637569 14.4256616,12.2378061 14.6498554,12.0136123 C14.8740492,11.7894185 15,11.4853464 15,11.1682884 L15,2.55902875 C15,1.89886653 14.4646938,1.36375688 13.8045316,1.36375688 Z M9.70334981,13.8867471 L9.05802105,11.8999475 C9.0269261,11.8042191 8.93774566,11.739385 8.8370937,11.7393334 L7.1410345,11.7393334 C7.04038254,11.739385 6.9512021,11.8042191 6.92010716,11.8999475 L6.27433653,13.8867471 C6.24325991,13.98252 6.15409768,14.0474301 6.05340919,14.0475822 L3.60376681,14.0475822 C3.5420498,14.0475235 3.48284369,14.0720145 3.43920315,14.1156551 C3.39556261,14.1592956 3.37113021,14.2185017 3.37113021,14.2802187 L3.37113021,14.7673635 C3.37113021,14.8290626 3.39564016,14.8882346 3.43926797,14.9318624 C3.48289577,14.9754902 3.54206778,15 3.60376681,15 L12.3732568,15 C12.5016878,14.9998782 12.6057714,14.8957946 12.6058932,14.7673635 L12.6058932,14.2802187 C12.6058932,14.2185197 12.5813834,14.1593477 12.5377556,14.1157199 C12.4941278,14.0720921 12.4349558,14.0475822 12.3732568,14.0475822 L9.92449808,14.0475822 C9.82372814,14.0475257 9.73445164,13.9825973 9.70334981,13.8867471 L9.70334981,13.8867471 Z" id="形状" fill="#7E8DB3"></path>
                    <path d="M8.8126185,7.33319092 C9.42526541,7.33319092 9.96881104,7.77124023 10.0928591,8.25088489 L11.71,8.25088489 C11.8643328,8.25107165 11.9909554,8.38238311 12,8.5504701 C12.0090446,8.71855708 11.8932527,8.86524135 11.74,8.88512814 L10.5839539,8.88767403 L10.0925674,8.88767403 C9.98431396,9.33288574 9.42474687,9.81225586 8.8126185,9.81225586 C8.20049013,9.81225586 7.68450928,9.38793945 7.53266962,8.88767403 L4.29137701,8.88735579 C4.13704417,8.88716903 4.00955351,8.75585757 4.00050889,8.58777059 C3.99146428,8.41968361 4.10399623,8.27299934 4.25724893,8.25311254 L4.29137701,8.25088489 L7.53237792,8.25088489 C7.63946533,7.77105713 8.19997158,7.33319092 8.8126185,7.33319092 Z M8.083386,8.56912034 C8.083386,9.0085118 8.40987451,9.28729248 8.8126185,9.28729248 C9.21536248,9.28729248 9.54185099,9.0085118 9.54185099,8.56912034 C9.54185099,8.12972888 9.21536248,7.90319824 8.8126185,7.90319824 C8.40987451,7.90319824 8.083386,8.12972888 8.083386,8.56912034 Z M7.1873815,4.1144104 C7.81743838,4.1144104 8.34336086,4.48371788 8.4708307,5.12973584 L11.708623,5.12973584 C11.8629558,5.1299226 11.9904465,5.26123406 11.9994911,5.42932104 C12.0085357,5.59740803 11.8960038,5.74409229 11.7427511,5.76397909 L11.708623,5.76620674 L8.46412176,5.76652497 C8.33135986,6.27038574 7.79426916,6.62020874 7.1873815,6.62020874 C6.58049385,6.62020874 6.02709961,6.27038574 5.91064125,5.76652497 L4.29,5.76620674 C4.13566716,5.76601998 4.00904462,5.63470852 4,5.46662154 C3.99095538,5.29853455 4.1067473,5.15185028 4.26,5.13196349 L5.29137701,5.12973584 L5.90393231,5.12973584 C6.03466416,4.47050312 6.56915168,4.11443934 7.1873815,4.1144104 Z M7.1873815,4.6364709 C6.78463752,4.6364709 6.45814901,4.96330303 6.45814901,5.3664709 C6.45814901,5.76963876 6.78463752,6.0964709 7.1873815,6.0964709 C7.59012549,6.0964709 7.916614,5.76963876 7.916614,5.3664709 C7.916614,4.96330303 7.59012549,4.6364709 7.1873815,4.6364709 L7.1873815,4.6364709 Z" id="形状" fill="#1890FF"></path>
                </g>
            </g>
        </g>
    </g>
</svg>