<?xml version="1.0" encoding="UTF-8"?>
<svg width="16px" height="16px" viewBox="0 0 16 16" version="1.1" xmlns="http://www.w3.org/2000/svg" xmlns:xlink="http://www.w3.org/1999/xlink">
    <title>topiconsuspiciouslink</title>
    <g id="-" stroke="none" stroke-width="1" fill="none" fill-rule="evenodd">
        <g id="M-Design顶部菜单" transform="translate(-511.000000, -377.000000)" fill-rule="nonzero">
            <g id="顶部导航-分析" transform="translate(66.000000, 367.000000)">
                <g id="topiconsuspiciouslink" transform="translate(445.000000, 10.000000)">
                    <rect id="矩形" fill="#000000" opacity="0" x="0" y="0" width="16" height="16"></rect>
                    <path d="M1.82803742,4.02114624 C5.43763412,2.07424875 7.70009631,1.1008 8.61542397,1.1008 C9.53075164,1.1008 11.7932547,2.07424875 15.4029332,4.02114624 C15.7004508,6.06968088 15.3966479,8.07307843 14.4915245,10.0313389 C13.1338395,12.9687295 12.845111,12.6601323 11.6296863,13.485968 C10.8194032,14.0365251 9.81333946,14.5748024 8.61149518,15.1008 C6.36993965,14.3860377 4.51118186,12.8812937 3.03522181,10.586568 C1.55926176,8.2918423 1.15686697,6.10336839 1.82803742,4.02114624 Z" id="矩形" fill="#F7F9FF"></path>
                    <path d="M15.0066864,8.29984 C14.9068464,8.89984 14.7065264,9.59968 14.4063664,10.19968 C14.2063664,10.49984 14.0063664,10.59968 13.7062064,10.49984 C13.4060464,10.29984 13.3058864,10.09984 13.4060464,9.79968 C13.7062064,9.19968 13.9062064,8.6 14.0063664,8 C14.4063664,6.4 14.3065264,4.90016 14.2063664,4.00032 L8.00348641,1.1008 L1.80092641,4.00032 C1.70076641,4.90016 1.60060641,6.30016 2.00092641,8 C2.70108641,11.29952 4.80220641,13.59936 8.00348641,14.99936 C9.00412641,14.59936 9.80444641,14.09952 10.6047664,13.49952 C10.8047664,13.29952 11.1049264,13.39936 11.3052464,13.59936 C11.5052464,13.79936 11.4050864,14.09952 11.2050864,14.2992 C10.3046064,14.99936 9.30428641,15.4992 8.20380641,15.99904 L7.80348641,15.99904 C4.10172641,14.4992 1.80092641,11.89952 1.00028641,8.2 C0.700529362,6.68581356 0.633089741,5.13481019 0.800286406,3.60032 C0.900446406,3.40032 1.00028641,3.30048 1.10044641,3.20032 L7.80348641,0.00096 L8.20380641,0.00096 L14.9068464,3.20032 C15.1068464,3.30048 15.2070064,3.40032 15.2070064,3.60032 C15.3068464,4.50016 15.4070064,6.20032 15.0066864,8.29984 Z M8.20380641,11.29952 C7.40348641,11.29952 6.50300641,10.89952 5.90268641,10.29984 C4.60220641,9 4.60220641,7 5.90268641,5.70016 C7.20316641,4.40032 9.20412641,4.40032 10.5046064,5.70016 C11.6050864,6.8 11.7052464,8.6 10.8047664,9.89984 L12.9058864,11.99968 C13.1058864,12.19968 13.1058864,12.49952 12.9058864,12.69952 C12.8057264,12.79936 12.7058864,12.79936 12.5055664,12.79936 C12.3055664,12.79936 12.2054064,12.79936 12.1055664,12.69952 L10.1046064,10.69952 C9.50428641,11.09952 8.90396641,11.29952 8.20380641,11.29952 L8.20380641,11.29952 Z M9.80444641,6.4 C9.40412641,5.90016 8.80380641,5.70016 8.20380641,5.70016 C7.60348641,5.70016 7.00316641,6.00032 6.60284641,6.4 C5.70268641,7.30016 5.70268641,8.69984 6.60284641,9.59968 C7.50332641,10.39968 8.90396641,10.39968 9.80444641,9.59968 C10.7049264,8.69984 10.7049264,7.30016 9.80444641,6.4 Z" id="形状" fill="#7E8DB3"></path>
                </g>
            </g>
        </g>
    </g>
</svg>