<?xml version="1.0" encoding="UTF-8"?>
<svg width="17px" height="16px" viewBox="0 0 17 16" version="1.1" xmlns="http://www.w3.org/2000/svg" xmlns:xlink="http://www.w3.org/1999/xlink">
    <title>topiconexport</title>
    <defs>
        <linearGradient x1="50%" y1="0%" x2="50%" y2="100%" id="linearGradient-1">
            <stop stop-color="#FFFFFF" offset="0%"></stop>
            <stop stop-color="#E6F1F6" offset="100%"></stop>
        </linearGradient>
    </defs>
    <g id="icon调整" stroke="none" stroke-width="1" fill="none" fill-rule="evenodd">
        <g id="icon尺寸调整" transform="translate(-1075, -9)" fill-rule="nonzero">
            <g id="topiconexport" transform="translate(1075, 9)">
                <g id="导出" transform="translate(8.0333, 8) scale(-1, 1) translate(-8.0333, -8)translate(0, 0)">
                    <rect id="矩形" fill="#000000" opacity="0" x="0.0666666687" y="0" width="16" height="16"></rect>
                    <polygon id="形状" fill="url(#linearGradient-1)" points="0.0666666687 1 0.0666666687 15 15.0666667 15 15.0666667 1"></polygon>
                    <path d="M14.8571429,16 C15.5238095,16 16,15.5047619 16,14.9333333 L16,12.8 L14.8571429,12.8 L14.8571429,14.9333333 L1.14285714,14.9333333 L1.14285714,1.06666667 L14.8571429,1.06666667 L14.8571429,5.71428571 L16,5.71428571 L16,1.06666667 C16,0.599305156 15.3634512,1.99999661e-09 14.8571429,1.99999661e-09 L1.14285714,1.99999661e-09 C0.47619048,1.99999661e-09 0,0.495238095 0,1.06666667 L0,14.9333333 C0,15.5047619 0.47619048,16 1.14285714,16 C4.22542189,16 8.79685046,16 14.8571429,16 Z" id="路径" fill="#7E8DB3" transform="translate(8, 8) rotate(-180) translate(-8, -8)"></path>
                </g>
                <polygon id="形状" fill="#2CA8FE" transform="translate(10.5617, 7.5112) rotate(90) translate(-10.5617, -7.5112)" points="11.0704709 7.18425862 11.0704709 12.0111687 10.0321218 12.0111687 10.0321218 7.18425862 6.87127137 7.18425862 10.5500576 3.01116869 14.2520947 7.18425862"></polygon>
            </g>
        </g>
    </g>
</svg>