<?xml version="1.0" encoding="UTF-8"?>
<svg width="16px" height="16px" viewBox="0 0 16 16" version="1.1" xmlns="http://www.w3.org/2000/svg" xmlns:xlink="http://www.w3.org/1999/xlink">
    <title>topiconnotice</title>
    <defs>
        <linearGradient x1="50%" y1="0%" x2="50%" y2="100%" id="linearGradient-1">
            <stop stop-color="#FFFFFF" offset="0%"></stop>
            <stop stop-color="#E6F1F6" offset="100%"></stop>
        </linearGradient>
    </defs>
    <g id="公共组件" stroke="none" stroke-width="1" fill="none" fill-rule="evenodd">
        <g id="顶部导航-用户" transform="translate(-216.000000, -10.000000)">
            <g id="topiconnotice" transform="translate(216.000000, 10.000000)">
                <rect id="矩形" fill="#000000" fill-rule="nonzero" opacity="0" x="0" y="0" width="16" height="16"></rect>
                <path d="M8,3 C5.790861,3 4,4.790861 4,7 L4,11.999 L12,11.999 L12,7 C12,4.790861 10.209139,3 8,3 Z" id="路径" fill="url(#linearGradient-1)"></path>
                <path d="M8.52,1 L8.52,2.027 C11.0662702,2.29325592 13.0000581,4.43984687 13,7 L13,11.999 L14,12 L14,13 L13,12.999 L13,13 L3,13 L3,12.999 L2,13 L2,12 L3,11.999 L3,7 C2.9998125,4.43321173 4.94323316,2.28321889 7.497,2.025 L7.498,1 L8.52,1 Z M8,3 C5.790861,3 4,4.790861 4,7 L4,11.999 L12,11.999 L12,7 C12,4.790861 10.209139,3 8,3 Z" id="形状" fill="#7E8DB3" fill-rule="nonzero"></path>
                <path d="M7.402,13.5 L7.4,13.522 C7.40005254,13.8158914 7.61297461,14.0664876 7.903,14.114 L8,14.122 C8.16301602,14.1221096 8.31905952,14.0558845 8.43223571,13.9385586 C8.5454119,13.8212326 8.60597729,13.6629064 8.6,13.5 L9.5,13.5 C9.49960383,14.3001162 8.87127704,14.9590733 8.07208519,14.9975242 C7.27289335,15.0359751 6.58420733,14.4403825 6.507,13.644 L6.5,13.5 L7.402,13.5 Z" id="路径" fill="#2CA8FE" fill-rule="nonzero"></path>
            </g>
        </g>
    </g>
</svg>