<?xml version="1.0" encoding="UTF-8"?>
<svg width="16px" height="16px" viewBox="0 0 16 16" version="1.1" xmlns="http://www.w3.org/2000/svg" xmlns:xlink="http://www.w3.org/1999/xlink">
    <title>编组 8</title>
    <defs>
        <linearGradient x1="50%" y1="0%" x2="50%" y2="100%" id="linearGradient-1">
            <stop stop-color="#FFFFFF" offset="0%"></stop>
            <stop stop-color="#E6F1F6" offset="100%"></stop>
        </linearGradient>
    </defs>
    <g id="页面-1" stroke="none" stroke-width="1" fill="none" fill-rule="evenodd">
        <g id="icon补充" transform="translate(-31, -113)">
            <g id="编组-8" transform="translate(31, 113)">
                <g id="topiconsettings">
                    <polygon id="矩形" fill="url(#linearGradient-1)" points="2 2 14 2 14 14 2 14"></polygon>
                    <rect id="矩形" fill="#000000" fill-rule="nonzero" opacity="0" x="0" y="0" width="16" height="16"></rect>
                    <polygon id="矩形" fill="#2CA8FE" points="2 2 8 2 6.29149519 5 2 5"></polygon>
                    <polygon id="矩形" fill="#FFFFFF" points="2 2 7 2 5.82677714 4 2 4"></polygon>
                    <polygon id="路径" fill="#7E8DB3" fill-rule="nonzero" points="14 15 14 14 2 14 2 2 14 2 14 15 15 15 15 1 1.00427246 1 1.00427246 15"></polygon>
                </g>
                <line x1="7.5" y1="6.95551172" x2="7.5" y2="9.5" id="直线-3" stroke="#2CA8FE" stroke-linecap="square"></line>
                <line x1="11.0784182" y1="9.5" x2="7.50213623" y2="9.5" id="直线-3" stroke="#2CA8FE" stroke-linecap="square"></line>
            </g>
        </g>
    </g>
</svg>