<?xml version="1.0" encoding="UTF-8"?>
<svg width="16px" height="16px" viewBox="0 0 16 16" version="1.1" xmlns="http://www.w3.org/2000/svg" xmlns:xlink="http://www.w3.org/1999/xlink">
    <title>topiconmxxf</title>
    <defs>
        <linearGradient x1="50%" y1="56.8359375%" x2="50%" y2="100%" id="linearGradient-1">
            <stop stop-color="#FFFFFF" offset="0%"></stop>
            <stop stop-color="#E6F1F6" offset="100%"></stop>
        </linearGradient>
    </defs>
    <g id="顶部菜单" stroke="none" stroke-width="1" fill="none" fill-rule="evenodd">
        <g id="M-Design顶部菜单" transform="translate(-1012.000000, -1675.000000)">
            <g id="topiconmxxf" transform="translate(1012.000000, 1675.000000)">
                <rect id="矩形" fill="#000000" fill-rule="nonzero" opacity="0" x="0" y="0" width="16" height="16"></rect>
                <polygon id="矩形" fill="url(#linearGradient-1)" points="2 2 14 2 14 14 2 14"></polygon>
                <path d="M15,15 L15,1 L1,1 L1,15 L11,15 L15,15 Z M2,13.9734242 L2.00164525,5.68413052 L2,2 L14,2 L14,14 L2,13.9734242 Z" id="形状" fill="#7E8DB3"></path>
                <polygon id="路径" fill="#FFFFFF" points="13.9999979 2 2 2 2 5 13.9999979 5"></polygon>
                <path d="M9.45085291,4.85043064 L8.60256711,4 L7.96769329,4.63487382 C8.27655082,4.89118268 8.55430812,5.18502631 8.79131338,5.50997017 L9.45085291,4.85043064 Z M9.8744596,9.52297329 L12,7.39743289 L11.1506418,6.54807467 L9.87767687,7.82103958 L9.68035122,7.75454942 C9.7039445,7.94758537 9.71574114,8.1438386 9.71574114,8.34223667 C9.71574114,8.71651195 9.67284426,9.080063 9.59241261,9.42860015 L9.8744596,9.52297329 Z M7.0982666,7.63769531 L4.35148631,10.1390381 C3.8828379,10.6076865 3.8828379,11.1798653 4.35148631,11.6485137 C4.82013472,12.1171621 5.40873196,12.1171621 5.87738037,11.6485137 L8.36895752,8.92529297 L9.59241261,9.42860015 C9.67284426,9.080063 9.71574114,8.71651195 9.71574114,8.34330909 C9.71574114,8.1438386 9.7039445,7.94758537 9.68035122,7.75562184 L8.60471195,7.39528805 L8.17896042,6.12232313 L8.79131338,5.50997017 C8.55430812,5.18502631 8.27655082,4.89118268 7.96662087,4.63594624 L6.47702671,6.1255404 L7.0982666,7.63769531 Z M5.20084453,10.3744764 C5.31773853,10.2575824 5.50862965,10.2575824 5.62552364,10.3744764 C5.74241764,10.4913704 5.74241764,10.6822615 5.62552364,10.7991555 L5.20084453,11.2238346 C5.08395053,11.3407286 4.89305942,11.3407286 4.77616542,11.2238346 C4.65927142,11.1069406 4.65927142,10.9160495 4.77616542,10.7991555" id="形状结合" fill="#2CA8FE" fill-rule="nonzero"></path>
            </g>
        </g>
    </g>
</svg>