<?xml version="1.0" encoding="UTF-8"?>
<svg width="16px" height="16px" viewBox="0 0 16 16" version="1.1" xmlns="http://www.w3.org/2000/svg" xmlns:xlink="http://www.w3.org/1999/xlink">
    <title>topiconqa</title>
    <defs>
        <linearGradient x1="50%" y1="0%" x2="50%" y2="100%" id="linearGradient-1">
            <stop stop-color="#FFFFFF" offset="0%"></stop>
            <stop stop-color="#E6F1F6" offset="100%"></stop>
        </linearGradient>
    </defs>
    <g id="icon调整" stroke="none" stroke-width="1" fill="none" fill-rule="evenodd">
        <g id="topiconqa" fill-rule="nonzero">
            <rect id="矩形" fill="#000000" opacity="0" x="3.63797881e-12" y="0" width="16" height="16"></rect>
            <g id="编组-29">
                <polygon id="矩形" fill="url(#linearGradient-1)" points="1 1 15 1 15 15 1 15"></polygon>
                <path d="M16,16 L16,0 L0,0 L0,16 L12.1667664,16 L16,16 Z M1,14.9689948 L1.00191945,5.29815226 L1,1 L15,1 L15,15 L1,14.9689948 Z" id="形状" fill="#7E8DB3"></path>
            </g>
            <path d="M11,6.14994227 C11,6.58355201 10.8752132,6.98346804 10.6248524,7.35000525 C10.3746884,7.71717225 10.0410707,8.03364123 9.6249836,8.29988453 C9.20810918,8.56707254 8.4999344,8.96069067 8.4999344,9.64967986 L8.4999344,10 L7.19360978,10 L7.19360978,9.49994752 C7.19360978,9.2000105 7.28729828,8.90857563 7.47467526,8.62501312 C7.66224907,8.34208041 8.1657263,8.03364123 8.624918,7.69985306 C8.95794517,7.46714601 9.18724578,7.22514958 9.31262304,6.97496589 C9.43760664,6.72509709 9.50019685,6.48373046 9.50019685,6.25007872 C9.50019685,5.81725622 9.37501642,5.49228509 9.1248524,5.27516532 C8.87508202,5.05883279 8.52040416,4.95035163 8.06239341,4.95035163 C7.60339852,4.95035163 7.21880332,5.09236906 6.9060491,5.37514432 C6.59368852,5.65886428 6.43721299,6.11735068 6.43721299,6.7501312 L5,6.7501312 C5.04093951,5.81741366 5.35330009,5.12527553 5.93727856,4.67529128 C6.52046976,4.22530702 7.22844771,4 8.06239339,4 C8.97861174,4 9.69721821,4.20011547 10.2188033,4.60003149 C10.7394043,4.99994752 11,5.51731919 11,6.14994227 Z M8.4984475,11 L8.4984475,12 L7.30529963,12 L7.30529963,11 L8.4984475,11 Z" id="形状" fill="#2CA8FE"></path>
        </g>
    </g>
</svg>