<?xml version="1.0" encoding="UTF-8"?>
<svg width="17px" height="16px" viewBox="0 0 17 16" version="1.1" xmlns="http://www.w3.org/2000/svg" xmlns:xlink="http://www.w3.org/1999/xlink">
    <title>topiconconsoledesk </title>
    <g id="页面" stroke="none" stroke-width="1" fill="none" fill-rule="evenodd">
        <g id="M-Design顶部菜单" transform="translate(-605.000000, -1061.000000)">
            <g id="顶部导航-窗口" transform="translate(67.000000, 1051.000000)">
                <g id="topiconconsoledesk-" transform="translate(538.000000, 10.000000)">
                    <rect id="矩形" fill="#000000" fill-rule="nonzero" opacity="0" x="1" y="0" width="16" height="16"></rect>
                    <g id="编组-29" transform="translate(0.000000, 1.000000)">
                        <polygon id="矩形" fill="#FFFFFF" style="mix-blend-mode: screen;" points="1 1 14 1 14 14 1 14"></polygon>
                        <path d="M14.8625001,14.9983263 L14.8625001,0 L0,0 L0,14.9983263 L11.3017854,14.9983263 L14.8625001,14.9983263 Z M1,14 L1.00178235,5 L1,1 L14,1 L14,14.0288544 L1,14 Z" id="形状" fill="#7E8DB3"></path>
                    </g>
                    <path d="M5,3.66666666 C5.0884055,3.66666666 5.17319014,3.7017856 5.23570226,3.76429773 C5.29821439,3.82680986 5.33333333,3.9115945 5.33333333,4 L5.33333333,5 L6,5 C6.36818982,5.00000001 6.66666666,5.29847683 6.66666666,5.66666666 L6.66666666,8.33333333 C6.66666666,8.70152316 6.36818983,8.99999999 6,9 L5.33333333,9 L5.33333333,12.6666667 C5.33333333,12.7550722 5.29821439,12.8398568 5.23570226,12.9023689 C5.17319014,12.9648811 5.0884055,13 5,13 L4.33333333,13 C4.24492783,13 4.16014319,12.9648811 4.09763107,12.9023689 C4.03511894,12.8398568 4,12.7550722 4,12.6666667 L4,9 L3.33333333,9 C2.96514349,9 2.66666666,8.70152316 2.66666666,8.33333333 L2.66666666,5.66666666 C2.66666666,5.29847683 2.9651435,5 3.33333333,5 L4,5 L4,4 C4,3.9115945 4.03511894,3.82680986 4.09763107,3.76429773 C4.16014319,3.7017856 4.24492783,3.66666666 4.33333333,3.66666666 L5,3.66666666 Z M10.3333333,3.66666666 C10.4217388,3.66666666 10.5065235,3.7017856 10.5690356,3.76429773 C10.6315477,3.82680986 10.6666667,3.9115945 10.6666667,4 L10.6666667,7.66666666 L11.3333333,7.66666666 C11.7015232,7.66666666 12,7.96514349 12,8.33333333 L12,11 C12,11.3681898 11.7015232,11.6666667 11.3333333,11.6666667 L10.6666667,11.6666667 L10.6666667,12.6666667 C10.6666667,12.7550722 10.6315477,12.8398568 10.5690356,12.9023689 C10.5065235,12.9648811 10.4217388,13 10.3333333,13 L9.66666666,13 C9.57826116,13 9.49347652,12.9648811 9.43096439,12.9023689 C9.36845227,12.8398568 9.33333332,12.7550722 9.33333333,12.6666667 L9.33333333,11.6666667 L8.66666666,11.6666667 C8.29847683,11.6666667 8,11.3681898 8,11 L8,8.33333333 C8,7.9651435 8.29847683,7.66666666 8.66666666,7.66666666 L9.33333333,7.66666666 L9.33333333,4 C9.33333332,3.9115945 9.36845227,3.82680986 9.43096439,3.76429773 C9.49347652,3.7017856 9.57826116,3.66666666 9.66666666,3.66666666 L10.3333333,3.66666666 Z M10.6666667,9 L9.33333333,9 L9.33333333,10.3333333 L10.6666667,10.3333333 L10.6666667,9 Z M5.33333333,6.33333333 L4,6.33333333 L4,7.66666666 L5.33333333,7.66666666 L5.33333333,6.33333333 Z" id="形状" fill="#7E8DB3" fill-rule="nonzero"></path>
                </g>
            </g>
        </g>
    </g>
</svg>