<?xml version="1.0" encoding="UTF-8"?>
<svg width="16px" height="16px" viewBox="0 0 16 16" version="1.1" xmlns="http://www.w3.org/2000/svg" xmlns:xlink="http://www.w3.org/1999/xlink">
    <title>topiconcloseall</title>
    <defs>
        <linearGradient x1="50%" y1="0%" x2="50%" y2="100%" id="linearGradient-1">
            <stop stop-color="#FFFFFF" offset="0%"></stop>
            <stop stop-color="#E6F1F6" offset="100%"></stop>
        </linearGradient>
    </defs>
    <g id="公共组件" stroke="none" stroke-width="1" fill="none" fill-rule="evenodd">
        <g id="顶部导航-文件" transform="translate(-327.000000, -10.000000)">
            <g id="topiconcloseall" transform="translate(327.000000, 10.000000)">
                <rect id="矩形" fill="#000000" fill-rule="nonzero" opacity="0" x="0" y="0" width="16" height="16"></rect>
                <polygon id="矩形" fill="url(#linearGradient-1)" fill-rule="nonzero" points="2.00463867 3.2666667 13 3.2666667 13.0046387 15.2666667 2.00463867 15.2666667"></polygon>
                <rect id="矩形" stroke="#9CA9CC" x="3.5" y="2.5" width="8" height="1"></rect>
                <polygon id="形状" fill="#7E8DB3" fill-rule="nonzero" points="14 16 1 16 1 3 14 3 14 7.2 13.0046387 7.2 13.0046387 4 2.00463867 3.92285156 2 14.9090909 13.0046387 14.9090909 13.0046387 7.2 14 7.2"></polygon>
                <rect id="矩形" stroke="#AAB8DB" x="4.5" y="1.5" width="6" height="1"></rect>
                <polygon id="路径" fill="#FF0000" fill-rule="nonzero" opacity="0.55" transform="translate(7.828427, 9.828427) rotate(45.000000) translate(-7.828427, -9.828427) " points="4.32842701 9.32842717 11.328427 9.32842717 11.328427 10.3284271 4.32842701 10.3284271"></polygon>
                <polygon id="路径" fill="#FF0000" fill-rule="nonzero" opacity="0.55" transform="translate(7.828427, 9.828427) rotate(45.000000) translate(-7.828427, -9.828427) " points="7.32842701 6.32842717 8.32842701 6.32842717 8.32842701 13.3284272 7.32842701 13.3284272"></polygon>
            </g>
        </g>
    </g>
</svg>