<?xml version="1.0" encoding="UTF-8"?>
<svg width="16px" height="16px" viewBox="0 0 16 16" version="1.1" xmlns="http://www.w3.org/2000/svg" xmlns:xlink="http://www.w3.org/1999/xlink">
    <title>topiconpr1</title>
    <defs>
        <linearGradient x1="50%" y1="56.8359375%" x2="50%" y2="100%" id="linearGradient-1">
            <stop stop-color="#FFFFFF" offset="0%"></stop>
            <stop stop-color="#E6F1F6" offset="100%"></stop>
        </linearGradient>
    </defs>
    <g id="公共组件" stroke="none" stroke-width="1" fill="none" fill-rule="evenodd">
        <g id="顶部导航-文件" transform="translate(-596.000000, -10.000000)">
            <g id="topiconpr1" transform="translate(596.000000, 10.000000)">
                <rect id="矩形" fill="#000000" fill-rule="nonzero" opacity="0" x="3.63797881e-12" y="0" width="16" height="16"></rect>
                <g id="编组-34" transform="translate(0.000000, 1.000000)">
                    <g id="编组-29">
                        <polygon id="矩形" fill="url(#linearGradient-1)" points="1 1 14 1 14 14 1 14"></polygon>
                        <path d="M14.8625001,14.9983263 L14.8625001,0 L0,0 L0,14.9983263 L11.3017854,14.9983263 L14.8625001,14.9983263 Z M1,14 L1.00178235,5 L1,1 L14,1 L14,14.0288544 L1,14 Z" id="形状" fill="#7E8DB3"></path>
                    </g>
                    <polygon id="形状" fill="#5BBCFF" points="13.9999977 1 1 1 1 4 13.9999977 4"></polygon>
                    <polygon id="路径" fill="#2CA8FE" points="1 4 14 4 14 5 1 5"></polygon>
                </g>
                <polygon id="路径" fill="#ABE6FF" points="11 3 12 3 12 4 11 4"></polygon>
            </g>
        </g>
    </g>
</svg>