<?xml version="1.0" encoding="UTF-8"?>
<svg width="16px" height="16px" viewBox="0 0 16 16" version="1.1" xmlns="http://www.w3.org/2000/svg" xmlns:xlink="http://www.w3.org/1999/xlink">
    <title>topiconmerge备份</title>
    <defs>
        <linearGradient x1="50%" y1="0%" x2="50%" y2="100%" id="linearGradient-1">
            <stop stop-color="#FFFFFF" offset="0%"></stop>
            <stop stop-color="#E6F1F6" offset="100%"></stop>
        </linearGradient>
    </defs>
    <g id="icon调整" stroke="none" stroke-width="1" fill="none" fill-rule="evenodd">
        <g id="icon尺寸调整" transform="translate(-1143, -9)" fill-rule="nonzero">
            <g id="topiconmerge备份" transform="translate(1143, 9)">
                <polygon id="矩形" fill="url(#linearGradient-1)" points="1 1 6 1 6 15 1 15"></polygon>
                <polygon id="矩形" fill="url(#linearGradient-1)" points="10 1 15 1 15 15 10 15"></polygon>
                <rect id="矩形" fill="#000000" opacity="0" x="0" y="0" width="16" height="16"></rect>
                <path d="M6,1.23076923 L6,3.69230769 L7,3.69230769 L7,1.23076923 C7,0.550153846 6.552,0 6,0 L6,0 L1,0 C0.448,0 0,0.550153846 0,1.23076923 L0,14.7692308 C0,15.4498462 0.448,16 1,16 L6,16 C6.552,16 7,15.4498462 7,14.7692308 L7,12.3076923 L6,12.3076923 L6,14.7692308 L1,14.7692308 L1,1.23076923 L6,1.23076923 M10,1.23076923 L15,1.23076923 L15,14.7692308 L10,14.7692308 L10,12.3076923 L9,12.3076923 L9,14.7692308 C9,15.4498462 9.447,16 10,16 L15,16 C15.553,16 16,15.4498462 16,14.7692308 L16,1.23076923 C16,0.550153846 15.553,0 15,0 L10,0 L10,0 C9.447,0 9,0.550153846 9,1.23076923 L9,3.69230769 L10,3.69230769 L10,1.23076923" id="形状" fill="#7E8DB3"></path>
                <path d="M8,8 C8,8.084 7.969,8.158 7.907,8.22 L5.532,10.407 C5.47,10.47 5.396,10.5 5.312,10.5 C5.228,10.5 5.155,10.47 5.092,10.407 C5.03,10.346 5,10.271 5,10.188 L5,8.5 L3.5,8.5 C3.224,8.5 3,8.276 3,8 C3,7.724 3.224,7.5 3.5,7.5 L5,7.5 L5,5.812 C5,5.728 5.03,5.655 5.093,5.592 C5.155,5.531 5.229,5.5 5.312,5.5 C5.395,5.5 5.469,5.531 5.532,5.593 L7.907,7.78 C7.969,7.843 8,7.916 8,8 Z" id="路径" fill="#2CA8FE"></path>
                <path d="M9,8 C9,8.084 9.031,8.158 9.093,8.22 L11.468,10.408 C11.53,10.47 11.604,10.5 11.688,10.5 C11.772,10.5 11.845,10.47 11.908,10.407 C11.97,10.346 12,10.271 12,10.188 L12,8.5 L13.5,8.5 C13.684,8.5 13.8506667,8.33333333 14,8 C13.8506667,7.66666667 13.684,7.5 13.5,7.5 L12,7.5 L12,5.812 C12,5.728 11.97,5.655 11.907,5.592 C11.845,5.531 11.771,5.5 11.688,5.5 C11.605,5.5 11.531,5.531 11.468,5.593 L9.093,7.78 C9.031,7.843 9,7.916 9,8 Z" id="路径" fill="#2CA8FE"></path>
            </g>
        </g>
    </g>
</svg>