<?xml version="1.0" encoding="UTF-8"?>
<svg width="16px" height="16px" viewBox="0 0 16 16" version="1.1" xmlns="http://www.w3.org/2000/svg" xmlns:xlink="http://www.w3.org/1999/xlink">
    <title>topiconreq</title>
    <defs>
        <linearGradient x1="50%" y1="0%" x2="50%" y2="100%" id="linearGradient-1">
            <stop stop-color="#FFFFFF" offset="0%"></stop>
            <stop stop-color="#DDE3E6" offset="100%"></stop>
        </linearGradient>
    </defs>
    <g id="页面" stroke="none" stroke-width="1" fill="none" fill-rule="evenodd">
        <g id="M-Design顶部菜单" transform="translate(-466.000000, -833.000000)">
            <g id="顶部导航-工具" transform="translate(67.000000, 823.000000)">
                <g id="topiconreq" transform="translate(399.000000, 10.000000)">
                    <rect id="矩形" fill="#000000" fill-rule="nonzero" opacity="0" x="0" y="0" width="16" height="16"></rect>
                    <path d="M13.1024889,2.28570841 L2.93092656,2.28570841 C2.16122139,2.28570841 1.28571429,2.78543918 1.28571429,3.52999483 L3.22381592,13.4793701 L14.1715088,13.114624 L13.1024889,2.28570841 Z" id="路径" fill="url(#linearGradient-1)"></path>
                    <path d="M1.51914497,8.12002857 C1.81093408,8.11920067 2.04702928,7.88917774 2.04702806,7.60571377 L2.04702806,3.97435546 C2.04702806,3.34559387 2.58562182,2.88925863 3.32618826,2.88925864 L12.3614047,2.88925864 L11.4647685,3.75584967 C11.364969,3.85163568 11.3088003,3.98225097 11.3088003,4.11853957 C11.3088003,4.25482817 11.364969,4.38544346 11.4647685,4.48122947 C11.6735908,4.67527035 12.002633,4.67527035 12.2114553,4.48122947 L13.6987085,3.04682064 C13.8839153,2.86894855 13.9881426,2.6264687 13.9881426,2.37346603 C13.9881426,2.12046337 13.8839153,1.87798352 13.6987085,1.70011143 L12.2083951,0.268675467 C12.1085538,0.172968844 11.9737849,0.11953082 11.8335216,0.120028575 C11.6201277,0.121170101 11.4284282,0.247009882 11.3477334,0.438924355 C11.2670385,0.630838828 11.3132224,0.851075132 11.4647685,0.99702814 L12.3614047,1.86361916 L3.33383873,1.86361916 C2.739039,1.85367199 2.16086062,2.05446065 1.70734676,2.42846409 C1.24640909,2.81676582 0.983614381,3.38167557 0.988142603,3.97435546 L0.988142603,7.60571377 C0.987791186,7.7424961 1.04364712,7.87376956 1.14335183,7.97035002 C1.24305654,8.06693049 1.37834661,8.12081346 1.51914497,8.12002857 Z M14.49062,8 C14.3502763,8 14.2156807,8.05418496 14.1164428,8.15063481 C14.0172048,8.24708466 13.9614535,8.37789873 13.9614535,8.51429942 L13.9614535,11.8557592 C13.9614535,12.5870752 13.3634648,13.2306927 12.6828894,13.2306927 L3.63506053,13.2306927 L4.53127888,12.364113 C4.68256426,12.2183533 4.72882657,11.9984758 4.64855952,11.8066965 C4.56829247,11.6149172 4.37724354,11.4888609 4.16422699,11.4871284 C4.02320475,11.4847161 3.88729204,11.5384129 3.78799882,11.6357699 L2.3014387,13.0701599 C2.11631823,13.2480296 2.0121395,13.4905063 2.0121395,13.7435057 C2.0121395,13.996505 2.11631823,14.2389817 2.3014387,14.4168514 L3.78799882,15.8512414 C3.92186581,15.9802853 4.11639819,16.0301161 4.29831752,15.9819629 C4.48023684,15.9338098 4.62190522,15.7949884 4.66995755,15.6177914 C4.71800988,15.4405944 4.66514587,15.2519422 4.53127888,15.1228983 L3.63506053,14.2563187 L12.6828894,14.2563187 C13.3247348,14.2496901 13.9328312,13.975833 14.3529755,13.5041929 C14.7721209,13.0511913 15.0065373,12.4649642 15.0121395,11.8557592 L15.0121395,8.51429942 C15.0121395,8.23313697 14.7798799,8.00406304 14.49062,8 L14.49062,8 Z" id="形状" fill="#7E8DB3" fill-rule="nonzero"></path>
                    <path d="M7,11.5985001 L6.97802734,9.94248387 L7.68591309,9.94248387 C7.90563965,9.94248387 8.2409668,9.94248387 8.53845215,9.94248387 C8.69360352,10.0535715 8.91473389,10.2581361 9.03540039,10.429612 C9.15606689,10.6010879 9.33154297,10.7954151 9.58056641,11.1815102 L9.87353516,11.5985001 L11.387207,11.5985001 L10.8579102,11.0545181 C10.4140625,10.6449014 10.2480214,10.4399863 10.0453491,10.2237678 C9.87353516,10.0404701 9.56066895,9.80891058 9.46044922,9.64572204 C10.0786133,9.56089813 10.2005005,9.44048717 10.4963989,9.12751618 C10.7922974,8.81454519 10.8579102,8.37616643 10.8579102,7.91987228 C10.8579102,7.56595181 10.7685547,7.24274345 10.5898437,6.9502472 C10.4111328,6.65775095 10.1723633,6.3670828 9.87353516,6.25154678 C9.57470703,6.13601076 9.1126709,6 8.53845215,6 L6,6 L6,11.5985001 L7,11.5985001 Z M7,9.0035709 L7,6.87566066 L8.59912109,6.87566066 C9.07666016,6.87566066 9.42602539,6.9736469 9.6472168,7.16961939 C9.8684082,7.36559188 9.97900391,7.61567618 9.97900391,7.91987228 C9.97900391,8.12754462 9.921875,8.3198609 9.80761719,8.49682114 C9.69335937,8.67378137 9.52636719,8.80247972 9.30664062,8.88291619 C9.08691406,8.96335266 8.78222656,9.0035709 8.39257812,9.0035709 L7,9.0035709 Z" id="R" fill="#2EA2CB" fill-rule="nonzero"></path>
                </g>
            </g>
        </g>
    </g>
</svg>