<?xml version="1.0" encoding="UTF-8"?>
<svg width="16px" height="16px" viewBox="0 0 16 16" version="1.1" xmlns="http://www.w3.org/2000/svg" xmlns:xlink="http://www.w3.org/1999/xlink">
    <title>topiconstatistics</title>
    <defs>
        <linearGradient x1="50%" y1="0%" x2="50%" y2="100%" id="linearGradient-1">
            <stop stop-color="#FFFFFF" offset="0%"></stop>
            <stop stop-color="#E6F1F6" offset="100%"></stop>
        </linearGradient>
    </defs>
    <g id="icon调整" stroke="none" stroke-width="1" fill="none" fill-rule="evenodd">
        <g id="topiconstatistics" fill-rule="nonzero">
            <rect id="矩形" fill="#000000" opacity="0" x="3.63797881e-12" y="0" width="16" height="16"></rect>
            <g id="编组-29">
                <polygon id="矩形" fill="url(#linearGradient-1)" points="1 1 15 1 15 15 1 15"></polygon>
                <path d="M16,16 L16,0 L0,0 L0,16 L12.1667664,16 L16,16 Z M1,14.9689948 L1.00191945,5.29815226 L1,1 L15,1 L15,15 L1,14.9689948 Z" id="形状" fill="#7E8DB3"></path>
            </g>
            <path d="M11.5,12 L4.5,12 C4.22385763,12 4,12.2238576 4,12.5 C4,12.7761424 4.22385763,13 4.5,13 L11.5,13 C11.7761424,13 12,12.7761424 12,12.5 C12,12.2238576 11.7761424,12 11.5,12 Z M11.5,10 L4.5,10 C4.22385763,10 4,10.2238576 4,10.5 C4,10.7761424 4.22385763,11 4.5,11 L11.5,11 C11.7761424,11 12,10.7761424 12,10.5 C12,10.2238576 11.7761424,10 11.5,10 Z" id="形状" fill="#7E8DB3"></path>
            <path d="M11.4210526,3 C10.8397003,3 10.3684211,3.47127921 10.3684211,4.05263158 C10.3684211,4.14421053 10.3978947,4.22526316 10.42,4.30947368 L9.04631579,5.68315789 C8.96210526,5.66105263 8.88105263,5.63157895 8.78947368,5.63157895 C8.71368421,5.63157895 8.64631579,5.65894737 8.57578947,5.67473684 L7.69368421,4.79263158 C7.70947368,4.72210526 7.73684211,4.65473684 7.73684211,4.57894737 C7.73684211,3.997595 7.26556289,3.52631579 6.68421053,3.52631579 C6.10285816,3.52631579 5.63157895,3.997595 5.63157895,4.57894737 C5.63157895,4.67052632 5.66105263,4.75157895 5.68315789,4.83578947 L4.30947368,6.20947368 C4.22526316,6.18736842 4.14421053,6.15789474 4.05263158,6.15789474 C3.47127921,6.15789474 3,6.62917395 3,7.21052632 C3,7.79187868 3.47127921,8.26315789 4.05263158,8.26315789 C4.63398395,8.26315789 5.10526316,7.79187868 5.10526316,7.21052632 C5.10526316,7.11894737 5.07578947,7.03789474 5.05368421,6.95368421 L6.42736842,5.58 C6.51157895,5.60210526 6.59263158,5.63157895 6.68421053,5.63157895 C6.77052632,5.63157895 6.84631579,5.60210526 6.92631579,5.58210526 L7.78631579,6.44210526 C7.76631579,6.52210526 7.73684211,6.59789474 7.73684211,6.68421053 C7.73684211,7.26556289 8.20812132,7.73684211 8.78947368,7.73684211 C9.37082605,7.73684211 9.84210526,7.26556289 9.84210526,6.68421053 C9.84210526,6.59263158 9.81263158,6.51157895 9.79052632,6.42736842 L11.1642105,5.05368421 C11.2484211,5.07578947 11.3294737,5.10526316 11.4210526,5.10526316 C12.0024049,5.10526316 12.4736842,4.63398395 12.4736842,4.05263158 C12.4736842,3.47127921 12.0024049,3 11.4210526,3 Z" id="路径" fill="#2CA8FE"></path>
        </g>
    </g>
</svg>