<?xml version="1.0" encoding="UTF-8"?>
<svg width="16px" height="16px" viewBox="0 0 16 16" version="1.1" xmlns="http://www.w3.org/2000/svg" xmlns:xlink="http://www.w3.org/1999/xlink">
    <title>topiconactivation</title>
    <defs>
        <linearGradient x1="50%" y1="0%" x2="50%" y2="100%" id="linearGradient-1">
            <stop stop-color="#FFFFFF" offset="0%"></stop>
            <stop stop-color="#E6F1F6" offset="100%"></stop>
        </linearGradient>
    </defs>
    <g id="icon调整" stroke="none" stroke-width="1" fill="none" fill-rule="evenodd">
        <g id="icon尺寸调整" transform="translate(-982, -9)" fill-rule="nonzero">
            <g id="topiconactivation" transform="translate(982, 9)">
                <rect id="矩形" fill="#000000" opacity="0" x="3.63797881e-12" y="0" width="16" height="16"></rect>
                <g id="编组-30">
                    <g id="编组-29">
                        <polygon id="矩形" fill="url(#linearGradient-1)" points="1 1 15 1 15 15 1 15"></polygon>
                        <path d="M16,16 L16,0 L0,0 L0,16 L12.1667664,16 L16,16 Z M1,14.9689948 L1.00191945,5.29815226 L1,1 L15,1 L15,15 L1,14.9689948 Z" id="形状" fill="#7E8DB3"></path>
                    </g>
                    <path d="M7.94290654,13.089018 C7.1588974,13.089018 6.44650449,12.7711425 5.9326267,12.2572647 C5.41874892,11.743387 5.09961699,11.0322505 5.10083045,10.2469849 C5.10083045,8.82722478 6.13993681,7.6524675 7.49938855,7.43887527 L7.49938855,2.81878663 L8.38893738,2.81878663 L8.38893738,3.85369874 L10.2007021,3.85369874 L10.2007021,4.79638673 L8.38893738,4.79638673 L8.38893738,5.67474366 L10.2007021,5.67474366 L10.2007021,6.74700929 L8.38893738,6.74700929 L8.38893738,7.44138812 C8.99704703,7.53687641 9.53982259,7.82334128 9.95569923,8.23921793 C10.469577,8.75058286 10.7874525,9.46046293 10.7862071,10.2457285 C10.7862071,11.8162596 9.51343767,13.089018 7.94290654,13.089018 Z" id="路径" fill="#2CA8FE" transform="translate(7.9435, 7.9539) rotate(-58) translate(-7.9435, -7.9539)"></path>
                    <path d="M11.6952696,9.27984904 C11.6952696,8.7968816 11.5071909,8.34409961 11.165863,8.00277166 C10.8930328,7.72994149 10.5493829,7.55579457 10.1720646,7.49658462 L9.88878564,7.4524674 L9.60550666,7.49658462 C9.18639308,7.56276045 8.79978692,7.77754165 8.51999088,8.10145491 C8.2367119,8.42885111 8.08230163,8.84796469 8.08230163,9.27984904 C8.08230163,9.76281649 8.2703803,10.2155985 8.61170825,10.5569264 C8.95303621,10.8982544 9.40581819,11.0863331 9.88878564,11.0863331 C10.3717531,11.0863331 10.824535,10.8982544 11.165863,10.5569264 C11.5071909,10.2155985 11.6952696,9.76281649 11.6952696,9.27984904 Z" id="路径" fill="#FFFFFF"></path>
                </g>
            </g>
        </g>
    </g>
</svg>