<?xml version="1.0" encoding="UTF-8"?>
<svg width="16px" height="16px" viewBox="0 0 16 16" version="1.1" xmlns="http://www.w3.org/2000/svg" xmlns:xlink="http://www.w3.org/1999/xlink">
    <title>topiconlexlibrary</title>
    <defs>
        <linearGradient x1="50%" y1="0%" x2="50%" y2="100%" id="linearGradient-1">
            <stop stop-color="#FFFFFF" offset="0%"></stop>
            <stop stop-color="#E6F1F6" offset="100%"></stop>
        </linearGradient>
    </defs>
    <g id="公共组件" stroke="none" stroke-width="1" fill="none" fill-rule="evenodd">
        <g id="顶部导航-设置" transform="translate(-657.000000, -10.000000)">
            <g id="topiconlexlibrary" transform="translate(657.000000, 10.000000)">
                <rect id="矩形" fill="#000000" fill-rule="nonzero" opacity="0" x="0" y="0" width="16" height="16"></rect>
                <polygon id="矩形" fill="url(#linearGradient-1)" points="2 2 14 2 14 14 2 14"></polygon>
                <polygon id="路径" fill="#7E8DB3" fill-rule="nonzero" points="9.26044444 15 9.26044444 14 2 14 2 2 13 2 13 6.9967041 14 6.9967041 14 1 1.00427246 1 1.00427246 15"></polygon>
                <path d="M15.2888889,12.1742222 L15.2888889,11.2 L14.6453333,11.2 C14.5891751,10.9408613 14.4868,10.6939566 14.3431111,10.4711111 L14.7982222,10.016 L14.112,9.33155556 L13.6586667,9.78488889 C13.4353595,9.64246938 13.1885813,9.54074857 12.9297778,9.48444444 L12.9297778,8.84444444 L11.9591111,8.84444444 L11.9591111,9.488 C11.7000764,9.54449006 11.4532291,9.64684138 11.2302222,9.79022222 L10.7768889,9.33511111 L10.0906667,10.0213333 L10.5457778,10.4746667 C10.4020889,10.6975121 10.2997138,10.9444169 10.2435556,11.2035556 L9.6,11.2035556 L9.6,12.1742222 L10.2435556,12.1742222 C10.3000456,12.433257 10.4023969,12.6801043 10.5457778,12.9031111 L10.0906667,13.3564444 L10.7768889,14.0444444 L11.2302222,13.5893333 C11.4530677,13.7330222 11.6999724,13.8353974 11.9591111,13.8915556 L11.9591111,14.5351111 L12.9297778,14.5351111 L12.9297778,13.8897778 C13.1888125,13.8332877 13.4356598,13.7309364 13.6586667,13.5875556 L14.112,14.0444444 L14.7982222,13.3582222 L14.3431111,12.9048889 C14.4868,12.6820434 14.5891751,12.4351387 14.6453333,12.176 L15.2888889,12.1742222 Z M13.9253333,11.6888889 C13.9253333,12.2878525 13.5645263,12.8278384 13.0111561,13.0570518 C12.4577858,13.2862653 11.8208291,13.1595667 11.3972979,12.7360355 C10.9737666,12.3125042 10.847068,11.6755475 11.0762815,11.1221772 C11.305495,10.568807 11.8454808,10.208 12.4444444,10.208 C13.2619107,10.2089796 13.9243537,10.8714226 13.9253333,11.6888889 L13.9253333,11.6888889 Z" id="形状" fill="#7E8DB3" fill-rule="nonzero"></path>
                <path d="M5.54390598,7.0610977 C5.5455179,7.06440429 6.03651905,7.54177431 7.01690942,8.49320777 C7.0376646,8.51628361 7.05971323,8.47502696 7.080545,8.45195113 C7.99355418,7.52849552 8.45088472,7.06487772 8.45253661,7.0610977 C8.49090638,7.03227048 8.5,6.97198162 8.5,6.916698 C8.5,6.80825184 8.40970722,6.55064866 8.28767855,6.50402287 C8.25681014,6.49222839 8.19166311,6.5265631 8.16632861,6.55064866 L7.080545,7.65553142 C7.05970989,7.67860356 7.03766127,7.67860356 7.01690942,7.65553142 L5.77963146,6.55064866 C5.75197233,6.52836064 5.72194885,6.48695113 5.69596202,6.50402287 C5.50405417,6.63009446 5.5,6.82809331 5.5,6.916698 C5.5,6.97325026 5.50405417,7.03251459 5.54390598,7.0610977 Z M5.54390598,9.0610977 C5.5455179,9.06440429 6.03651905,9.54177431 7.01690942,10.4932078 C7.0376646,10.5162836 7.05971323,10.475027 7.080545,10.4519511 C7.99355418,9.52849552 8.45088472,9.06487772 8.45253661,9.0610977 C8.49090638,9.03227048 8.5,8.97198162 8.5,8.916698 C8.5,8.80825184 8.40970722,8.55064866 8.28767855,8.50402287 C8.25681014,8.49222839 8.19166311,8.5265631 8.16632861,8.55064866 L7.080545,9.65553142 C7.05970989,9.67860356 7.03766127,9.67860356 7.01690942,9.65553142 L5.77963146,8.55064866 C5.75197233,8.52836064 5.72194885,8.48695113 5.69596202,8.50402287 C5.50405417,8.63009446 5.5,8.82809331 5.5,8.916698 C5.5,8.97325026 5.50405417,9.03251459 5.54390598,9.0610977 Z M8.45609402,2.9389023 C8.4544821,2.93559571 7.96348095,2.45822569 6.98309058,1.50679223 C6.9623354,1.48371639 6.94028677,1.52497304 6.919455,1.54804887 C6.00644582,2.47150448 5.54911528,2.93512228 5.54746339,2.9389023 C5.50909362,2.96772952 5.5,3.02801838 5.5,3.083302 C5.5,3.19174816 5.59029278,3.44935134 5.71232145,3.49597713 C5.74318986,3.50777161 5.80833689,3.4734369 5.83367139,3.44935134 L6.919455,2.34446858 C6.94029011,2.32139644 6.96233873,2.32139644 6.98309058,2.34446858 L8.22036854,3.44935134 C8.24802767,3.47163936 8.27805115,3.51304887 8.30403798,3.49597713 C8.49594583,3.36990554 8.5,3.17190669 8.5,3.083302 C8.5,3.02674974 8.49594583,2.96748541 8.45609402,2.9389023 Z M8.45609402,4.9389023 C8.4544821,4.93559571 7.96348095,4.45822569 6.98309058,3.50679223 C6.9623354,3.48371639 6.94028677,3.52497304 6.919455,3.54804887 C6.00644582,4.47150448 5.54911528,4.93512228 5.54746339,4.9389023 C5.50909362,4.96772952 5.5,5.02801838 5.5,5.083302 C5.5,5.19174816 5.59029278,5.44935134 5.71232145,5.49597713 C5.74318986,5.50777161 5.80833689,5.4734369 5.83367139,5.44935134 L6.919455,4.34446858 C6.94029011,4.32139644 6.96233873,4.32139644 6.98309058,4.34446858 L8.22036854,5.44935134 C8.24802767,5.47163936 8.27805115,5.51304887 8.30403798,5.49597713 C8.49594583,5.36990554 8.5,5.17190669 8.5,5.083302 C8.5,5.02674974 8.49594583,4.96748541 8.45609402,4.9389023 Z" id="形状" fill="#2CA8FE" fill-rule="nonzero" transform="translate(7.000000, 6.000000) rotate(90.000000) translate(-7.000000, -6.000000) "></path>
            </g>
        </g>
    </g>
</svg>