<?xml version="1.0" encoding="UTF-8"?>
<svg width="16px" height="16px" viewBox="0 0 16 16" version="1.1" xmlns="http://www.w3.org/2000/svg" xmlns:xlink="http://www.w3.org/1999/xlink">
    <title>topiconconsoledesk </title>
    <defs>
        <linearGradient x1="50%" y1="0%" x2="50%" y2="100%" id="linearGradient-1">
            <stop stop-color="#FFFFFF" offset="0%"></stop>
            <stop stop-color="#E6F1F6" offset="100%"></stop>
        </linearGradient>
    </defs>
    <g id="公共组件" stroke="none" stroke-width="1" fill="none" fill-rule="evenodd">
        <g id="M-Design顶部菜单" transform="translate(-288.000000, -1061.000000)">
            <g id="顶部导航-窗口" transform="translate(70.000000, 1051.000000)">
                <g id="topiconconsoledesk-" transform="translate(218.000000, 10.000000)">
                    <rect id="矩形" fill="#000000" fill-rule="nonzero" opacity="0" x="0" y="0" width="16" height="16"></rect>
                    <g id="编组-29" transform="translate(0.000000, 1.000000)">
                        <polygon id="矩形" fill="url(#linearGradient-1)" points="1 1 14 1 14 14 1 14"></polygon>
                        <path d="M14.8625001,14.9983263 L14.8625001,0 L0,0 L0,14.9983263 L11.3017854,14.9983263 L14.8625001,14.9983263 Z M1,14 L1.00178235,5 L1,1 L14,1 L14,14.0288544 L1,14 Z" id="形状" fill="#7E8DB3"></path>
                    </g>
                    <path d="M5.75000001,5 C5.81630413,5 5.87989261,5.02633921 5.9267767,5.07322331 C5.9736608,5.1201074 6,5.18369588 6,5.25000001 L6,6 L6.5,6 C6.77614238,6 7,6.22385763 7,6.5 L7,8.5 C7,8.77614237 6.77614238,9 6.5,9 L6,9 L6,11.75 C6,11.8163041 5.9736608,11.8798926 5.9267767,11.9267767 C5.87989261,11.9736608 5.81630413,12 5.75000001,12 L5.25,12 C5.18369588,12 5.1201074,11.9736608 5.07322331,11.9267767 C5.02633921,11.8798926 5,11.8163041 5,11.75 L5,9 L4.5,9 C4.22385763,9 4,8.77614238 4,8.5 L4,6.5 C4,6.22385763 4.22385763,6 4.5,6 L5,6 L5,5.25000001 C5,5.18369588 5.02633921,5.1201074 5.07322331,5.07322331 C5.1201074,5.02633921 5.18369588,5 5.25,5 L5.75000001,5 Z M9.75,5 C9.81630412,5 9.8798926,5.02633921 9.92677669,5.07322331 C9.97366079,5.1201074 10,5.18369588 10,5.25000001 L10,8 L10.5,8 C10.7761424,8 11,8.22385762 11,8.5 L11,10.5 C11,10.7761424 10.7761424,11 10.5,11 L10,11 L10,11.75 C10,11.8163041 9.97366079,11.8798926 9.92677669,11.9267767 C9.8798926,11.9736608 9.81630412,12 9.75,12 L9.24999999,12 C9.18369587,12 9.12010739,11.9736608 9.0732233,11.9267767 C9.0263392,11.8798926 9,11.8163041 9,11.75 L9,11 L8.5,11 C8.22385762,11 8,10.7761424 8,10.5 L8,8.5 C8,8.22385763 8.22385762,8 8.5,8 L9,8 L9,5.25000001 C9,5.18369588 9.0263392,5.1201074 9.0732233,5.07322331 C9.12010739,5.02633921 9.18369587,5 9.24999999,5 L9.75,5 Z M10,9 L9,9 L9,10 L10,10 L10,9 Z M6,7 L5,7 L5,8 L6,8 L6,7 Z" id="形状" fill="#2CA8FE" fill-rule="nonzero"></path>
                </g>
            </g>
        </g>
    </g>
</svg>