<?xml version="1.0" encoding="UTF-8"?>
<svg width="16px" height="16px" viewBox="0 0 16 16" version="1.1" xmlns="http://www.w3.org/2000/svg" xmlns:xlink="http://www.w3.org/1999/xlink">
    <title>icon_共享模型包管理</title>
    <defs>
        <linearGradient x1="50%" y1="0%" x2="50%" y2="100%" id="linearGradient-1">
            <stop stop-color="#FFFFFF" offset="0%"></stop>
            <stop stop-color="#E6F1F6" offset="100%"></stop>
        </linearGradient>
    </defs>
    <g id="顶部菜单" stroke="none" stroke-width="1" fill="none" fill-rule="evenodd">
        <g id="M-Design顶部菜单" transform="translate(-1079.000000, -1538.000000)">
            <g id="icon_共享模型包管理" transform="translate(1079.000000, 1538.000000)">
                <rect id="矩形" fill="#ACACAC" fill-rule="nonzero" opacity="0" x="0" y="0" width="16" height="16"></rect>
                <g id="编组-34" transform="translate(0.916667, 1.679204)">
                    <g id="编组-29">
                        <path d="M1,0.320796423 L5.52343462,0.320796423 C5.84762562,0.320796423 6.15170051,0.477954937 6.33920485,0.742420304 L7.86832903,2.89917254 C8.05583337,3.16363791 8.35990826,3.32079642 8.68409926,3.32079642 L13.1666667,3.32079642 C13.7189514,3.32079642 14.1666667,3.76851167 14.1666667,4.32079642 L14.1666667,12.3207964 C14.1666667,12.8730812 13.7189514,13.3207964 13.1666667,13.3207964 L1,13.3207964 C0.44771525,13.3207964 -3.76453835e-16,12.8730812 0,12.3207964 L0,1.32079642 C-6.76353751e-17,0.768511673 0.44771525,0.320796423 1,0.320796423 Z" id="矩形" fill="url(#linearGradient-1)"></path>
                        <path d="M9.08333333,12.8225819 L1.13738,12.8225819 C0.585095247,12.8225819 0,12.3662534 0,11.8139686 L0,1 C0,0.44771525 0.44771525,0 1,0 L5.52343462,0 C5.84762562,0 6.15170051,0.157158514 6.33920485,0.421623882 L7.86832903,2.57837612 C8.05583337,2.84284149 8.35990826,3 8.68409926,3 L12.9688751,3.06783736 C13.5211598,3.06783736 13.9688751,3.51555261 13.9688751,4.06783736 L13.9688751,7.02325331" id="路径" stroke="#7E8DB3"></path>
                        <polyline id="路径-2" stroke="#2CA8FE" points="7.7099539 5.11022601 9.08333333 6.66039821 7.7099539 8.02765288"></polyline>
                        <path d="M8.39664362,6.56893945 L3.784974,6.57134466 C3.23289326,6.57215428 2.78549582,7.01978512 2.78497414,7.57186621 L2.78497414,9.58072436 L2.78497414,9.58072436" id="路径-3" stroke="#2CA8FE"></path>
                    </g>
                    <path d="M14.7722222,10.6505742 L14.7722222,9.67635198 L14.1286666,9.67635198 C14.0725084,9.41721328 13.9701333,9.17030858 13.8264444,8.94746308 L14.2815555,8.49235198 L13.5953333,7.80790754 L13.142,8.26124087 C12.9186928,8.11882136 12.6719146,8.01710055 12.4131111,7.96079642 L12.4131111,7.32079642 L11.4424444,7.32079642 L11.4424444,7.96435198 C11.1834097,8.02084204 10.9365624,8.12319336 10.7135555,8.2665742 L10.2602222,7.81146309 L9.57400003,8.49768528 L10.0291111,8.95101868 C9.88542223,9.17386408 9.78304713,9.42076888 9.72688893,9.67990758 L9.08333333,9.67990758 L9.08333333,10.6505742 L9.72688893,10.6505742 C9.78337893,10.909609 9.88573023,11.1564563 10.0291111,11.3794631 L9.57400003,11.8327964 L10.2602222,12.5207964 L10.7135555,12.0656853 C10.936401,12.2093742 11.1833057,12.3117494 11.4424444,12.3679076 L11.4424444,13.0114631 L12.4131111,13.0114631 L12.4131111,12.3661298 C12.6721458,12.3096397 12.9189931,12.2072884 13.142,12.0639076 L13.5953333,12.5207964 L14.2815555,11.8345742 L13.8264444,11.3812409 C13.9701333,11.1583954 14.0725084,10.9114907 14.1286666,10.652352 L14.7722222,10.6505742 Z M13.4086666,10.1652409 C13.4086666,10.7642045 13.0478596,11.3041904 12.4944894,11.5334038 C11.9411191,11.7626173 11.3041624,11.6359187 10.8806312,11.2123875 C10.4570999,10.7888562 10.3304013,10.1518995 10.5596148,9.59852918 C10.7888283,9.04515898 11.3288141,8.68435198 11.9277777,8.68435198 C12.745244,8.68533158 13.407687,9.34777458 13.4086666,10.1652409 L13.4086666,10.1652409 Z" id="形状" fill="#7E8DB3" fill-rule="nonzero"></path>
                </g>
            </g>
        </g>
    </g>
</svg>