<?xml version="1.0" encoding="UTF-8"?>
<svg width="16px" height="16px" viewBox="0 0 16 16" version="1.1" xmlns="http://www.w3.org/2000/svg" xmlns:xlink="http://www.w3.org/1999/xlink">
    <title>topiconsearch</title>
    <defs>
        <linearGradient x1="50%" y1="0%" x2="50%" y2="100%" id="linearGradient-1">
            <stop stop-color="#FFFFFF" offset="0%"></stop>
            <stop stop-color="#E9F2F7" offset="100%"></stop>
        </linearGradient>
    </defs>
    <g id="公共组件" stroke="none" stroke-width="1" fill="none" fill-rule="evenodd">
        <g id="顶部固定工具栏" transform="translate(-168.000000, -3.000000)">
            <g id="topiconsearch" transform="translate(168.000000, 3.000000)">
                <rect id="矩形" fill="#000000" fill-rule="nonzero" opacity="0" x="0" y="0" width="16" height="16"></rect>
                <path d="M12.5,14.2602184 C11.9579695,13.936886 10.4224762,12.1653377 9.5,11.3235851 C9.47407555,11.2999292 10.0161289,11.1593519 10.5,10.6548107 C10.9838711,10.1502694 11.2511018,9.69029032 11.3143311,9.75796007 C12.2645964,10.7749616 13.7812732,12.3216745 14.1812744,12.8996582 C14.4264823,13.2539726 14.600039,13.8842539 14.1812744,14.2602184 C13.7625098,14.6361829 13.0216959,14.5714208 12.5,14.2602184 Z" id="路径" stroke="#7E8DB3" fill="#2CA8FE" fill-rule="nonzero"></path>
                <path d="M6.499904,0.695460068 C7.90747675,0.6954355 9.31505887,1.23238183 10.3890194,2.30630489 C11.46298,3.38022795 11.9999754,4.78779132 12,6.19536407 C12.0000246,7.60293682 11.4630782,9.01051894 10.3891552,10.0844795 C9.31523212,11.15844 7.90766874,11.6954355 6.500096,11.6954601 C5.09252325,11.6954846 3.68494113,11.1585383 2.61098058,10.0846152 C1.53702004,9.01069219 1.00002457,7.60312881 1,6.19555607 C0.999975433,4.78798332 1.53692177,3.3804012 2.61084482,2.30644065 C3.68476788,1.23248011 5.09233126,0.695484636 6.499904,0.695460068 Z" id="路径" stroke="#7E8DB3" fill="url(#linearGradient-1)"></path>
            </g>
        </g>
    </g>
</svg>