<?xml version="1.0" encoding="UTF-8"?>
<svg width="16px" height="16px" viewBox="0 0 16 16" version="1.1" xmlns="http://www.w3.org/2000/svg" xmlns:xlink="http://www.w3.org/1999/xlink">
    <title>topiconsavesettings</title>
    <g id="页面" stroke="none" stroke-width="1" fill="none" fill-rule="evenodd">
        <g id="M-Design顶部菜单" transform="translate(-368.000000, -718.000000)">
            <g id="顶部导航-设置" transform="translate(67.000000, 709.000000)">
                <g id="topiconsavesettings" transform="translate(301.000000, 9.000000)">
                    <polygon id="矩形" fill="#FFFFFF" points="2 2 14 2 14 14 2 14"></polygon>
                    <rect id="矩形" fill="#000000" fill-rule="nonzero" opacity="0" x="0" y="0" width="16" height="16"></rect>
                    <path d="M8.97526005,8.38979477 C9.03331459,8.38979477 9.08940118,8.4124262 9.12974417,8.45375316 C9.21535001,8.53935901 9.21535001,8.67809952 9.12974417,8.76272139 L7.25133539,10.6411302 C7.16572955,10.726736 7.02698904,10.726736 6.94236716,10.6411302 L5.06395839,8.76272139 C5.02263143,8.72139443 5,8.66629182 5,8.60823728 C5,8.48720832 5.09839753,8.38979477 5.21844251,8.38979477 L6.44053978,8.38979477 L6.44053978,5.6563115 L7.75316278,5.6563115 L7.75316278,8.38979477 L8.97526005,8.38979477 Z" id="路径" fill="#7E8DB3"></path>
                    <polygon id="路径" fill="#7E8DB3" fill-rule="nonzero" points="9.26044444 15 9.26044444 14 2 14 2 2 13 2 13 6.9967041 14 6.9967041 14 1 1.00427246 1 1.00427246 15"></polygon>
                    <path d="M15.2888889,12.1742222 L15.2888889,11.2 L14.6453333,11.2 C14.5891751,10.9408613 14.4868,10.6939566 14.3431111,10.4711111 L14.7982222,10.016 L14.112,9.33155556 L13.6586667,9.78488889 C13.4353595,9.64246938 13.1885813,9.54074857 12.9297778,9.48444444 L12.9297778,8.84444444 L11.9591111,8.84444444 L11.9591111,9.488 C11.7000764,9.54449006 11.4532291,9.64684138 11.2302222,9.79022222 L10.7768889,9.33511111 L10.0906667,10.0213333 L10.5457778,10.4746667 C10.4020889,10.6975121 10.2997138,10.9444169 10.2435556,11.2035556 L9.6,11.2035556 L9.6,12.1742222 L10.2435556,12.1742222 C10.3000456,12.433257 10.4023969,12.6801043 10.5457778,12.9031111 L10.0906667,13.3564444 L10.7768889,14.0444444 L11.2302222,13.5893333 C11.4530677,13.7330222 11.6999724,13.8353974 11.9591111,13.8915556 L11.9591111,14.5351111 L12.9297778,14.5351111 L12.9297778,13.8897778 C13.1888125,13.8332877 13.4356598,13.7309364 13.6586667,13.5875556 L14.112,14.0444444 L14.7982222,13.3582222 L14.3431111,12.9048889 C14.4868,12.6820434 14.5891751,12.4351387 14.6453333,12.176 L15.2888889,12.1742222 Z M13.9253333,11.6888889 C13.9253333,12.2878525 13.5645263,12.8278384 13.0111561,13.0570518 C12.4577858,13.2862653 11.8208291,13.1595667 11.3972979,12.7360355 C10.9737666,12.3125042 10.847068,11.6755475 11.0762815,11.1221772 C11.305495,10.568807 11.8454808,10.208 12.4444444,10.208 C13.2619107,10.2089796 13.9243537,10.8714226 13.9253333,11.6888889 L13.9253333,11.6888889 Z" id="形状" fill="#7E8DB3" fill-rule="nonzero"></path>
                </g>
            </g>
        </g>
    </g>
</svg>