<?xml version="1.0" encoding="UTF-8"?>
<svg width="16px" height="16px" viewBox="0 0 16 16" version="1.1" xmlns="http://www.w3.org/2000/svg" xmlns:xlink="http://www.w3.org/1999/xlink">
    <title>topicongxmx</title>
    <defs>
        <linearGradient x1="50%" y1="0%" x2="50%" y2="100%" id="linearGradient-1">
            <stop stop-color="#FFFFFF" offset="0%"></stop>
            <stop stop-color="#E6F1F6" offset="100%"></stop>
        </linearGradient>
    </defs>
    <g id="公共组件" stroke="none" stroke-width="1" fill="none" fill-rule="evenodd">
        <g id="顶部导航-协同" transform="translate(-374.000000, -10.000000)">
            <g id="topicongxmx" transform="translate(374.000000, 10.000000)">
                <rect id="矩形" fill="#000000" fill-rule="nonzero" opacity="0" x="0" y="0" width="16" height="16"></rect>
                <circle id="椭圆形" fill="url(#linearGradient-1)" cx="8" cy="8" r="8"></circle>
                <path d="M10.0684716,7.36127698 L5.44190912,4.00190198 C5.27628412,3.88158948 5.04659662,3.99877698 5.04659662,4.20346448 L5.04659662,10.9222145 C5.04659662,11.126902 5.27784662,11.242527 5.44190912,11.123777 L10.0684716,7.76440198 C10.2059716,7.66440198 10.2059716,7.46127698 10.0684716,7.36127698 Z M6.04347162,5.67065198 L8.64815912,7.56283948 L6.04347162,9.45502698 L6.04347162,5.67065198 Z" id="形状" fill="#2CA8FE" fill-rule="nonzero" transform="translate(7.609097, 7.562500) rotate(-90.000000) translate(-7.609097, -7.562500) "></path>
                <path d="M16,8 C16,12.41875 12.41875,16 8,16 C3.58125,16 0,12.41875 0,8 C0,3.58125 3.58125,0 8,0 C9.7984375,0 11.459375,0.59375 12.7953125,1.5953125 C12.8375,1.6265625 12.878125,1.6578125 12.9203125,1.690625 C12.965625,1.7265625 13.03125,1.725 13.0765625,1.6890625 L13.95625,0.965625 C14.03125,0.9046875 14.14375,0.946875 14.159375,1.0421875 L14.6859375,4.20625 C14.7171875,4.3953125 14.53125,4.5484375 14.3515625,4.48125 L11.3484375,3.3546875 C11.2578125,3.3203125 11.2390625,3.2015625 11.3125,3.140625 L12.084375,2.5046875 C12.146875,2.453125 12.1453125,2.3546875 12.078125,2.30625 L11.9984375,2.25 C11.6015625,1.9734375 11.175,1.7375 10.725,1.5484375 C9.8625,1.184375 8.9453125,1 8,1 C7.0546875,1 6.1375,1.184375 5.275,1.55 C4.4421875,1.903125 3.6921875,2.4078125 3.05,3.05 C2.40625,3.69375 1.9015625,4.4421875 1.55,5.275 C1.184375,6.1375 1,7.0546875 1,8 C1,8.9453125 1.184375,9.8625 1.55,10.725 C1.903125,11.5578125 2.4078125,12.3078125 3.05,12.95 C3.69375,13.59375 4.4421875,14.0984375 5.275,14.45 C6.1375,14.815625 7.0546875,15 8,15 C8.9453125,15 9.8625,14.815625 10.725,14.45 C11.5578125,14.096875 12.3078125,13.5921875 12.95,12.95 C13.59375,12.30625 14.0984375,11.5578125 14.45,10.725 C14.815625,9.8625 15,8.9453125 15,8 C15,7.0546875 14.815625,6.1375 14.45,5.275 C14.446875,5.265625 14.4421875,5.2578125 14.4390625,5.25 C14.403125,5.165625 14.365625,5.0828125 14.3265625,5 L15.41875,5 C15.4515625,5.0828125 15.484375,5.165625 15.515625,5.25 C15.828125,6.1078125 16,7.034375 16,8 Z" id="路径" fill="#7E8DB3" fill-rule="nonzero"></path>
            </g>
        </g>
    </g>
</svg>