<?xml version="1.0" encoding="UTF-8"?>
<svg width="16px" height="16px" viewBox="0 0 16 16" version="1.1" xmlns="http://www.w3.org/2000/svg" xmlns:xlink="http://www.w3.org/1999/xlink">
    <title>topiconattachmentsettings</title>
    <defs>
        <linearGradient x1="50%" y1="0%" x2="50%" y2="100%" id="linearGradient-1">
            <stop stop-color="#FFFFFF" offset="0%"></stop>
            <stop stop-color="#E6F1F6" offset="100%"></stop>
        </linearGradient>
    </defs>
    <g id="公共组件" stroke="none" stroke-width="1" fill="none" fill-rule="evenodd">
        <g id="顶部导航-设置" transform="translate(-502.000000, -10.000000)">
            <g id="topiconattachmentsettings" transform="translate(502.000000, 10.000000)">
                <polygon id="矩形" fill="url(#linearGradient-1)" points="2 2 14 2 14 14 2 14"></polygon>
                <rect id="矩形" fill="#000000" fill-rule="nonzero" opacity="0" x="0" y="0" width="16" height="16"></rect>
                <polygon id="路径" fill="#7E8DB3" fill-rule="nonzero" points="9.26044444 15 9.26044444 14 2 14 2 2 13 2 13 6.9967041 14 6.9967041 14 1 1.00427246 1 1.00427246 15"></polygon>
                <path d="M15.2888889,12.1742222 L15.2888889,11.2 L14.6453333,11.2 C14.5891751,10.9408613 14.4868,10.6939566 14.3431111,10.4711111 L14.7982222,10.016 L14.112,9.33155556 L13.6586667,9.78488889 C13.4353595,9.64246938 13.1885813,9.54074857 12.9297778,9.48444444 L12.9297778,8.84444444 L11.9591111,8.84444444 L11.9591111,9.488 C11.7000764,9.54449006 11.4532291,9.64684138 11.2302222,9.79022222 L10.7768889,9.33511111 L10.0906667,10.0213333 L10.5457778,10.4746667 C10.4020889,10.6975121 10.2997138,10.9444169 10.2435556,11.2035556 L9.6,11.2035556 L9.6,12.1742222 L10.2435556,12.1742222 C10.3000456,12.433257 10.4023969,12.6801043 10.5457778,12.9031111 L10.0906667,13.3564444 L10.7768889,14.0444444 L11.2302222,13.5893333 C11.4530677,13.7330222 11.6999724,13.8353974 11.9591111,13.8915556 L11.9591111,14.5351111 L12.9297778,14.5351111 L12.9297778,13.8897778 C13.1888125,13.8332877 13.4356598,13.7309364 13.6586667,13.5875556 L14.112,14.0444444 L14.7982222,13.3582222 L14.3431111,12.9048889 C14.4868,12.6820434 14.5891751,12.4351387 14.6453333,12.176 L15.2888889,12.1742222 Z M13.9253333,11.6888889 C13.9253333,12.2878525 13.5645263,12.8278384 13.0111561,13.0570518 C12.4577858,13.2862653 11.8208291,13.1595667 11.3972979,12.7360355 C10.9737666,12.3125042 10.847068,11.6755475 11.0762815,11.1221772 C11.305495,10.568807 11.8454808,10.208 12.4444444,10.208 C13.2619107,10.2089796 13.9243537,10.8714226 13.9253333,11.6888889 L13.9253333,11.6888889 Z" id="形状" fill="#7E8DB3" fill-rule="nonzero"></path>
                <path d="M9.32633981,5.03116253 C8.74360871,4.47082943 7.81099412,4.47082943 7.22826302,5.03116253 L5.21410931,6.98644774 C5.0460571,7.1484252 4.95139558,7.36984959 4.95139558,7.60096595 C4.95139558,7.83208231 5.0460571,8.05350671 5.21410931,8.21548416 C5.56446906,8.55554478 6.12859014,8.55554478 6.47894989,8.21548416 L8.40618328,6.34546703 C8.52042142,6.23113621 8.52042142,6.04815886 8.40618328,5.93382804 C8.2892792,5.8198265 8.10047474,5.8198265 7.98357067,5.93382804 L6.05633728,7.80384517 C5.94016478,7.91400379 5.75589167,7.91400379 5.63971917,7.80384517 C5.5293441,7.69026271 5.5293441,7.51166919 5.63971917,7.39808674 L7.66286464,5.44280152 C8.01176106,5.11042654 8.5668198,5.11042654 8.91571621,5.44280152 C9.0813783,5.60304158 9.17464357,5.82174246 9.17464357,6.04996904 C9.17464357,6.27819562 9.0813783,6.49689649 8.91571621,6.65713655 L6.90455975,8.60654121 C6.32182865,9.16687431 5.38921406,9.16687431 4.80648296,8.60654121 C4.52915524,8.33852115 4.37300359,7.97257713 4.37300359,7.59067498 C4.37300359,7.20877283 4.52915524,6.84282881 4.80648296,6.57480875 L6.2571532,5.16053479 C6.37139134,5.04620396 6.37139134,4.86322662 6.2571532,4.74889579 C6.13779107,4.63729759 5.94895601,4.64123899 5.83454059,4.75771663 L4.36588684,6.16611004 C3.97653847,6.54292139 3.75735931,7.05707955 3.75735931,7.59361526 C3.75735931,8.13015096 3.97653847,8.64430913 4.36588684,9.02112048 C5.18207511,9.80751011 6.49000331,9.80751011 7.30619159,9.02112048 L9.31734805,7.07171582 C9.59714863,6.80375726 9.75565537,6.43687345 9.75735931,6.05328596 C9.75903594,5.66969847 9.60376844,5.30148408 9.32633981,5.03116253 L9.32633981,5.03116253 Z" id="路径" fill="#2CA8FE" fill-rule="nonzero"></path>
            </g>
        </g>
    </g>
</svg>