<?xml version="1.0" encoding="UTF-8"?>
<svg width="16px" height="16px" viewBox="0 0 16 16" version="1.1" xmlns="http://www.w3.org/2000/svg" xmlns:xlink="http://www.w3.org/1999/xlink">
    <title>topicononlinehelp</title>
    <g id="顶部菜单" stroke="none" stroke-width="1" fill="none" fill-rule="evenodd">
        <g id="M-Design顶部菜单" transform="translate(-527.000000, -2057.000000)" fill-rule="nonzero">
            <g id="topicononlinehelp" transform="translate(527.000000, 2057.000000)">
                <path d="M7.01146426,12.2016009 C6.62165835,12.2016009 6.220803,12.1671295 5.81994765,12.0991521 C5.71835721,12.0821061 5.61407522,12.1040058 5.527924,12.1604784 L4.74841946,12.6739558 C4.73264022,12.6842778 4.71766787,12.6957835 4.70363165,12.7083736 C4.70411439,12.7077836 4.70411439,12.7073902 4.70411439,12.7073902 C4.70332771,12.7073902 4.69810692,12.7108231 4.68584168,12.7184397 L3.87982207,13.247061 C3.85287787,13.2651906 3.74168609,13.2947095 3.63721697,13.2380498 C3.56282094,13.1992694 3.51063107,13.1128942 3.51063107,13.0278063 L3.51063107,11.4962957 C3.51070258,11.3591431 3.44043669,11.2313593 3.32425657,11.1572851 C1.75017522,10.1531264 0.810364308,8.54552117 0.810364308,6.85711916 C0.810364308,3.91024232 3.59212522,1.51263745 7.01132121,1.51263745 C10.431,1.51263745 13.2127609,3.91024234 13.2127609,6.85711916 C13.2127609,9.80399599 10.4310357,12.2016009 7.01146426,12.2016009 Z" id="路径" fill="#FFFFFF"></path>
                <path d="M3.90049886,6 C3.40476252,6 3.0004297,6.4003457 3.0004297,6.89098871 C3.0004297,7.3816778 3.4047625,7.78200046 3.90049886,7.78200046 C4.39609691,7.78200046 4.8004297,7.38165476 4.8004297,6.89098871 C4.8004297,6.4003457 4.39609691,6 3.90049886,6 Z" id="路径" fill="#2CA8FE"></path>
                <path d="M6.90042971,6 C6.40486973,6 6.0004297,6.40031495 6.0004297,6.89092027 C6.0004297,7.38157166 6.40484665,7.78186357 6.90042971,7.78186357 C7.39603579,7.78186357 7.8004297,7.38154863 7.8004297,6.89092027 C7.8004297,6.40031495 7.39605883,6 6.90042971,6 Z" id="路径" fill="#2CA8FE"></path>
                <path d="M9.0004297,6.89094308 C9.0004297,7.38160705 9.40483397,7.78190921 9.90040666,7.78190921 C10.3961176,7.78190921 10.8004297,7.38158401 10.8004297,6.89094308 C10.8004297,6.4003252 10.3961176,6 9.90040666,6 C9.40483399,6 9.0004297,6.4003252 9.0004297,6.89094308 Z" id="路径" fill="#2CA8FE"></path>
                <rect id="矩形" fill="#000000" opacity="0" x="0.000429703125" y="0" width="16" height="16"></rect>
                <path d="M6.56945244,12.9483336 L14.0231967,7.04411027 C14.7228482,7.5396325 15.1154434,7.92729593 15.2009822,8.20710058 C15.6841082,9.78744567 15.0648194,11.1165341 14.7626768,11.6186071 C14.5142474,12.0314244 13.8304428,12.7176454 13.3384915,13.5600638 C13.1616477,13.8628915 12.9655182,14.3600516 12.750103,15.0515442 C9.1804091,14.5025455 7.31992797,14.1438203 7.16865962,13.9753687 C7.01739126,13.8069171 6.81765554,13.4645721 6.56945244,12.9483336 Z" id="矩形" fill="#FFFFFF"></path>
                <path d="M14.0231967,6.85711916 C14.0231967,3.46594012 10.8777874,0.707100578 7.01135698,0.707100578 C3.1454093,0.707100578 1.13686838e-13,3.46594013 1.13686838e-13,6.85711916 C1.13686838e-13,8.75285029 1.0050527,10.5523189 2.70024889,11.7120997 L2.70024889,13.0278242 C2.70024889,13.4125345 2.92105904,13.7755571 3.25618982,13.9487903 C3.41327792,14.0341821 3.59015846,14.0792202 3.76703903,14.0792202 C3.97917769,14.0792202 4.18416461,14.0182337 4.334834,13.9135858 L5.14444738,13.3831766 C5.16268432,13.3717874 5.18923518,13.3548914 5.21923676,13.3300749 L5.84403115,12.9188495 C6.23617925,12.9774938 6.6283631,13.0071378 7.01133909,13.0071378 C10.8777874,13.0071199 14.0231967,10.2483161 14.0231967,6.85711916 Z M7.01146426,12.2016009 C6.62165835,12.2016009 6.220803,12.1671295 5.81994765,12.0991521 C5.71835721,12.0821061 5.61407522,12.1040058 5.527924,12.1604784 L4.74841946,12.6739558 C4.73264022,12.6842778 4.71766787,12.6957835 4.70363165,12.7083736 C4.70332771,12.7073902 4.69810692,12.7108231 4.68584168,12.7184397 L3.87982207,13.247061 C3.85287787,13.2651906 3.74168609,13.2947095 3.63721697,13.2380498 C3.56282094,13.1992694 3.51063107,13.1128942 3.51063107,13.0278063 L3.51063107,11.4962957 C3.51070258,11.3591431 3.44043669,11.2313593 3.32425657,11.1572851 C1.75017522,10.1531264 0.810364308,8.54552117 0.810364308,6.85711916 C0.810364308,3.91024232 3.59212522,1.51263745 7.01132121,1.51263745 C10.431,1.51263745 13.2127609,3.91024234 13.2127609,6.85711916 C13.2127609,9.80399599 10.4310357,12.2016009 7.01146426,12.2016009 Z M15.2106547,8.10649339 C15.1825944,8.04859146 14.7962499,7.43909688 14.504931,7.04411027 C14.3196588,6.79290771 13.9815182,6.38455988 13.892489,6.5112915 C13.7570825,6.70404053 13.7619501,7.47036743 13.9292475,7.58569336 C14.0965448,7.70101929 14.4255705,8.36733472 14.4731488,8.46552891 C14.5892395,8.70541634 14.678529,8.94975574 14.73737,9.19105564 C14.8026655,9.46171345 14.835939,9.74749722 14.835939,10.0407546 C14.835939,11.2878402 14.156398,12.4896732 13.0181261,13.2554464 C12.9047067,13.3318549 12.8367155,13.4596677 12.83674,13.5964237 L12.83674,14.6439399 C12.83674,14.7292245 12.7942407,14.807411 12.7217578,14.8584029 C12.59485,14.8993109 12.5119971,14.8941259 12.4354913,14.8425439 L11.8553059,14.4606049 C11.8400847,14.4467762 11.8239118,14.4340326 11.8069064,14.4224683 L11.3023687,14.0824385 C11.2160263,14.0243283 11.1108285,14.0011989 11.0080743,14.0177331 C9.86333014,14.202856 8.74620959,14.0249027 7.77805987,13.5039874 C7.73207897,13.4791134 7.45242352,13.35966 7.21780641,13.1750793 C6.96390452,12.9753268 6.86968817,12.7782487 6.8155237,12.7945862 C6.71125007,12.826064 5.59390504,12.3881999 5.88159425,12.8490601 C6.16928346,13.3099203 6.41249248,13.4936099 6.51065309,13.5964237 C6.82610209,13.9268262 7.33819927,14.2000256 7.38968433,14.2277441 C8.47235136,14.8100214 9.70878091,15.0252174 10.9764636,14.8529318 L11.3052115,15.0748147 C11.3468346,15.1144712 11.3884578,15.1400208 11.4172793,15.1556473 L11.9830718,15.5277706 C12.1584863,15.6450592 12.3638665,15.7071006 12.5772389,15.7071006 C12.7238139,15.7071006 12.8746978,15.6777427 13.0388841,15.6178289 C13.0599299,15.6100997 13.0802987,15.6006389 13.0997812,15.5895438 C13.4432974,15.3953202 13.6566697,15.0331022 13.6566697,14.6439221 L13.6566697,13.809814 C14.9127308,12.8873818 15.6559403,11.4934529 15.6559403,10.0407367 C15.6559403,9.68252359 15.6151395,9.33148015 15.5341818,8.99667119 C15.4608943,8.69806792 15.3524023,8.39855282 15.2106547,8.10649339 Z" id="形状" fill="#7E8DB3"></path>
            </g>
        </g>
    </g>
</svg>