<?xml version="1.0" encoding="UTF-8"?>
<svg width="16px" height="16px" viewBox="0 0 16 16" version="1.1" xmlns="http://www.w3.org/2000/svg" xmlns:xlink="http://www.w3.org/1999/xlink">
    <title>topicontree</title>
    <g id="页面" stroke="none" stroke-width="1" fill="none" fill-rule="evenodd">
        <g id="M-Design顶部菜单" transform="translate(-296.000000, -1061.000000)" fill-rule="nonzero">
            <g id="顶部导航-窗口" transform="translate(67.000000, 1051.000000)">
                <g id="topicontree" transform="translate(229.000000, 10.000000)">
                    <rect id="矩形" fill="#000000" opacity="0" x="0" y="0" width="16" height="16"></rect>
                    <path d="M2.0108125,1.99984375 L2.0108125,4.985 L4.985,4.985 L4.985,1.99984375 L2.0108125,1.99984375 Z M3.99926562,3.99926562 L2.996625,3.99926562 L2.996625,2.996625 L3.99926562,2.996625 L3.99926562,3.99926562 L3.99926562,3.99926562 Z M7.98957813,11.0034844 L7.98957813,13.9943594 L14.0175781,13.9943594 L14.0175781,11.0034844 L7.98957813,11.0034844 Z M13,13 L9.00175,13 L9.00175,11.9969063 L13,11.9969063 L13,13 Z M6.00117188,1.99984375 L6.00117188,4.985 L14.0027188,4.985 L14.0027188,1.99984375 L6.00117188,1.99984375 Z M13.0025312,3.99926562 L7.00135937,3.99926562 L7.00135937,2.996625 L13.0025312,2.996625 L13.0025312,3.99926562 Z M7.98957813,7.00326563 L7.98957813,9.99414062 L14.0035938,9.99414062 L14.0035938,7.00326563 L7.98957813,7.00326563 Z M12.9883594,8.99976562 L8.99939063,8.99976562 L8.99939063,7.99667188 L12.9883594,7.99667188 L12.9883594,8.99976562 L12.9883594,8.99976562 Z M3.00057812,4.98501562 L4.00076562,4.98501562 L4.00076562,12.9956406 L3.00057812,12.9956406 L3.00057812,4.98501562 Z" id="形状" fill="#7E8DB3"></path>
                    <path d="M4.00078125,11.9969063 L7.98959375,11.9969063 L7.98959375,12.9956406 L4.00078125,12.9956406 L4.00078125,11.9969063 Z M4.00078125,8 L7.98959375,8 L7.98959375,8.99032812 L4.00078125,8.99032812 L4.00078125,8 Z" id="形状" fill="#7E8DB3"></path>
                </g>
            </g>
        </g>
    </g>
</svg>