<?xml version="1.0" encoding="UTF-8"?>
<svg width="16px" height="11px" viewBox="0 0 16 11" version="1.1" xmlns="http://www.w3.org/2000/svg" xmlns:xlink="http://www.w3.org/1999/xlink">
    <title>topiconquotes</title>
    <g id="页面" stroke="none" stroke-width="1" fill="none" fill-rule="evenodd">
        <g id="M-Design顶部菜单" transform="translate(-296.000000, -609.000000)" fill-rule="nonzero">
            <g id="顶部导航-选项" transform="translate(67.000000, 595.000000)">
                <g id="topiconquotes" transform="translate(229.000000, 14.000000)">
                    <rect id="矩形" fill="#000000" opacity="0" x="0" y="6.06251338e-05" width="10.6666667" height="10.6666667"></rect>
                    <path d="M5.62962962,0.592653219 C6.77510911,0.592653219 7.7037037,1.52124781 7.7037037,2.66672729 C7.7037037,3.81220677 6.77510911,4.74080136 5.62962962,4.74080136 C4.48415014,4.74080136 3.55555555,3.81220677 3.55555555,2.66672729 C3.55555555,1.52124781 4.48415014,0.592653219 5.62962962,0.592653219 Z M2.07407407,6.51857915 C3.21955355,6.51857915 4.14814815,7.44717374 4.14814815,8.59265322 C4.14814815,9.7381327 3.21955355,10.6667273 2.07407407,10.6667273 C0.928594592,10.6667273 0,9.7381327 0,8.59265322 C0,7.44717374 0.928594592,6.51857915 2.07407407,6.51857915 L2.07407407,6.51857915 Z M10.3703704,5.92598655 C11.5158499,5.92598655 12.4444444,6.85458115 12.4444444,8.00006063 C12.4444444,9.14554011 11.5158498,10.0741347 10.3703704,10.0741347 C9.22489088,10.0741347 8.29629629,9.1455401 8.29629629,8.00006063 C8.29629629,7.44998198 8.51481418,6.92243312 8.90377853,6.53346878 C9.29274287,6.14450444 9.82029173,5.92598655 10.3703704,5.92598655 L10.3703704,5.92598655 Z M13.9259259,6.06251338e-05 C15.0714054,6.06251338e-05 16,0.928655218 16,2.0741347 C16,3.21961418 15.0714054,4.14820877 13.9259259,4.14820877 C12.7804464,4.14820877 11.8518519,3.21961418 11.8518519,2.0741347 C11.8518519,0.928655218 12.7804464,6.06251338e-05 13.9259259,6.06251338e-05 L13.9259259,6.06251338e-05 Z" id="形状" fill="#F6F7F8"></path>
                    <path d="M13.9259259,4.14820877 C13.0870413,4.14820877 12.3307586,3.64287685 12.0097313,2.86784848 C11.6887041,2.09282012 11.8661531,1.20072388 12.4593341,0.607542856 C13.0525151,0.0143618279 13.9446113,-0.163087146 14.7196397,0.157940113 C15.4946681,0.478967372 16,1.23525004 16,2.0741347 C16,3.21961418 15.0714054,4.14820877 13.9259259,4.14820877 L13.9259259,4.14820877 Z M13.9259259,1.18524581 C13.4350062,1.18524581 13.037037,1.58321492 13.037037,2.0741347 C13.037037,2.56505447 13.4350062,2.96302358 13.9259259,2.96302358 C14.4168457,2.96302358 14.8148148,2.56505447 14.8148148,2.0741347 C14.8148148,1.83838671 14.7211643,1.61229434 14.5544653,1.44559534 C14.3877663,1.27889634 14.1616739,1.18524581 13.9259259,1.18524581 L13.9259259,1.18524581 Z M10.3703704,10.0741347 C9.22489089,10.0741347 8.2962963,9.14554011 8.2962963,8.00006063 C8.2962963,6.85458114 9.22489089,5.92598655 10.3703704,5.92598655 C11.5158499,5.92598655 12.4444444,6.85458114 12.4444444,8.00006063 C12.4444444,8.55013927 12.2259266,9.07768813 11.8369622,9.46665247 C11.4479979,9.85561681 10.920449,10.0741347 10.3703704,10.0741347 L10.3703704,10.0741347 Z M10.3703704,7.11117174 C9.8794506,7.11117174 9.48148149,7.50914085 9.48148149,8.00006063 C9.48148149,8.4909804 9.8794506,8.88894951 10.3703704,8.88894951 C10.8612902,8.88894951 11.2592593,8.4909804 11.2592593,8.00006063 C11.2592593,7.50914085 10.8612902,7.11117174 10.3703704,7.11117174 Z M5.62962962,4.74080136 C4.48415015,4.74080136 3.55555556,3.81220676 3.55555556,2.66672728 C3.55555556,1.52124781 4.48415016,0.592653219 5.62962964,0.592653219 C6.77510912,0.592653219 7.70370371,1.52124781 7.70370371,2.66672729 C7.70370371,3.21680594 7.48518582,3.7443548 7.09622147,4.13331914 C6.70725713,4.52228348 6.17970827,4.74080136 5.62962962,4.74080136 Z M5.62962962,1.77783841 C5.13870985,1.77783841 4.74074075,2.17580752 4.74074075,2.6667273 C4.74074075,3.15764707 5.13870986,3.55561618 5.62962964,3.55561618 C6.12054941,3.55561618 6.51851852,3.15764707 6.51851852,2.66672729 C6.51851852,2.4309793 6.42486799,2.20488693 6.25816899,2.03818793 C6.09146999,1.87148893 5.86537762,1.77783841 5.62962962,1.77783841 L5.62962962,1.77783841 Z M2.07407407,10.6667273 C0.928594592,10.6667273 0,9.7381327 0,8.59265322 C0,7.44717374 0.928594592,6.51857915 2.07407407,6.51857915 C3.21955355,6.51857915 4.14814815,7.44717374 4.14814815,8.59265322 C4.14814815,9.7381327 3.21955355,10.6667273 2.07407407,10.6667273 Z M2.07407407,7.70376433 C1.5831543,7.70376433 1.18518519,8.10173344 1.18518519,8.59265322 C1.18518519,9.08357299 1.5831543,9.4815421 2.07407407,9.4815421 C2.56499385,9.4815421 2.96296296,9.08357299 2.96296296,8.59265322 C2.96296296,8.10173344 2.56499385,7.70376433 2.07407407,7.70376433 L2.07407407,7.70376433 Z" id="形状" fill="#91A2CC"></path>
                    <path d="M11.4678519,6.72776433 L11.0488889,6.30880136 L13.4192593,3.34583841 L13.8388148,3.76480136 L11.4678519,6.72776433 Z M6.90133333,4.35739396 L7.32029629,3.938431 L9.69066667,6.30880136 L9.27170371,6.72776433 L6.90133333,4.35739396 Z M2.13333333,6.93339396 L4.50370371,3.970431 L4.97777778,4.32598655 L2.60740741,7.28894951 L2.13333333,6.93339396 Z" id="形状" fill="#91A2CC"></path>
                </g>
            </g>
        </g>
    </g>
</svg>