<?xml version="1.0" encoding="UTF-8"?>
<svg width="16px" height="16px" viewBox="0 0 16 16" version="1.1" xmlns="http://www.w3.org/2000/svg" xmlns:xlink="http://www.w3.org/1999/xlink">
    <title>topiconquick</title>
    <g id="页面" stroke="none" stroke-width="1" fill="none" fill-rule="evenodd">
        <g id="M-Design顶部菜单" transform="translate(-392.000000, -1061.000000)" fill-rule="nonzero">
            <g id="顶部导航-窗口" transform="translate(67.000000, 1051.000000)">
                <g id="topiconquick" transform="translate(325.000000, 10.000000)">
                    <rect id="矩形" fill="#000000" opacity="0" x="0" y="0" width="16" height="16"></rect>
                    <path d="M5.5625,12.228125 L2.196875,12.228125 C1.61875,12.228125 1,11.853125 1,10.7984375 L1,2.4296875 C1,1.375 1.61875,1 2.196875,1 L13.3390625,1 C13.703125,1 14.09375,1.1359375 14.4109375,1.371875 C14.7859375,1.65 15,2.0359375 15,2.4296875 L15,6.6140625 L14,6.6140625 L14,2.4296875 C14,2.3578125 13.9265625,2.2578125 13.8140625,2.1734375 C13.671875,2.06875 13.4859375,2 13.340625,2 L2.196875,2 C2.1046875,2 2.0890625,2.0234375 2.075,2.0453125 C2.053125,2.0796875 2,2.1859375 2,2.4296875 L2,10.7984375 C2,11.0421875 2.0515625,11.1484375 2.075,11.1828125 C2.0890625,11.2046875 2.1046875,11.228125 2.196875,11.228125 L5.5625,11.228125 L5.5625,12.228125 Z" id="路径" fill="#7E8DB3"></path>
                    <path d="M6.9421875,7.5390625 L7.659375,6.821875 L6.7109375,6.821875 L7.440625,4.86875 C7.5953125,4.4484375 7.7140625,4.025 7.7984375,3.596875 C7.9015625,3.9578125 8.0578125,4.4171875 8.2703125,4.9765625 L8.9640625,6.8203125 L8.215625,6.8203125 L8.8765625,7.48125 C9.1234375,7.34375 9.384375,7.2359375 9.6546875,7.1578125 L9.6546875,6.228125 L8.29375,2.896875 L7.346875,2.896875 L4.79375,9.553125 L5.728125,9.553125 L6.4578125,7.5375 L6.9421875,7.5375 L6.9421875,7.5390625 Z" id="路径" fill="#7E8DB3"></path>
                    <path d="M15,11.1578125 L15,10.159375 L13.771875,10.159375 C13.6921875,9.6625 13.4953125,9.203125 13.2125,8.8109375 L14.08125,7.9421875 L13.375,7.2359375 L12.50625,8.1046875 C12.1140625,7.8203125 11.6546875,7.6234375 11.1578125,7.5453125 L11.1578125,6.31875 L10.1578125,6.31875 L10.1578125,7.5453125 C9.659375,7.625 9.2015625,7.8203125 8.809375,8.1046875 L7.940625,7.2359375 L7.234375,7.9421875 L8.103125,8.8109375 C7.81875,9.203125 7.621875,9.6609375 7.5421875,10.159375 L6.3125,10.159375 L6.3125,11.1578125 L7.540625,11.1578125 C7.6203125,11.6546875 7.8171875,12.1140625 8.1,12.50625 L7.23125,13.375 L7.9375,14.08125 L8.80625,13.2125 C9.1984375,13.496875 9.6578125,13.69375 10.1546875,13.771875 L10.1546875,15 L11.1546875,15 L11.1546875,13.771875 C11.653125,13.6921875 12.1109375,13.496875 12.503125,13.2125 L13.371875,14.08125 L14.078125,13.375 L13.209375,12.50625 C13.49375,12.1140625 13.690625,11.65625 13.7703125,11.1578125 L15,11.1578125 Z M12.8125,10.659375 C12.8125,11.846875 11.8453125,12.8140625 10.65625,12.8140625 C9.4671875,12.8140625 8.5,11.846875 8.5,10.659375 C8.5,9.471875 9.4671875,8.5046875 10.65625,8.5046875 C11.8453125,8.5046875 12.8125,9.4703125 12.8125,10.659375 Z" id="形状" fill="#7E8DB3"></path>
                </g>
            </g>
        </g>
    </g>
</svg>