<?xml version="1.0" encoding="UTF-8"?>
<svg width="16px" height="16px" viewBox="0 0 16 16" version="1.1" xmlns="http://www.w3.org/2000/svg" xmlns:xlink="http://www.w3.org/1999/xlink">
    <title>topiconCsm</title>
    <defs>
        <linearGradient x1="50%" y1="0%" x2="50%" y2="100%" id="linearGradient-1">
            <stop stop-color="#FFFFFF" offset="0%"></stop>
            <stop stop-color="#E6F1F6" offset="100%"></stop>
        </linearGradient>
    </defs>
    <g id="公共组件" stroke="none" stroke-width="1" fill="none" fill-rule="evenodd">
        <g id="顶部导航-工具" transform="translate(-281.000000, -10.000000)">
            <g id="topiconCsm" transform="translate(281.000000, 10.000000)">
                <rect id="矩形" fill="#000000" fill-rule="nonzero" opacity="0" x="0" y="0" width="16" height="16"></rect>
                <path d="M13.9881426,2.28570841 L2.93092656,2.28570841 C2.16122139,2.28570841 2.0121395,2.70222169 2.0121395,3.44677734 L2.0121395,13.4523926 L13.9881426,13.0769043 L13.9881426,2.28570841 Z" id="路径" fill="url(#linearGradient-1)"></path>
                <path d="M1.51914497,8.12002857 C1.81093408,8.11920067 2.04702928,7.88917774 2.04702806,7.60571377 L2.04702806,3.97435546 C2.04702806,3.34559387 2.58562182,2.88925863 3.32618826,2.88925864 L12.3614047,2.88925864 L11.4647685,3.75584967 C11.364969,3.85163568 11.3088003,3.98225097 11.3088003,4.11853957 C11.3088003,4.25482817 11.364969,4.38544346 11.4647685,4.48122947 C11.6735908,4.67527035 12.002633,4.67527035 12.2114553,4.48122947 L13.6987085,3.04682064 C13.8839153,2.86894855 13.9881426,2.6264687 13.9881426,2.37346603 C13.9881426,2.12046337 13.8839153,1.87798352 13.6987085,1.70011143 L12.2083951,0.268675467 C12.1085538,0.172968844 11.9737849,0.11953082 11.8335216,0.120028575 C11.6201277,0.121170101 11.4284282,0.247009882 11.3477334,0.438924355 C11.2670385,0.630838828 11.3132224,0.851075132 11.4647685,0.99702814 L12.3614047,1.86361916 L3.33383873,1.86361916 C2.739039,1.85367199 2.16086062,2.05446065 1.70734676,2.42846409 C1.24640909,2.81676582 0.983614381,3.38167557 0.988142603,3.97435546 L0.988142603,7.60571377 C0.987791186,7.7424961 1.04364712,7.87376956 1.14335183,7.97035002 C1.24305654,8.06693049 1.37834661,8.12081346 1.51914497,8.12002857 Z M14.49062,8 C14.3502763,8 14.2156807,8.05418496 14.1164428,8.15063481 C14.0172048,8.24708466 13.9614535,8.37789873 13.9614535,8.51429942 L13.9614535,11.8557592 C13.9614535,12.5870752 13.3634648,13.2306927 12.6828894,13.2306927 L3.63506053,13.2306927 L4.53127888,12.364113 C4.68256426,12.2183533 4.72882657,11.9984758 4.64855952,11.8066965 C4.56829247,11.6149172 4.37724354,11.4888609 4.16422699,11.4871284 C4.02320475,11.4847161 3.88729204,11.5384129 3.78799882,11.6357699 L2.3014387,13.0701599 C2.11631823,13.2480296 2.0121395,13.4905063 2.0121395,13.7435057 C2.0121395,13.996505 2.11631823,14.2389817 2.3014387,14.4168514 L3.78799882,15.8512414 C3.92186581,15.9802853 4.11639819,16.0301161 4.29831752,15.9819629 C4.48023684,15.9338098 4.62190522,15.7949884 4.66995755,15.6177914 C4.71800988,15.4405944 4.66514587,15.2519422 4.53127888,15.1228983 L3.63506053,14.2563187 L12.6828894,14.2563187 C13.3247348,14.2496901 13.9328312,13.975833 14.3529755,13.5041929 C14.7721209,13.0511913 15.0065373,12.4649642 15.0121395,11.8557592 L15.0121395,8.51429942 C15.0121395,8.23313697 14.7798799,8.00406304 14.49062,8 L14.49062,8 Z" id="形状" fill="#7E8DB3" fill-rule="nonzero"></path>
                <path d="M11.0380952,6.99428571 L4.1047619,6.99428571 C3.80761905,6.99428571 3.57142857,6.71085714 3.57142857,6.35428571 C3.57142857,5.99771429 3.80761905,5.71428571 4.1047619,5.71428571 L11.0380952,5.71428571 C11.3352381,5.71428571 11.5714286,5.99771429 11.5714286,6.35428571 C11.5714286,6.71085714 11.3352381,6.99428571 11.0380952,6.99428571 Z M7,11.0075188 L7,6.13533835 C7,5.90075188 7.23771429,5.71428571 7.59428571,5.71428571 C7.94171429,5.71428571 8.28,5.90075188 8.28,6.13533835 L8.28,11.0075188 C8.28,11.2360902 7.99657143,11.4285714 7.64,11.4285714 C7.29257143,11.4285714 7,11.2421053 7,11.0075188 Z" id="形状" fill="#2CA8FE" fill-rule="nonzero"></path>
            </g>
        </g>
    </g>
</svg>