<?xml version="1.0" encoding="UTF-8"?>
<svg width="16px" height="16px" viewBox="0 0 16 16" version="1.1" xmlns="http://www.w3.org/2000/svg" xmlns:xlink="http://www.w3.org/1999/xlink">
    <title>topiconmodelbase </title>
    <g id="页面" stroke="none" stroke-width="1" fill="none" fill-rule="evenodd">
        <g id="M-Design顶部菜单" transform="translate(-368.000000, -605.000000)" fill-rule="nonzero">
            <g id="顶部导航-选项" transform="translate(67.000000, 595.000000)">
                <g id="topiconmodelbase-" transform="translate(301.000000, 10.000000)">
                    <rect id="矩形" fill="#000000" opacity="0" x="0" y="0" width="16" height="16"></rect>
                    <path d="M6,2 L2,2 C1.44857143,2 1,2.44857143 1,3 L1,7 C1,7.55142857 1.44857143,8 2,8 L6,8 C6.55142857,8 7,7.55142857 7,7 L7,3 C7,2.44857143 6.55142857,2 6,2 Z M6,6.86666667 C6,6.94133333 5.94133333,7 5.86666667,7 L2.13333333,7 C2.05866667,7 2,6.94133333 2,6.86666667 L2,3.13333333 C2,3.05866667 2.05866667,3 2.13333333,3 L5.86666667,3 C5.94133333,3 6,3.05866667 6,3.13333333 L6,6.86666667 Z M13,2 L9,2 C8.44857143,2 8,2.44857143 8,3 L8,7 C8,7.55142857 8.44857143,8 9,8 L13,8 C13.5514286,8 14,7.55142857 14,7 L14,3 C14,2.44857143 13.5514286,2 13,2 L13,2 Z M13,6.86666667 C13,6.94133333 12.9413333,7 12.8666667,7 L9.13333333,7 C9.05866667,7 9,6.94133333 9,6.86666667 L9,3.13333333 C9,3.05866667 9.05866667,3 9.13333333,3 L12.8666667,3 C12.9413333,3 13,3.05866667 13,3.13333333 L13,6.86666667 Z M6,9 L2,9 C1.44857143,9 1,9.44857143 1,10 L1,14 C1,14.5514286 1.44857143,15 2,15 L6,15 C6.55142857,15 7,14.5514286 7,14 L7,10 C7,9.44857143 6.55142857,9 6,9 Z M6,13.8666667 C6,13.9413333 5.94133333,14 5.86666667,14 L2.13333333,14 C2.05866667,14 2,13.9413333 2,13.8666667 L2,10.1333333 C2,10.0586667 2.05866667,10 2.13333333,10 L5.86666667,10 C5.94133333,10 6,10.0586667 6,10.1333333 L6,13.8666667 Z M13,9 L9,9 C8.44857143,9 8,9.44857143 8,10 L8,14 C8,14.5514286 8.44857143,15 9,15 L13,15 C13.5514286,15 14,14.5514286 14,14 L14,10 C14,9.44857143 13.5514286,9 13,9 L13,9 Z M13,13.8666667 C13,13.9413333 12.9413333,14 12.8666667,14 L9.13333333,14 C9.05866667,14 9,13.9413333 9,13.8666667 L9,10.1333333 C9,10.0586667 9.05866667,10 9.13333333,10 L12.8666667,10 C12.9413333,10 13,10.0586667 13,10.1333333 L13,13.8666667 Z" id="形状" fill="#7E8DB3"></path>
                </g>
            </g>
        </g>
    </g>
</svg>