<?xml version="1.0" encoding="UTF-8"?>
<svg width="16px" height="16px" viewBox="0 0 16 16" version="1.1" xmlns="http://www.w3.org/2000/svg" xmlns:xlink="http://www.w3.org/1999/xlink">
    <title>topiconcreatenew</title>
    <defs>
        <linearGradient x1="50%" y1="0%" x2="50%" y2="100%" id="linearGradient-1">
            <stop stop-color="#FFFFFF" offset="0%"></stop>
            <stop stop-color="#E6F1F6" offset="100%"></stop>
        </linearGradient>
    </defs>
    <g id="icon调整" stroke="none" stroke-width="1" fill="none" fill-rule="evenodd">
        <g id="icon尺寸调整" transform="translate(-1054, -9)" fill-rule="nonzero">
            <g id="topiconcreatenew" transform="translate(1054, 9)">
                <rect id="矩形" fill="#000000" opacity="0" x="3.63797881e-12" y="0" width="16" height="16"></rect>
                <g id="编组-34">
                    <g id="编组-29">
                        <polygon id="矩形" fill="url(#linearGradient-1)" points="1 1 15 1 15 15 1 15"></polygon>
                        <path d="M16,16 L16,0 L0,0 L0,16 L12.1667664,16 L16,16 Z M1,14.9689948 L1.00191945,5.29815226 L1,1 L15,1 L15,15 L1,14.9689948 Z" id="形状" fill="#7E8DB3"></path>
                    </g>
                    <polygon id="矩形" fill="#7E8DB3" points="1 1 8 1 6.00674439 4 1 4"></polygon>
                    <polygon id="矩形" fill="#FFFFFF" points="1 1 6.83333333 1 5.46457333 3 1 3"></polygon>
                    <polygon id="形状" fill="#2EA2CB" transform="translate(8, 9) rotate(180) translate(-8, -9)" points="8.57142857 9.57142857 8.57142857 13 7.43568639 13 7.43568639 9.57142857 4 9.57142857 4 8.42857143 7.42857143 8.42857143 7.42857143 5 8.57142857 5 8.57142857 8.42857143 12 8.40461077 12 9.57142857"></polygon>
                </g>
            </g>
        </g>
    </g>
</svg>