<?xml version="1.0" encoding="UTF-8"?>
<svg width="16px" height="16px" viewBox="0 0 16 16" version="1.1" xmlns="http://www.w3.org/2000/svg" xmlns:xlink="http://www.w3.org/1999/xlink">
    <title>topiconxmlb</title>
    <defs>
        <linearGradient x1="50%" y1="0%" x2="50%" y2="100%" id="linearGradient-1">
            <stop stop-color="#FFFFFF" offset="0%"></stop>
            <stop stop-color="#E6F1F6" offset="100%"></stop>
        </linearGradient>
    </defs>
    <g id="公共组件" stroke="none" stroke-width="1" fill="none" fill-rule="evenodd">
        <g id="顶部导航-协同" transform="translate(-218.000000, -10.000000)">
            <g id="topiconxmlb" transform="translate(218.000000, 10.000000)">
                <rect id="矩形" fill="#000000" fill-rule="nonzero" opacity="0" x="0" y="0" width="16" height="16"></rect>
                <path d="M8.64705882,12.9090909 L11.3235294,12.9090909 C12.8529412,12.7454546 14,11.3545454 14,9.63636363 C14,7.83636362 12.6235294,6.36363635 10.9411765,6.36363637 L10.8647059,6.36363637 C10.482353,4.48181819 8.95294117,3.09090909 7.11764706,3.09090909 C4.97647058,3.09090909 3.29411765,4.8909091 3.29411765,7.18181818 C1.99411765,7.34545453 1,8.57272726 1,10.0454546 C1,11.6 2.2235294,12.9090909 3.67647058,12.9090909 L8.64705882,12.9090909 Z" id="路径" fill="url(#linearGradient-1)"></path>
                <path d="M8.64705882,12.9090909 L11.3235294,12.9090909 C12.8529412,12.7454546 14,11.3545454 14,9.63636363 C14,7.83636362 12.6235294,6.36363635 10.9411765,6.36363637 L10.8647059,6.36363637 C10.482353,4.48181819 8.95294117,3.09090909 7.11764706,3.09090909 C4.97647058,3.09090909 3.29411765,4.8909091 3.29411765,7.18181818 C1.99411765,7.34545453 1,8.57272726 1,10.0454546 C1,11.6 2.2235294,12.9090909 3.67647058,12.9090909 L8.64705882,12.9090909 Z M11.4473684,14 L3.55263158,14 C1.57894736,14 0,12.2857143 0,10.1428571 C0,8.42857144 1.0263158,6.97142857 2.36842105,6.45714286 C2.68421053,3.97142858 4.65789473,2 7.10526315,2 C9.15789473,2 10.9736842,3.45714285 11.6052632,5.42857143 C13.5,5.68571429 15,7.48571429 15,9.71428571 C15,11.9428571 13.4210526,13.7428571 11.4473684,14 L11.4473684,14 Z" id="形状" fill="#7E8DB3" fill-rule="nonzero"></path>
                <polygon id="路径" fill="#2CA8FE" fill-rule="nonzero" points="7.02752686 6.00000002 10.0275269 6.00000002 10.0275269 7.00000002 7.02752686 7.00000002"></polygon>
                <polygon id="路径" fill="#2CA8FE" fill-rule="nonzero" points="5.02752686 6.00000002 6.02752686 6.00000002 6.02752686 7.00000002 5.02752686 7.00000002"></polygon>
                <polygon id="路径" fill="#2CA8FE" fill-rule="nonzero" points="7.02752686 8.00000002 10.0275269 8.00000002 10.0275269 9.00000002 7.02752686 9.00000002"></polygon>
                <polygon id="路径" fill="#2CA8FE" fill-rule="nonzero" points="5.02752686 8.00000002 6.02752686 8.00000002 6.02752686 9.00000002 5.02752686 9.00000002"></polygon>
                <polygon id="路径" fill="#2CA8FE" fill-rule="nonzero" points="7.02752686 10 10.0275269 10 10.0275269 11 7.02752686 11"></polygon>
                <polygon id="路径" fill="#2CA8FE" fill-rule="nonzero" points="5.02752686 10 6.02752686 10 6.02752686 11 5.02752686 11"></polygon>
            </g>
        </g>
    </g>
</svg>