<?xml version="1.0" encoding="UTF-8"?>
<svg width="16px" height="16px" viewBox="0 0 16 16" version="1.1" xmlns="http://www.w3.org/2000/svg" xmlns:xlink="http://www.w3.org/1999/xlink">
    <title>wclose</title>
    <g id="页面-1" stroke="none" stroke-width="1" fill="none" fill-rule="evenodd">
        <g id="属性界面" transform="translate(-1408.000000, -5.000000)" fill-rule="nonzero">
            <g id="wclose" transform="translate(1408.000000, 5.000000)">
                <rect id="矩形" fill="#000000" opacity="0" x="0" y="0" width="16" height="16"></rect>
                <path d="M8.58678925,7.99280503 L12.8334166,3.78295192 C12.9197562,3.69661236 12.962926,3.5846907 12.962926,3.47117017 C12.962926,3.35764964 12.9197562,3.24572798 12.8334166,3.15938842 C12.6607375,2.9867093 12.3825322,2.9867093 12.2098531,3.15938842 L7.96002798,7.3724393 L3.71020286,3.15938842 C3.53752373,2.9867093 3.25931848,2.9867093 3.08663936,3.15938842 C3.0002998,3.24572798 2.95713002,3.35764964 2.95713002,3.47117017 C2.95713002,3.5846907 3.0002998,3.69661236 3.08663936,3.78295192 L7.33326672,7.99280503 L3.08663936,12.2026581 C3.0002998,12.2889977 2.95713002,12.4009194 2.95713002,12.5144399 C2.95713002,12.6279604 3.0002998,12.7398821 3.08663936,12.8262216 C3.17297892,12.9125612 3.28490058,12.955731 3.39842111,12.955731 C3.51194164,12.955731 3.6238633,12.9125612 3.71020286,12.8262216 L7.96002798,8.61317078 L12.2098531,12.8262216 C12.2961927,12.9125612 12.4081143,12.955731 12.5216349,12.955731 C12.6351554,12.955731 12.747077,12.9125612 12.8334166,12.8262216 C12.9197562,12.7398821 12.962926,12.6279604 12.962926,12.5144399 C12.962926,12.4009194 12.9197562,12.2889977 12.8334166,12.2026581 L8.58678925,7.99280503 Z" id="路径" fill="#FFFFFF"></path>
            </g>
        </g>
    </g>
</svg>