<?xml version="1.0" encoding="UTF-8"?>
<svg width="16px" height="16px" viewBox="0 0 16 16" version="1.1" xmlns="http://www.w3.org/2000/svg" xmlns:xlink="http://www.w3.org/1999/xlink">
    <title>minimize</title>
    <g id="页面-1" stroke="none" stroke-width="1" fill="none" fill-rule="evenodd">
        <g id="左侧列表模式-组件" transform="translate(-1369.000000, -5.000000)" fill-rule="nonzero">
            <g id="最小化" transform="translate(1369.000000, 5.000000)">
                <rect id="矩形" fill="#000000" opacity="0" x="0" y="0" width="16" height="16"></rect>
                <path d="M3,7 L3,13.0001526 L10.0041962,13.0022125 L9.99980981,14 L2,14 L2.00030518,7.00292969 L3,7 Z M14,3 L14,14 L10.8018098,14 L11.0036011,14 L10.995575,13 L12.9988098,13.0077515 L13,4 L3,4.0032196 L3.00042725,6 L1.99980981,6 L2,3 L14,3 Z" id="形状结合" fill="#FFFFFF"></path>
                <path d="M10,7 L10,14 L2,14 L2,7 L10,7 Z M9,8 L3,8 L3,13 L9,13 L9,8 Z" id="形状结合" fill="#FFFFFF"></path>
            </g>
        </g>
    </g>
</svg>